<?xml version="1.0" encoding="UTF-8" standalone="no"?>
<!-- Created with Inkscape (http://www.inkscape.org/) -->

<svg
   width="240.5"
   height="64"
   viewBox="0 0 63.632289 16.933333"
   version="1.1"
   id="svg5"
   sodipodi:docname="Devanagari_ऄ.svg"
   inkscape:version="1.2.1 (9c6d41e410, 2022-07-14)"
   xml:space="preserve"
   xmlns:inkscape="http://www.inkscape.org/namespaces/inkscape"
   xmlns:sodipodi="http://sodipodi.sourceforge.net/DTD/sodipodi-0.dtd"
   xmlns="http://www.w3.org/2000/svg"
   xmlns:svg="http://www.w3.org/2000/svg"><sodipodi:namedview
     id="namedview7"
     pagecolor="#505050"
     bordercolor="#eeeeee"
     borderopacity="1"
     inkscape:showpageshadow="0"
     inkscape:pageopacity="0"
     inkscape:pagecheckerboard="0"
     inkscape:deskcolor="#505050"
     inkscape:document-units="mm"
     showgrid="false"
     inkscape:zoom="2"
     inkscape:cx="162.75"
     inkscape:cy="26.25"
     inkscape:window-width="1920"
     inkscape:window-height="991"
     inkscape:window-x="-9"
     inkscape:window-y="-9"
     inkscape:window-maximized="1"
     inkscape:current-layer="g19394"
     showguides="true" /><defs
     id="defs2" /><g
     id="g18324"
     inkscape:label="1"
     transform="translate(-0.84379114,-13.924283)"><g
       id="g19523"
       inkscape:label="5"
       transform="translate(47.625)"><path
         style="font-size:12.5654px;line-height:0.95;font-family:'Noto Serif Devanagari';-inkscape-font-specification:'Noto Serif Devanagari';text-align:center;text-anchor:middle;opacity:1;stroke-width:0.130759"
         d="m 11.562367,20.41482 q -0.113088,-0.527746 -0.251308,-0.816751 -0.125654,-0.289004 -0.3267,-0.414658 -0.201047,-0.138219 -0.502616,-0.138219 -0.289004,0 -0.5403118,0.02513 -0.238743,0.02513 -0.502616,0.02513 -0.703663,0 -1.156017,-0.452355 -0.439789,-0.46492 -0.716228,-1.470152 l 0.540312,-0.175915 q 0.13822,0.414658 0.364397,0.678531 0.238742,0.251308 0.691097,0.251308 0.351831,0 0.603139,-0.02513 0.2513078,-0.02513 0.5654428,-0.02513 0.46492,0 0.804186,0.226177 0.351831,0.213612 0.590573,0.76649 0.238743,0.552877 0.389528,1.545544 z"
         id="path19511" /><path
         style="font-size:12.5654px;line-height:0.95;font-family:'Noto Serif Devanagari';-inkscape-font-specification:'Noto Serif Devanagari';text-align:center;text-anchor:middle;opacity:1;stroke-width:0.130759"
         d="M 10.067085,21.256702 9.5393382,20.439951 v -0.150785 h 3.6690968 l 0.540313,0.841882 v 0.125654 z"
         id="path19513" /><path
         style="font-size:12.5654px;line-height:0.95;font-family:'Noto Serif Devanagari';-inkscape-font-specification:'Noto Serif Devanagari';text-align:center;text-anchor:middle;opacity:1;stroke-width:0.130759"
         d="m 12.014722,28.217934 -0.967536,-0.691097 v -6.659662 h 1.105755 v 7.350759 z"
         id="path19515" /><path
         style="font-size:12.5654px;line-height:0.95;font-family:'Noto Serif Devanagari';-inkscape-font-specification:'Noto Serif Devanagari';text-align:center;text-anchor:middle;opacity:1;stroke-width:0.130759"
         d="m 10.330958,24.749883 q -0.5780078,0 -1.1057548,-0.276438 -0.515182,-0.276439 -0.942405,-0.728794 l 0.06283,-0.238742 q 0.301569,0.150785 0.665966,0.251308 0.376962,0.08796 0.753924,0.08796 0.4272238,0 0.7916198,-0.125654 0.364397,-0.13822 0.62827,-0.389528 v 1.231409 q -0.188481,0.08796 -0.402093,0.13822 -0.201046,0.05026 -0.452354,0.05026 z"
         id="path19517" /><path
         style="font-size:12.5654px;line-height:0.95;font-family:'Noto Serif Devanagari';-inkscape-font-specification:'Noto Serif Devanagari';text-align:center;text-anchor:middle;stroke-width:0.130759"
         d="m 7.0890852,24.222137 -0.515182,-1.017798 q 0.954971,-0.251308 1.470152,-0.540312 0.515182,-0.289004 0.515182,-0.741359 0,-0.3267 -0.226178,-0.502616 -0.213611,-0.175915 -0.565443,-0.175915 -0.351831,0 -0.766489,0.125654 -0.414658,0.125654 -0.829316,0.314135 l -0.540313,-1.055494 q 0.414659,-0.201046 0.829317,-0.289004 0.414658,-0.100523 0.79162,-0.100523 0.46492,0 0.841882,0.188481 0.389527,0.175915 0.741358,0.578008 0.238743,0.276439 0.364397,0.62827 0.138219,0.351831 0.138219,0.678532 0,0.691097 -0.527746,1.130886 -0.527747,0.427223 -1.72146,0.779055 z"
         id="path19519" /><path
         style="font-size:12.5654px;line-height:0.95;font-family:'Noto Serif Devanagari';-inkscape-font-specification:'Noto Serif Devanagari';text-align:center;text-anchor:middle;stroke-width:0.130759"
         d="m 7.6419622,27.16244 q -0.741358,0 -1.344497,-0.402092 -0.590574,-0.402093 -1.030363,-1.080625 -0.427224,-0.678532 -0.728793,-1.482717 l 0.578008,-0.251308 q 0.414658,1.005232 0.95497,1.58324 0.552878,0.565443 1.319367,0.565443 0.477486,0 0.779055,-0.276438 0.314135,-0.289005 0.314135,-0.703663 0,-0.289004 -0.100523,-0.552878 -0.08796,-0.263873 -0.251308,-0.49005 -0.16335,-0.238743 -0.389527,-0.402093 l 0.452354,-0.188481 q 0.439789,0.351831 0.703662,0.691097 0.276439,0.3267 0.389528,0.678532 0.113088,0.339266 0.113088,0.728793 0,0.741359 -0.502616,1.168582 -0.49005,0.414658 -1.25654,0.414658 z"
         id="path19521" /></g><g
       id="g19394"
       inkscape:label="4"
       transform="translate(35.71875)"><path
         style="font-size:12.5654px;line-height:0.95;font-family:'Noto Serif Devanagari';-inkscape-font-specification:'Noto Serif Devanagari';text-align:center;text-anchor:middle;opacity:1;stroke-width:0.130759;fill:#c8c8c8;fill-opacity:1"
         d="M 10.067085,21.256702 9.5393382,20.439951 v -0.150785 h 3.6690968 l 0.540313,0.841882 v 0.125654 z"
         id="path19384" /><path
         style="font-size:12.5654px;line-height:0.95;font-family:'Noto Serif Devanagari';-inkscape-font-specification:'Noto Serif Devanagari';text-align:center;text-anchor:middle;opacity:1;stroke-width:0.130759"
         d="m 11.562367,20.41482 q -0.113088,-0.527746 -0.251308,-0.816751 -0.125654,-0.289004 -0.3267,-0.414658 -0.201047,-0.138219 -0.502616,-0.138219 -0.289004,0 -0.5403118,0.02513 -0.238743,0.02513 -0.502616,0.02513 -0.703663,0 -1.156017,-0.452355 -0.439789,-0.46492 -0.716228,-1.470152 l 0.540312,-0.175915 q 0.13822,0.414658 0.364397,0.678531 0.238742,0.251308 0.691097,0.251308 0.351831,0 0.603139,-0.02513 0.2513078,-0.02513 0.5654428,-0.02513 0.46492,0 0.804186,0.226177 0.351831,0.213612 0.590573,0.76649 0.238743,0.552877 0.389528,1.545544 z"
         id="path19382" /><path
         style="font-size:12.5654px;line-height:0.95;font-family:'Noto Serif Devanagari';-inkscape-font-specification:'Noto Serif Devanagari';text-align:center;text-anchor:middle;opacity:1;stroke-width:0.130759"
         d="m 12.014722,28.217934 -0.967536,-0.691097 v -6.659662 h 1.105755 v 7.350759 z"
         id="path19386" /><path
         style="font-size:12.5654px;line-height:0.95;font-family:'Noto Serif Devanagari';-inkscape-font-specification:'Noto Serif Devanagari';text-align:center;text-anchor:middle;opacity:1;stroke-width:0.130759"
         d="m 10.330958,24.749883 q -0.5780078,0 -1.1057548,-0.276438 -0.515182,-0.276439 -0.942405,-0.728794 l 0.06283,-0.238742 q 0.301569,0.150785 0.665966,0.251308 0.376962,0.08796 0.753924,0.08796 0.4272238,0 0.7916198,-0.125654 0.364397,-0.13822 0.62827,-0.389528 v 1.231409 q -0.188481,0.08796 -0.402093,0.13822 -0.201046,0.05026 -0.452354,0.05026 z"
         id="path19388" /><path
         style="font-size:12.5654px;line-height:0.95;font-family:'Noto Serif Devanagari';-inkscape-font-specification:'Noto Serif Devanagari';text-align:center;text-anchor:middle;stroke-width:0.130759"
         d="m 7.0890852,24.222137 -0.515182,-1.017798 q 0.954971,-0.251308 1.470152,-0.540312 0.515182,-0.289004 0.515182,-0.741359 0,-0.3267 -0.226178,-0.502616 -0.213611,-0.175915 -0.565443,-0.175915 -0.351831,0 -0.766489,0.125654 -0.414658,0.125654 -0.829316,0.314135 l -0.540313,-1.055494 q 0.414659,-0.201046 0.829317,-0.289004 0.414658,-0.100523 0.79162,-0.100523 0.46492,0 0.841882,0.188481 0.389527,0.175915 0.741358,0.578008 0.238743,0.276439 0.364397,0.62827 0.138219,0.351831 0.138219,0.678532 0,0.691097 -0.527746,1.130886 -0.527747,0.427223 -1.72146,0.779055 z"
         id="path19390" /><path
         style="font-size:12.5654px;line-height:0.95;font-family:'Noto Serif Devanagari';-inkscape-font-specification:'Noto Serif Devanagari';text-align:center;text-anchor:middle;stroke-width:0.130759"
         d="m 7.6419622,27.16244 q -0.741358,0 -1.344497,-0.402092 -0.590574,-0.402093 -1.030363,-1.080625 -0.427224,-0.678532 -0.728793,-1.482717 l 0.578008,-0.251308 q 0.414658,1.005232 0.95497,1.58324 0.552878,0.565443 1.319367,0.565443 0.477486,0 0.779055,-0.276438 0.314135,-0.289005 0.314135,-0.703663 0,-0.289004 -0.100523,-0.552878 -0.08796,-0.263873 -0.251308,-0.49005 -0.16335,-0.238743 -0.389527,-0.402093 l 0.452354,-0.188481 q 0.439789,0.351831 0.703662,0.691097 0.276439,0.3267 0.389528,0.678532 0.113088,0.339266 0.113088,0.728793 0,0.741359 -0.502616,1.168582 -0.49005,0.414658 -1.25654,0.414658 z"
         id="path19392" /></g><g
       id="g18382"
       inkscape:label="3"
       transform="translate(23.8125)"><path
         style="font-size:12.5654px;line-height:0.95;font-family:'Noto Serif Devanagari';-inkscape-font-specification:'Noto Serif Devanagari';text-align:center;text-anchor:middle;opacity:1;stroke-width:0.130759;fill:#c8c8c8;fill-opacity:1"
         d="m 11.562367,20.41482 q -0.113088,-0.527746 -0.251308,-0.816751 -0.125654,-0.289004 -0.3267,-0.414658 -0.201047,-0.138219 -0.502616,-0.138219 -0.289004,0 -0.5403118,0.02513 -0.238743,0.02513 -0.502616,0.02513 -0.703663,0 -1.156017,-0.452355 -0.439789,-0.46492 -0.716228,-1.470152 l 0.540312,-0.175915 q 0.13822,0.414658 0.364397,0.678531 0.238742,0.251308 0.691097,0.251308 0.351831,0 0.603139,-0.02513 0.2513078,-0.02513 0.5654428,-0.02513 0.46492,0 0.804186,0.226177 0.351831,0.213612 0.590573,0.76649 0.238743,0.552877 0.389528,1.545544 z"
         id="path18370" /><path
         style="font-size:12.5654px;line-height:0.95;font-family:'Noto Serif Devanagari';-inkscape-font-specification:'Noto Serif Devanagari';text-align:center;text-anchor:middle;opacity:1;stroke-width:0.130759;fill:#c8c8c8;fill-opacity:1"
         d="M 10.067085,21.256702 9.5393382,20.439951 v -0.150785 h 3.6690968 l 0.540313,0.841882 v 0.125654 z"
         id="path18372" /><path
         style="font-size:12.5654px;line-height:0.95;font-family:'Noto Serif Devanagari';-inkscape-font-specification:'Noto Serif Devanagari';text-align:center;text-anchor:middle;opacity:1;stroke-width:0.130759"
         d="m 12.014722,28.217934 -0.967536,-0.691097 v -6.659662 h 1.105755 v 7.350759 z"
         id="path18374" /><path
         style="font-size:12.5654px;line-height:0.95;font-family:'Noto Serif Devanagari';-inkscape-font-specification:'Noto Serif Devanagari';text-align:center;text-anchor:middle;opacity:1;stroke-width:0.130759"
         d="m 10.330958,24.749883 q -0.5780078,0 -1.1057548,-0.276438 -0.515182,-0.276439 -0.942405,-0.728794 l 0.06283,-0.238742 q 0.301569,0.150785 0.665966,0.251308 0.376962,0.08796 0.753924,0.08796 0.4272238,0 0.7916198,-0.125654 0.364397,-0.13822 0.62827,-0.389528 v 1.231409 q -0.188481,0.08796 -0.402093,0.13822 -0.201046,0.05026 -0.452354,0.05026 z"
         id="path18376" /><path
         style="font-size:12.5654px;line-height:0.95;font-family:'Noto Serif Devanagari';-inkscape-font-specification:'Noto Serif Devanagari';text-align:center;text-anchor:middle;stroke-width:0.130759"
         d="m 7.0890852,24.222137 -0.515182,-1.017798 q 0.954971,-0.251308 1.470152,-0.540312 0.515182,-0.289004 0.515182,-0.741359 0,-0.3267 -0.226178,-0.502616 -0.213611,-0.175915 -0.565443,-0.175915 -0.351831,0 -0.766489,0.125654 -0.414658,0.125654 -0.829316,0.314135 l -0.540313,-1.055494 q 0.414659,-0.201046 0.829317,-0.289004 0.414658,-0.100523 0.79162,-0.100523 0.46492,0 0.841882,0.188481 0.389527,0.175915 0.741358,0.578008 0.238743,0.276439 0.364397,0.62827 0.138219,0.351831 0.138219,0.678532 0,0.691097 -0.527746,1.130886 -0.527747,0.427223 -1.72146,0.779055 z"
         id="path18378" /><path
         style="font-size:12.5654px;line-height:0.95;font-family:'Noto Serif Devanagari';-inkscape-font-specification:'Noto Serif Devanagari';text-align:center;text-anchor:middle;stroke-width:0.130759"
         d="m 7.6419622,27.16244 q -0.741358,0 -1.344497,-0.402092 -0.590574,-0.402093 -1.030363,-1.080625 -0.427224,-0.678532 -0.728793,-1.482717 l 0.578008,-0.251308 q 0.414658,1.005232 0.95497,1.58324 0.552878,0.565443 1.319367,0.565443 0.477486,0 0.779055,-0.276438 0.314135,-0.289005 0.314135,-0.703663 0,-0.289004 -0.100523,-0.552878 -0.08796,-0.263873 -0.251308,-0.49005 -0.16335,-0.238743 -0.389527,-0.402093 l 0.452354,-0.188481 q 0.439789,0.351831 0.703662,0.691097 0.276439,0.3267 0.389528,0.678532 0.113088,0.339266 0.113088,0.728793 0,0.741359 -0.502616,1.168582 -0.49005,0.414658 -1.25654,0.414658 z"
         id="path18380" /></g><g
       id="g18338"
       inkscape:label="2"
       transform="translate(11.90625)"><path
         style="font-size:12.5654px;line-height:0.95;font-family:'Noto Serif Devanagari';-inkscape-font-specification:'Noto Serif Devanagari';text-align:center;text-anchor:middle;opacity:1;stroke-width:0.130759;fill:#c8c8c8;fill-opacity:1"
         d="m 11.562367,20.41482 q -0.113088,-0.527746 -0.251308,-0.816751 -0.125654,-0.289004 -0.3267,-0.414658 -0.201047,-0.138219 -0.502616,-0.138219 -0.289004,0 -0.5403118,0.02513 -0.238743,0.02513 -0.502616,0.02513 -0.703663,0 -1.156017,-0.452355 -0.439789,-0.46492 -0.716228,-1.470152 l 0.540312,-0.175915 q 0.13822,0.414658 0.364397,0.678531 0.238742,0.251308 0.691097,0.251308 0.351831,0 0.603139,-0.02513 0.2513078,-0.02513 0.5654428,-0.02513 0.46492,0 0.804186,0.226177 0.351831,0.213612 0.590573,0.76649 0.238743,0.552877 0.389528,1.545544 z"
         id="path18326" /><path
         style="font-size:12.5654px;line-height:0.95;font-family:'Noto Serif Devanagari';-inkscape-font-specification:'Noto Serif Devanagari';text-align:center;text-anchor:middle;opacity:1;stroke-width:0.130759;fill:#c8c8c8;fill-opacity:1"
         d="M 10.067085,21.256702 9.5393382,20.439951 v -0.150785 h 3.6690968 l 0.540313,0.841882 v 0.125654 z"
         id="path18328" /><path
         style="font-size:12.5654px;line-height:0.95;font-family:'Noto Serif Devanagari';-inkscape-font-specification:'Noto Serif Devanagari';text-align:center;text-anchor:middle;opacity:1;stroke-width:0.130759;fill:#c8c8c8;fill-opacity:1"
         d="m 12.014722,28.217934 -0.967536,-0.691097 v -6.659662 h 1.105755 v 7.350759 z"
         id="path18330" /><path
         style="font-size:12.5654px;line-height:0.95;font-family:'Noto Serif Devanagari';-inkscape-font-specification:'Noto Serif Devanagari';text-align:center;text-anchor:middle;opacity:1;stroke-width:0.130759"
         d="m 10.330958,24.749883 q -0.5780078,0 -1.1057548,-0.276438 -0.515182,-0.276439 -0.942405,-0.728794 l 0.06283,-0.238742 q 0.301569,0.150785 0.665966,0.251308 0.376962,0.08796 0.753924,0.08796 0.4272238,0 0.7916198,-0.125654 0.364397,-0.13822 0.62827,-0.389528 v 1.231409 q -0.188481,0.08796 -0.402093,0.13822 -0.201046,0.05026 -0.452354,0.05026 z"
         id="path18332" /><path
         style="font-size:12.5654px;line-height:0.95;font-family:'Noto Serif Devanagari';-inkscape-font-specification:'Noto Serif Devanagari';text-align:center;text-anchor:middle;stroke-width:0.130759"
         d="m 7.0890852,24.222137 -0.515182,-1.017798 q 0.954971,-0.251308 1.470152,-0.540312 0.515182,-0.289004 0.515182,-0.741359 0,-0.3267 -0.226178,-0.502616 -0.213611,-0.175915 -0.565443,-0.175915 -0.351831,0 -0.766489,0.125654 -0.414658,0.125654 -0.829316,0.314135 l -0.540313,-1.055494 q 0.414659,-0.201046 0.829317,-0.289004 0.414658,-0.100523 0.79162,-0.100523 0.46492,0 0.841882,0.188481 0.389527,0.175915 0.741358,0.578008 0.238743,0.276439 0.364397,0.62827 0.138219,0.351831 0.138219,0.678532 0,0.691097 -0.527746,1.130886 -0.527747,0.427223 -1.72146,0.779055 z"
         id="path18334" /><path
         style="font-size:12.5654px;line-height:0.95;font-family:'Noto Serif Devanagari';-inkscape-font-specification:'Noto Serif Devanagari';text-align:center;text-anchor:middle;stroke-width:0.130759"
         d="m 7.6419622,27.16244 q -0.741358,0 -1.344497,-0.402092 -0.590574,-0.402093 -1.030363,-1.080625 -0.427224,-0.678532 -0.728793,-1.482717 l 0.578008,-0.251308 q 0.414658,1.005232 0.95497,1.58324 0.552878,0.565443 1.319367,0.565443 0.477486,0 0.779055,-0.276438 0.314135,-0.289005 0.314135,-0.703663 0,-0.289004 -0.100523,-0.552878 -0.08796,-0.263873 -0.251308,-0.49005 -0.16335,-0.238743 -0.389527,-0.402093 l 0.452354,-0.188481 q 0.439789,0.351831 0.703662,0.691097 0.276439,0.3267 0.389528,0.678532 0.113088,0.339266 0.113088,0.728793 0,0.741359 -0.502616,1.168582 -0.49005,0.414658 -1.25654,0.414658 z"
         id="path18336" /></g><path
       style="font-size:12.5654px;line-height:0.95;font-family:'Noto Serif Devanagari';-inkscape-font-specification:'Noto Serif Devanagari';text-align:center;text-anchor:middle;opacity:1;stroke-width:0.130759;fill:#c8c8c8;fill-opacity:1"
       d="m 11.562367,20.41482 q -0.113088,-0.527746 -0.251308,-0.816751 -0.125654,-0.289004 -0.3267,-0.414658 -0.201047,-0.138219 -0.502616,-0.138219 -0.289004,0 -0.5403118,0.02513 -0.238743,0.02513 -0.502616,0.02513 -0.703663,0 -1.156017,-0.452355 -0.439789,-0.46492 -0.716228,-1.470152 l 0.540312,-0.175915 q 0.13822,0.414658 0.364397,0.678531 0.238742,0.251308 0.691097,0.251308 0.351831,0 0.603139,-0.02513 0.2513078,-0.02513 0.5654428,-0.02513 0.46492,0 0.804186,0.226177 0.351831,0.213612 0.590573,0.76649 0.238743,0.552877 0.389528,1.545544 z"
       id="path17382" /><path
       style="font-size:12.5654px;line-height:0.95;font-family:'Noto Serif Devanagari';-inkscape-font-specification:'Noto Serif Devanagari';text-align:center;text-anchor:middle;opacity:1;stroke-width:0.130759;fill:#c8c8c8;fill-opacity:1"
       d="M 10.067085,21.256702 9.5393382,20.439951 v -0.150785 h 3.6690968 l 0.540313,0.841882 v 0.125654 z"
       id="path17380" /><path
       style="font-size:12.5654px;line-height:0.95;font-family:'Noto Serif Devanagari';-inkscape-font-specification:'Noto Serif Devanagari';text-align:center;text-anchor:middle;opacity:1;stroke-width:0.130759;fill:#c8c8c8;fill-opacity:1"
       d="m 12.014722,28.217934 -0.967536,-0.691097 v -6.659662 h 1.105755 v 7.350759 z"
       id="path17378" /><path
       style="font-size:12.5654px;line-height:0.95;font-family:'Noto Serif Devanagari';-inkscape-font-specification:'Noto Serif Devanagari';text-align:center;text-anchor:middle;opacity:1;stroke-width:0.130759;fill:#c8c8c8;fill-opacity:1"
       d="m 10.330958,24.749883 q -0.5780078,0 -1.1057548,-0.276438 -0.515182,-0.276439 -0.942405,-0.728794 l 0.06283,-0.238742 q 0.301569,0.150785 0.665966,0.251308 0.376962,0.08796 0.753924,0.08796 0.4272238,0 0.7916198,-0.125654 0.364397,-0.13822 0.62827,-0.389528 v 1.231409 q -0.188481,0.08796 -0.402093,0.13822 -0.201046,0.05026 -0.452354,0.05026 z"
       id="path17376" /><path
       style="font-size:12.5654px;line-height:0.95;font-family:'Noto Serif Devanagari';-inkscape-font-specification:'Noto Serif Devanagari';text-align:center;text-anchor:middle;stroke-width:0.130759"
       d="m 7.0890852,24.222137 -0.515182,-1.017798 q 0.954971,-0.251308 1.470152,-0.540312 0.515182,-0.289004 0.515182,-0.741359 0,-0.3267 -0.226178,-0.502616 -0.213611,-0.175915 -0.565443,-0.175915 -0.351831,0 -0.766489,0.125654 -0.414658,0.125654 -0.829316,0.314135 l -0.540313,-1.055494 q 0.414659,-0.201046 0.829317,-0.289004 0.414658,-0.100523 0.79162,-0.100523 0.46492,0 0.841882,0.188481 0.389527,0.175915 0.741358,0.578008 0.238743,0.276439 0.364397,0.62827 0.138219,0.351831 0.138219,0.678532 0,0.691097 -0.527746,1.130886 -0.527747,0.427223 -1.72146,0.779055 z"
       id="path17374" /><path
       style="font-size:12.5654px;line-height:0.95;font-family:'Noto Serif Devanagari';-inkscape-font-specification:'Noto Serif Devanagari';text-align:center;text-anchor:middle;stroke-width:0.130759"
       d="m 7.6419622,27.16244 q -0.741358,0 -1.344497,-0.402092 -0.590574,-0.402093 -1.030363,-1.080625 -0.427224,-0.678532 -0.728793,-1.482717 l 0.578008,-0.251308 q 0.414658,1.005232 0.95497,1.58324 0.552878,0.565443 1.319367,0.565443 0.477486,0 0.779055,-0.276438 0.314135,-0.289005 0.314135,-0.703663 0,-0.289004 -0.100523,-0.552878 -0.08796,-0.263873 -0.251308,-0.49005 -0.16335,-0.238743 -0.389527,-0.402093 l 0.452354,-0.188481 q 0.439789,0.351831 0.703662,0.691097 0.276439,0.3267 0.389528,0.678532 0.113088,0.339266 0.113088,0.728793 0,0.741359 -0.502616,1.168582 -0.49005,0.414658 -1.25654,0.414658 z"
       id="path392" /></g><g
     id="g18308"
     inkscape:label="Arrows"
     transform="translate(-0.84379114,-13.924283)"
     style="stroke:#ff0c0c;stroke-opacity:1;opacity:0.9"><g
       id="path19546"
       style="opacity:0.8"><path
         style="color:#000000;fill:#ff0000;stroke:none"
         d="m 57.271484,19.65625 v 0.130859 h 2.94003 V 19.65625 Z"
         id="path27032"
         sodipodi:nodetypes="ccccc" /><g
         id="g27022"><g
           id="path27024"><path
             style="color:#000000;fill:#ff0000;fill-rule:evenodd;stroke:none;stroke-width:0.0655pt;-inkscape-stroke:none"
             d="m 60.599419,19.721465 -0.566575,0.3275 v -0.655 z"
             id="path27028" /><path
             style="color:#000000;fill:#ff0000;fill-rule:evenodd;stroke:none;-inkscape-stroke:none"
             d="M 59.989154,19.318359 V 20.125 l 0.697266,-0.404297 -0.06445,-0.03711 z m 0.08789,0.152344 0.433593,0.251953 -0.433593,0.25 z"
             id="path27030" /></g></g></g><g
       id="path4355"
       style="opacity:0.8"><path
         style="color:#000000;fill:#ff0000;stroke:none;-inkscape-stroke:none"
         d="m 36.494141,21.371094 v 3.787109 H 36.625 v -3.787109 z"
         id="path27046" /><g
         id="g27036"><g
           id="path27038"><path
             style="color:#000000;fill:#ff0000;fill-rule:evenodd;stroke:none;stroke-width:0.0655pt;-inkscape-stroke:none"
             d="m 36.559636,25.535383 -0.3275,-0.566575 h 0.655 z"
             id="path27042" /><path
             style="color:#000000;fill:#ff0000;fill-rule:evenodd;stroke:none;-inkscape-stroke:none"
             d="m 36.15625,24.925781 0.404297,0.697266 0.03711,-0.06641 0.365235,-0.63086 z m 0.150391,0.08594 H 36.8125 l -0.253906,0.435547 z"
             id="path27044" /></g></g></g><g
       id="path19823"
       style="opacity:0.8"><path
         style="color:#000000;fill:#ff0c0c;stroke:none;-inkscape-stroke:none"
         d="m 9.1230469,23.662109 -0.091797,0.09375 c 0,0 0.2714001,0.264047 0.5,0.646485 0.2285999,0.382437 0.4083713,0.874793 0.2480469,1.328125 l 0.1230469,0.04297 C 10.082638,25.263641 9.8808604,24.734573 9.6425781,24.335937 9.4042959,23.937302 9.1230469,23.662109 9.1230469,23.662109 Z"
         id="path27060" /><g
         id="g27050"><g
           id="path27052"><path
             style="color:#000000;fill:#ff0c0c;fill-rule:evenodd;stroke:none;stroke-width:0.0655pt;-inkscape-stroke:none"
             d="m 9.7148148,26.108287 -0.1198516,-0.64335 0.6175198,0.218391 z"
             id="path27056" /><path
             style="color:#000000;fill:#ff0c0c;fill-rule:evenodd;stroke:none;-inkscape-stroke:none"
             d="m 9.5390625,25.398437 0.1464844,0.792969 0.058594,-0.05078 0.5546874,-0.472656 z m 0.1132813,0.132813 0.4746092,0.167969 -0.3828124,0.326172 z"
             id="path27058" /></g></g></g><g
       id="path19857"
       style="opacity:0.8"><path
         style="color:#000000;fill:#ff0c0c;stroke:none;-inkscape-stroke:none"
         d="m 22.261719,23.099609 c -0.726189,0.329053 -1.441407,0.08984 -1.441407,0.08984 l -0.04102,0.125 c 0,0 0.75988,0.256477 1.537109,-0.0957 z"
         id="path27074" /><g
         id="g27064"><g
           id="path27066"><path
             style="color:#000000;fill:#ff0c0c;fill-rule:evenodd;stroke:none;stroke-width:0.0655pt;-inkscape-stroke:none"
             d="M 22.633016,23.002403 22.252117,23.53455 21.98178,22.93794 Z"
             id="path27070" /><path
             style="color:#000000;fill:#ff0c0c;fill-rule:evenodd;stroke:none;-inkscape-stroke:none"
             d="m 21.910156,22.886719 0.333985,0.734375 0.46875,-0.654297 -0.07617,-0.0078 z m 0.142578,0.101562 0.501953,0.04883 -0.294921,0.41211 z"
             id="path27072" /></g></g></g><g
       id="path19923"
       style="opacity:0.8"
       transform="translate(0.84379114,13.924283)"><path
         style="color:#000000;fill:#ff0c0c;stroke:none;-inkscape-stroke:none"
         d="m 43.640625,2.9824219 -0.130859,0.00195 c 0.001,0.2285517 0.05786,0.3922118 0.152343,0.5058594 0.09449,0.1136475 0.223686,0.1717044 0.351563,0.2011719 0.127877,0.029467 0.257833,0.032793 0.367187,0.033203 0.109355,4.098e-4 0.203155,0.00371 0.230469,0.013672 l 0.04297,-0.1230469 C 44.577863,3.587351 44.488558,3.5941536 44.380859,3.59375 44.273161,3.5933464 44.152945,3.5897955 44.042969,3.5644531 43.932993,3.5391107 43.835331,3.4924396 43.763672,3.40625 43.692013,3.3200604 43.641545,3.1897653 43.640625,2.9824219 Z"
         id="path27088" /><g
         id="g27078"><g
           id="path27080"><path
             style="color:#000000;fill:#ff0c0c;fill-rule:evenodd;stroke:none;stroke-width:0.0655pt;-inkscape-stroke:none"
             d="m 43.574041,2.6054198 0.330011,0.565116 -0.654994,0.00291 z"
             id="path27084" /><path
             style="color:#000000;fill:#ff0c0c;fill-rule:evenodd;stroke:none;-inkscape-stroke:none"
             d="m 43.574219,2.5175781 -0.03711,0.066406 -0.363281,0.6328125 0.806641,-0.00391 z m 0,0.1738282 0.253906,0.4355468 -0.503906,0.00195 z"
             id="path27086" /></g></g></g><g
       id="path20071"
       style="opacity:0.8"
       transform="translate(0.84379114,13.924283)"><path
         style="color:#000000;fill:#ff0c0c;stroke:none;-inkscape-stroke:none"
         d="m 46.634766,3.9492188 -0.06836,0.1113281 c 0.395398,0.2385064 0.601204,0.6871107 0.705078,1.0820312 0.05194,0.1974603 0.07853,0.3793802 0.0918,0.5136719 0.0066,0.067146 0.0101,0.1238373 0.01172,0.1621094 8.1e-4,0.019136 -1.48e-4,0.032807 0,0.042969 6.2e-5,0.00426 0.002,0.00735 0.002,0.00977 l 0.128906,0.015625 c 6e-5,-4.526e-4 0.0019,-0.010074 0.002,-0.013672 1.9e-5,-0.0036 8.5e-5,-0.00791 0,-0.013672 -1.68e-4,-0.011527 -0.0011,-0.026584 -0.002,-0.046875 -0.0017,-0.040582 -0.0048,-0.098154 -0.01172,-0.1679688 -0.0138,-0.139629 -0.04149,-0.3290306 -0.0957,-0.5351562 C 47.290005,4.6971238 47.074494,4.2144658 46.634766,3.9492188 Z"
         id="path27102" /><g
         id="g27092"><g
           id="path27094"><path
             style="color:#000000;fill:#ff0c0c;fill-rule:evenodd;stroke:none;stroke-width:0.0655pt;-inkscape-stroke:none"
             d="m 46.27656,3.8099993 0.654305,0.012212 -0.338317,0.5608629 z"
             id="path27098" /><path
             style="color:#000000;fill:#ff0c0c;fill-rule:evenodd;stroke:none;-inkscape-stroke:none"
             d="m 46.201172,3.765625 0.03711,0.066406 0.353516,0.6386718 0.416015,-0.6914062 z m 0.15039,0.089844 0.501954,0.00781 -0.259766,0.4316406 z"
             id="path27100" /></g></g></g><g
       id="path19773"
       style="opacity:0.8"
       transform="translate(0.84379114,13.924283)"><path
         style="color:#000000;fill:#ff0c0c;stroke:none;-inkscape-stroke:none"
         d="m 6.9082031,5.6914062 c -0.3048346,-0.046734 -0.6340037,-0.030403 -0.9375,0.00977 -0.6069926,0.080337 -1.1191406,0.2617187 -1.1191406,0.2617187 l 0.044922,0.125 c 0,0 0.4987989,-0.1776328 1.0898437,-0.2558594 0.5910448,-0.078227 1.2622435,-0.05059 1.6113281,0.3203125 L 7.6933594,6.0625 C 7.492047,5.8486055 7.2130377,5.7381399 6.9082031,5.6914062 Z"
         id="path27116" /><g
         id="g27106"><g
           id="path27108"><path
             style="color:#000000;fill:#ff0c0c;fill-rule:evenodd;stroke:none;stroke-width:0.0655pt;-inkscape-stroke:none"
             d="M 7.9053286,6.38286 7.2785326,6.194737 7.7555036,5.7458231 Z"
             id="path27112" /><path
             style="color:#000000;fill:#ff0c0c;fill-rule:evenodd;stroke:none;-inkscape-stroke:none"
             d="M 7.78125,5.6621094 7.1933594,6.2148437 7.9648437,6.4472656 7.9472656,6.3730469 Z M 7.7304687,5.8300781 7.8457031,6.3203125 7.3632812,6.1738281 Z"
             id="path27114" /></g></g></g></g></svg>
