<?xml version="1.0" encoding="UTF-8" standalone="no"?>
<!-- Created with Inkscape (http://www.inkscape.org/) -->

<svg
   width="200"
   height="65"
   viewBox="0 0 52.916664 17.197916"
   version="1.1"
   id="svg5"
   sodipodi:docname="Devanagari_अ.svg"
   inkscape:version="1.2.1 (9c6d41e410, 2022-07-14)"
   xml:space="preserve"
   xmlns:inkscape="http://www.inkscape.org/namespaces/inkscape"
   xmlns:sodipodi="http://sodipodi.sourceforge.net/DTD/sodipodi-0.dtd"
   xmlns="http://www.w3.org/2000/svg"
   xmlns:svg="http://www.w3.org/2000/svg"><sodipodi:namedview
     id="namedview7"
     pagecolor="#505050"
     bordercolor="#eeeeee"
     borderopacity="1"
     inkscape:showpageshadow="0"
     inkscape:pageopacity="0"
     inkscape:pagecheckerboard="0"
     inkscape:deskcolor="#505050"
     inkscape:document-units="mm"
     showgrid="false"
     inkscape:zoom="16"
     inkscape:cx="46.09375"
     inkscape:cy="28.09375"
     inkscape:window-width="1920"
     inkscape:window-height="991"
     inkscape:window-x="-9"
     inkscape:window-y="-9"
     inkscape:window-maximized="1"
     inkscape:current-layer="svg5"
     showguides="true"><sodipodi:guide
       position="4.8379958,12.415462"
       orientation="1,0"
       id="guide13595"
       inkscape:locked="false" /></sodipodi:namedview><defs
     id="defs2" /><g
     id="g19523"
     inkscape:label="4"
     transform="translate(35.174179,-15.169188)"><path
       style="font-size:12.5654px;line-height:0.95;font-family:'Noto Serif Devanagari';-inkscape-font-specification:'Noto Serif Devanagari';text-align:center;text-anchor:middle;opacity:1;stroke-width:0.130759"
       d="M 10.067085,21.256702 9.5393382,20.439951 v -0.150785 h 3.6690968 l 0.540313,0.841882 v 0.125654 z"
       id="path19513" /><path
       style="font-size:12.5654px;line-height:0.95;font-family:'Noto Serif Devanagari';-inkscape-font-specification:'Noto Serif Devanagari';text-align:center;text-anchor:middle;opacity:1;stroke-width:0.130759"
       d="m 12.014722,28.217934 -0.967536,-0.691097 v -6.659662 h 1.105755 v 7.350759 z"
       id="path19515" /><path
       style="font-size:12.5654px;line-height:0.95;font-family:'Noto Serif Devanagari';-inkscape-font-specification:'Noto Serif Devanagari';text-align:center;text-anchor:middle;opacity:1;stroke-width:0.130759"
       d="m 10.330958,24.749883 q -0.5780078,0 -1.1057548,-0.276438 -0.515182,-0.276439 -0.942405,-0.728794 l 0.06283,-0.238742 q 0.301569,0.150785 0.665966,0.251308 0.376962,0.08796 0.753924,0.08796 0.4272238,0 0.7916198,-0.125654 0.364397,-0.13822 0.62827,-0.389528 v 1.231409 q -0.188481,0.08796 -0.402093,0.13822 -0.201046,0.05026 -0.452354,0.05026 z"
       id="path19517" /><path
       style="font-size:12.5654px;line-height:0.95;font-family:'Noto Serif Devanagari';-inkscape-font-specification:'Noto Serif Devanagari';text-align:center;text-anchor:middle;stroke-width:0.130759"
       d="m 7.0890852,24.222137 -0.515182,-1.017798 q 0.954971,-0.251308 1.470152,-0.540312 0.515182,-0.289004 0.515182,-0.741359 0,-0.3267 -0.226178,-0.502616 -0.213611,-0.175915 -0.565443,-0.175915 -0.351831,0 -0.766489,0.125654 -0.414658,0.125654 -0.829316,0.314135 l -0.540313,-1.055494 q 0.414659,-0.201046 0.829317,-0.289004 0.414658,-0.100523 0.79162,-0.100523 0.46492,0 0.841882,0.188481 0.389527,0.175915 0.741358,0.578008 0.238743,0.276439 0.364397,0.62827 0.138219,0.351831 0.138219,0.678532 0,0.691097 -0.527746,1.130886 -0.527747,0.427223 -1.72146,0.779055 z"
       id="path19519" /><path
       style="font-size:12.5654px;line-height:0.95;font-family:'Noto Serif Devanagari';-inkscape-font-specification:'Noto Serif Devanagari';text-align:center;text-anchor:middle;stroke-width:0.130759"
       d="m 7.6419622,27.16244 q -0.741358,0 -1.344497,-0.402092 -0.590574,-0.402093 -1.030363,-1.080625 -0.427224,-0.678532 -0.728793,-1.482717 l 0.578008,-0.251308 q 0.414658,1.005232 0.95497,1.58324 0.552878,0.565443 1.319367,0.565443 0.477486,0 0.779055,-0.276438 0.314135,-0.289005 0.314135,-0.703663 0,-0.289004 -0.100523,-0.552878 -0.08796,-0.263873 -0.251308,-0.49005 -0.16335,-0.238743 -0.389527,-0.402093 l 0.452354,-0.188481 q 0.439789,0.351831 0.703662,0.691097 0.276439,0.3267 0.389528,0.678532 0.113088,0.339266 0.113088,0.728793 0,0.741359 -0.502616,1.168582 -0.49005,0.414658 -1.25654,0.414658 z"
       id="path19521" /></g><g
     id="g18382"
     inkscape:label="3"
     transform="translate(23.26793,-15.169188)"><path
       style="font-size:12.5654px;line-height:0.95;font-family:'Noto Serif Devanagari';-inkscape-font-specification:'Noto Serif Devanagari';text-align:center;text-anchor:middle;opacity:1;fill:#c8c8c8;fill-opacity:1;stroke-width:0.130759"
       d="M 10.067085,21.256702 9.5393382,20.439951 v -0.150785 h 3.6690968 l 0.540313,0.841882 v 0.125654 z"
       id="path18372" /><path
       style="font-size:12.5654px;line-height:0.95;font-family:'Noto Serif Devanagari';-inkscape-font-specification:'Noto Serif Devanagari';text-align:center;text-anchor:middle;opacity:1;stroke-width:0.130759"
       d="m 12.014722,28.217934 -0.967536,-0.691097 v -6.659662 h 1.105755 v 7.350759 z"
       id="path18374" /><path
       style="font-size:12.5654px;line-height:0.95;font-family:'Noto Serif Devanagari';-inkscape-font-specification:'Noto Serif Devanagari';text-align:center;text-anchor:middle;opacity:1;stroke-width:0.130759"
       d="m 10.330958,24.749883 q -0.5780078,0 -1.1057548,-0.276438 -0.515182,-0.276439 -0.942405,-0.728794 l 0.06283,-0.238742 q 0.301569,0.150785 0.665966,0.251308 0.376962,0.08796 0.753924,0.08796 0.4272238,0 0.7916198,-0.125654 0.364397,-0.13822 0.62827,-0.389528 v 1.231409 q -0.188481,0.08796 -0.402093,0.13822 -0.201046,0.05026 -0.452354,0.05026 z"
       id="path18376" /><path
       style="font-size:12.5654px;line-height:0.95;font-family:'Noto Serif Devanagari';-inkscape-font-specification:'Noto Serif Devanagari';text-align:center;text-anchor:middle;stroke-width:0.130759"
       d="m 7.0890852,24.222137 -0.515182,-1.017798 q 0.954971,-0.251308 1.470152,-0.540312 0.515182,-0.289004 0.515182,-0.741359 0,-0.3267 -0.226178,-0.502616 -0.213611,-0.175915 -0.565443,-0.175915 -0.351831,0 -0.766489,0.125654 -0.414658,0.125654 -0.829316,0.314135 l -0.540313,-1.055494 q 0.414659,-0.201046 0.829317,-0.289004 0.414658,-0.100523 0.79162,-0.100523 0.46492,0 0.841882,0.188481 0.389527,0.175915 0.741358,0.578008 0.238743,0.276439 0.364397,0.62827 0.138219,0.351831 0.138219,0.678532 0,0.691097 -0.527746,1.130886 -0.527747,0.427223 -1.72146,0.779055 z"
       id="path18378" /><path
       style="font-size:12.5654px;line-height:0.95;font-family:'Noto Serif Devanagari';-inkscape-font-specification:'Noto Serif Devanagari';text-align:center;text-anchor:middle;stroke-width:0.130759"
       d="m 7.6419622,27.16244 q -0.741358,0 -1.344497,-0.402092 -0.590574,-0.402093 -1.030363,-1.080625 -0.427224,-0.678532 -0.728793,-1.482717 l 0.578008,-0.251308 q 0.414658,1.005232 0.95497,1.58324 0.552878,0.565443 1.319367,0.565443 0.477486,0 0.779055,-0.276438 0.314135,-0.289005 0.314135,-0.703663 0,-0.289004 -0.100523,-0.552878 -0.08796,-0.263873 -0.251308,-0.49005 -0.16335,-0.238743 -0.389527,-0.402093 l 0.452354,-0.188481 q 0.439789,0.351831 0.703662,0.691097 0.276439,0.3267 0.389528,0.678532 0.113088,0.339266 0.113088,0.728793 0,0.741359 -0.502616,1.168582 -0.49005,0.414658 -1.25654,0.414658 z"
       id="path18380" /></g><g
     id="g18338"
     inkscape:label="2"
     transform="translate(11.36168,-15.169188)"><path
       style="font-size:12.5654px;line-height:0.95;font-family:'Noto Serif Devanagari';-inkscape-font-specification:'Noto Serif Devanagari';text-align:center;text-anchor:middle;opacity:1;fill:#c8c8c8;fill-opacity:1;stroke-width:0.130759"
       d="M 10.067085,21.256702 9.5393382,20.439951 v -0.150785 h 3.6690968 l 0.540313,0.841882 v 0.125654 z"
       id="path18328" /><path
       style="font-size:12.5654px;line-height:0.95;font-family:'Noto Serif Devanagari';-inkscape-font-specification:'Noto Serif Devanagari';text-align:center;text-anchor:middle;opacity:1;fill:#c8c8c8;fill-opacity:1;stroke-width:0.130759"
       d="m 12.014722,28.217934 -0.967536,-0.691097 v -6.659662 h 1.105755 v 7.350759 z"
       id="path18330" /><path
       style="font-size:12.5654px;line-height:0.95;font-family:'Noto Serif Devanagari';-inkscape-font-specification:'Noto Serif Devanagari';text-align:center;text-anchor:middle;opacity:1;stroke-width:0.130759"
       d="m 10.330958,24.749883 q -0.5780078,0 -1.1057548,-0.276438 -0.515182,-0.276439 -0.942405,-0.728794 l 0.06283,-0.238742 q 0.301569,0.150785 0.665966,0.251308 0.376962,0.08796 0.753924,0.08796 0.4272238,0 0.7916198,-0.125654 0.364397,-0.13822 0.62827,-0.389528 v 1.231409 q -0.188481,0.08796 -0.402093,0.13822 -0.201046,0.05026 -0.452354,0.05026 z"
       id="path18332" /><path
       style="font-size:12.5654px;line-height:0.95;font-family:'Noto Serif Devanagari';-inkscape-font-specification:'Noto Serif Devanagari';text-align:center;text-anchor:middle;stroke-width:0.130759"
       d="m 7.0890852,24.222137 -0.515182,-1.017798 q 0.954971,-0.251308 1.470152,-0.540312 0.515182,-0.289004 0.515182,-0.741359 0,-0.3267 -0.226178,-0.502616 -0.213611,-0.175915 -0.565443,-0.175915 -0.351831,0 -0.766489,0.125654 -0.414658,0.125654 -0.829316,0.314135 l -0.540313,-1.055494 q 0.414659,-0.201046 0.829317,-0.289004 0.414658,-0.100523 0.79162,-0.100523 0.46492,0 0.841882,0.188481 0.389527,0.175915 0.741358,0.578008 0.238743,0.276439 0.364397,0.62827 0.138219,0.351831 0.138219,0.678532 0,0.691097 -0.527746,1.130886 -0.527747,0.427223 -1.72146,0.779055 z"
       id="path18334" /><path
       style="font-size:12.5654px;line-height:0.95;font-family:'Noto Serif Devanagari';-inkscape-font-specification:'Noto Serif Devanagari';text-align:center;text-anchor:middle;stroke-width:0.130759"
       d="m 7.6419622,27.16244 q -0.741358,0 -1.344497,-0.402092 -0.590574,-0.402093 -1.030363,-1.080625 -0.427224,-0.678532 -0.728793,-1.482717 l 0.578008,-0.251308 q 0.414658,1.005232 0.95497,1.58324 0.552878,0.565443 1.319367,0.565443 0.477486,0 0.779055,-0.276438 0.314135,-0.289005 0.314135,-0.703663 0,-0.289004 -0.100523,-0.552878 -0.08796,-0.263873 -0.251308,-0.49005 -0.16335,-0.238743 -0.389527,-0.402093 l 0.452354,-0.188481 q 0.439789,0.351831 0.703662,0.691097 0.276439,0.3267 0.389528,0.678532 0.113088,0.339266 0.113088,0.728793 0,0.741359 -0.502616,1.168582 -0.49005,0.414658 -1.25654,0.414658 z"
       id="path18336" /></g><g
     id="g18324"
     inkscape:label="1"
     transform="translate(-0.54457026,-15.169188)"><path
       style="font-size:12.5654px;line-height:0.95;font-family:'Noto Serif Devanagari';-inkscape-font-specification:'Noto Serif Devanagari';text-align:center;text-anchor:middle;opacity:1;fill:#c8c8c8;fill-opacity:1;stroke-width:0.130759"
       d="M 10.067085,21.256702 9.5393382,20.439951 v -0.150785 h 3.6690968 l 0.540313,0.841882 v 0.125654 z"
       id="path17380" /><path
       style="font-size:12.5654px;line-height:0.95;font-family:'Noto Serif Devanagari';-inkscape-font-specification:'Noto Serif Devanagari';text-align:center;text-anchor:middle;opacity:1;fill:#c8c8c8;fill-opacity:1;stroke-width:0.130759"
       d="m 12.014722,28.217934 -0.967536,-0.691097 v -6.659662 h 1.105755 v 7.350759 z"
       id="path17378" /><path
       style="font-size:12.5654px;line-height:0.95;font-family:'Noto Serif Devanagari';-inkscape-font-specification:'Noto Serif Devanagari';text-align:center;text-anchor:middle;opacity:1;fill:#c8c8c8;fill-opacity:1;stroke-width:0.130759"
       d="m 10.330958,24.749883 q -0.5780078,0 -1.1057548,-0.276438 -0.515182,-0.276439 -0.942405,-0.728794 l 0.06283,-0.238742 q 0.301569,0.150785 0.665966,0.251308 0.376962,0.08796 0.753924,0.08796 0.4272238,0 0.7916198,-0.125654 0.364397,-0.13822 0.62827,-0.389528 v 1.231409 q -0.188481,0.08796 -0.402093,0.13822 -0.201046,0.05026 -0.452354,0.05026 z"
       id="path17376" /><path
       style="font-size:12.5654px;line-height:0.95;font-family:'Noto Serif Devanagari';-inkscape-font-specification:'Noto Serif Devanagari';text-align:center;text-anchor:middle;stroke-width:0.130759"
       d="m 7.0890852,24.222137 -0.515182,-1.017798 q 0.954971,-0.251308 1.470152,-0.540312 0.515182,-0.289004 0.515182,-0.741359 0,-0.3267 -0.226178,-0.502616 -0.213611,-0.175915 -0.565443,-0.175915 -0.351831,0 -0.766489,0.125654 -0.414658,0.125654 -0.829316,0.314135 l -0.540313,-1.055494 q 0.414659,-0.201046 0.829317,-0.289004 0.414658,-0.100523 0.79162,-0.100523 0.46492,0 0.841882,0.188481 0.389527,0.175915 0.741358,0.578008 0.238743,0.276439 0.364397,0.62827 0.138219,0.351831 0.138219,0.678532 0,0.691097 -0.527746,1.130886 -0.527747,0.427223 -1.72146,0.779055 z"
       id="path17374" /><path
       style="font-size:12.5654px;line-height:0.95;font-family:'Noto Serif Devanagari';-inkscape-font-specification:'Noto Serif Devanagari';text-align:center;text-anchor:middle;stroke-width:0.130759"
       d="m 7.6419622,27.16244 q -0.741358,0 -1.344497,-0.402092 -0.590574,-0.402093 -1.030363,-1.080625 -0.427224,-0.678532 -0.728793,-1.482717 l 0.578008,-0.251308 q 0.414658,1.005232 0.95497,1.58324 0.552878,0.565443 1.319367,0.565443 0.477486,0 0.779055,-0.276438 0.314135,-0.289005 0.314135,-0.703663 0,-0.289004 -0.100523,-0.552878 -0.08796,-0.263873 -0.251308,-0.49005 -0.16335,-0.238743 -0.389527,-0.402093 l 0.452354,-0.188481 q 0.439789,0.351831 0.703662,0.691097 0.276439,0.3267 0.389528,0.678532 0.113088,0.339266 0.113088,0.728793 0,0.741359 -0.502616,1.168582 -0.49005,0.414658 -1.25654,0.414658 z"
       id="path392" /></g><g
     id="g18308"
     inkscape:label="Arrows"
     transform="translate(-0.54457027,-15.169188)"
     style="opacity:0.8;stroke:#ff0c0c;stroke-opacity:1"><g
       id="path12424"
       style="opacity:0.8"><path
         style="color:#000000;fill:#ff0000;stroke:none;-inkscape-stroke:none"
         d="M 6.6992187,19.626953 C 6.4217087,19.664533 6.1779993,19.726553 6,19.78125 c -0.089,0.02735 -0.1624418,0.05307 -0.2148438,0.07227 -0.052402,0.01919 -0.089899,0.03585 -0.087891,0.03516 l 0.041016,0.123047 c 0.016936,-0.0058 0.041154,-0.01661 0.091797,-0.03516 0.050643,-0.01855 0.1225652,-0.0418 0.2089844,-0.06836 0.1728383,-0.05311 0.4093682,-0.114049 0.6777344,-0.150391 0.5367324,-0.07268 1.195554,-0.04648 1.734375,0.328125 l 0.076172,-0.107421 C 7.9499219,19.577078 7.2542388,19.551794 6.6992187,19.626953 Z"
         id="path15166" /><g
         id="g15156"><g
           id="path15158"><path
             style="color:#000000;fill:#ff0000;fill-rule:evenodd;stroke:none;stroke-width:0.0655pt;-inkscape-stroke:none"
             d="m 8.7996099,20.247444 -0.6521437,-0.05452 0.3738922,-0.5378 z"
             id="path15162" /><path
             style="color:#000000;fill:#ff0000;fill-rule:evenodd;stroke:none;-inkscape-stroke:none"
             d="m 8.5292969,19.568359 -0.4609375,0.66211 0.8027344,0.06641 -0.03125,-0.06836 z m -0.015625,0.173828 0.2128906,0.455079 -0.4980469,-0.04297 z"
             id="path15164" /></g></g></g><g
       id="path12426"
       style="opacity:0.8"><path
         style="color:#000000;fill:#ff0000;stroke:none;-inkscape-stroke:none"
         d="m 9.1269531,23.666016 -0.099609,0.08594 c 0,0 0.8673069,1.030167 0.7480468,1.992188 l 0.1308594,0.01563 c 0.129965,-1.048376 -0.7792969,-2.09375 -0.7792969,-2.09375 z"
         id="path15180" /><g
         id="g15170"><g
           id="path15172"><path
             style="color:#000000;fill:#ff0000;fill-rule:evenodd;stroke:none;stroke-width:0.0655pt;-inkscape-stroke:none"
             d="M 9.7943241,26.127018 9.5390157,25.524456 10.18904,25.605038 Z"
             id="path15176" /><path
             style="color:#000000;fill:#ff0000;fill-rule:evenodd;stroke:none;-inkscape-stroke:none"
             d="m 9.46875,25.472656 0.3144531,0.740235 0.046875,-0.05859 0.4394529,-0.583985 z m 0.140625,0.105469 0.498047,0.06055 -0.3027345,0.402344 z"
             id="path15178" /></g></g></g><g
       id="path7279"
       style="opacity:0.8"
       transform="translate(0.54457027,15.169188)"><path
         style="color:#000000;fill:#ff0000;stroke:none;-inkscape-stroke:none"
         d="M 35.929687,6.2539062 V 8.5019531 H 36.0625 V 6.2539062 Z"
         id="path15194" /><g
         id="g15184"><g
           id="path15186"><path
             style="color:#000000;fill:#ff0000;fill-rule:evenodd;stroke:none;stroke-width:0.0655pt;-inkscape-stroke:none"
             d="m 35.996099,8.8805516 -0.3275,-0.566575 h 0.655 z"
             id="path15190" /><path
             style="color:#000000;fill:#ff0000;fill-rule:evenodd;stroke:none;-inkscape-stroke:none"
             d="m 35.59375,8.2695313 0.402344,0.6992187 0.03711,-0.066406 0.365234,-0.6328125 z m 0.150391,0.087891 h 0.503906 l -0.251953,0.4375 z"
             id="path15192" /></g></g></g><g
       id="path2856"
       style="opacity:0.8"
       transform="translate(0.54457027,15.169188)"><path
         style="color:#000000;fill:#ff0000;stroke:none;-inkscape-stroke:none"
         d="M 44.712891,4.3886719 V 4.5214844 H 47.90625 V 4.3886719 Z"
         id="path15208" /><g
         id="g15198"><g
           id="path15200"><path
             style="color:#000000;fill:#ff0000;fill-rule:evenodd;stroke:none;stroke-width:0.0655pt;-inkscape-stroke:none"
             d="m 48.283653,4.4550489 -0.566575,0.3275 v -0.655 z"
             id="path15204" /><path
             style="color:#000000;fill:#ff0000;fill-rule:evenodd;stroke:none;-inkscape-stroke:none"
             d="m 47.673828,4.0527344 v 0.8046875 l 0.697266,-0.4023438 -0.06641,-0.037109 z m 0.08789,0.1523437 0.435547,0.25 -0.435547,0.25 z"
             id="path15206" /></g></g></g><g
       id="path12929"
       style="opacity:0.8"
       transform="translate(0.54457027,15.169188)"><path
         style="color:#000000;fill:#ff0000;stroke:none;-inkscape-stroke:none"
         d="M 22.130859,7.890625 C 21.474931,8.333179 20.587891,8.1210938 20.587891,8.1210938 L 20.556641,8.25 c 0,0 0.929888,0.2334869 1.646484,-0.25 z"
         id="path15222" /><g
         id="g15212"><g
           id="path15214"><path
             style="color:#000000;fill:#ff0000;fill-rule:evenodd;stroke:none;stroke-width:0.0655pt;-inkscape-stroke:none"
             d="m 22.480417,7.7343885 -0.2865,0.588372 -0.366342,-0.5429716 z"
             id="path15218" /><path
             style="color:#000000;fill:#ff0000;fill-rule:evenodd;stroke:none;-inkscape-stroke:none"
             d="m 22.552734,7.6855469 -0.07617,0.00586 L 21.75,7.7421875 22.199219,8.4101563 Z M 22.408203,7.7832031 22.1875,8.234375 21.90625,7.8183594 Z"
             id="path15220" /></g></g></g></g><g
     id="g13078"
     inkscape:label="Start markers"
     style="opacity:0.8;stroke:#ff0c0c;stroke-opacity:1"><circle
       r="0.67124546"
       clip-path="none"
       cy="5.960423"
       cx="5.4343061"
       id="circle10879"
       style="opacity:0.6;fill:#00ff00;fill-opacity:1;stroke:none;stroke-width:0.268498;stroke-linecap:round;stroke-linejoin:miter;stroke-miterlimit:4;stroke-dasharray:none;stroke-dashoffset:0;stroke-opacity:1" /><circle
       r="0.67124546"
       clip-path="none"
       cy="8.8684893"
       cx="20.243061"
       id="circle13029"
       style="opacity:0.6;fill:#00ff00;fill-opacity:1;stroke:none;stroke-width:0.268498;stroke-linecap:round;stroke-linejoin:miter;stroke-miterlimit:4;stroke-dasharray:none;stroke-dashoffset:0;stroke-opacity:1" /><circle
       r="0.67124546"
       clip-path="none"
       cy="5.7348304"
       cx="34.867992"
       id="circle13043"
       style="opacity:0.6;fill:#00ff00;fill-opacity:1;stroke:none;stroke-width:0.268498;stroke-linecap:round;stroke-linejoin:miter;stroke-miterlimit:4;stroke-dasharray:none;stroke-dashoffset:0;stroke-opacity:1" /><circle
       r="0.67124546"
       clip-path="none"
       cy="5.6521482"
       cx="44.971767"
       id="circle13057"
       style="opacity:0.6;fill:#00ff00;fill-opacity:1;stroke:none;stroke-width:0.268498;stroke-linecap:round;stroke-linejoin:miter;stroke-miterlimit:4;stroke-dasharray:none;stroke-dashoffset:0;stroke-opacity:1" /></g></svg>
