<?xml version="1.0" encoding="UTF-8" standalone="no"?>
<!-- Created with Inkscape (http://www.inkscape.org/) -->

<svg
   width="350"
   height="65"
   viewBox="0 0 92.604162 17.197916"
   version="1.1"
   id="svg5"
   sodipodi:docname="Devanagari_ओ_stroke_order.svg"
   inkscape:version="1.2.1 (9c6d41e410, 2022-07-14)"
   xml:space="preserve"
   xmlns:inkscape="http://www.inkscape.org/namespaces/inkscape"
   xmlns:sodipodi="http://sodipodi.sourceforge.net/DTD/sodipodi-0.dtd"
   xmlns="http://www.w3.org/2000/svg"
   xmlns:svg="http://www.w3.org/2000/svg"><sodipodi:namedview
     id="namedview7"
     pagecolor="#505050"
     bordercolor="#eeeeee"
     borderopacity="1"
     inkscape:showpageshadow="0"
     inkscape:pageopacity="0"
     inkscape:pagecheckerboard="0"
     inkscape:deskcolor="#505050"
     inkscape:document-units="mm"
     showgrid="false"
     inkscape:zoom="5.6568542"
     inkscape:cx="189.41623"
     inkscape:cy="36.150835"
     inkscape:window-width="1920"
     inkscape:window-height="991"
     inkscape:window-x="-9"
     inkscape:window-y="-9"
     inkscape:window-maximized="1"
     inkscape:current-layer="g18308"
     showguides="true"
     inkscape:lockguides="true" /><defs
     id="defs2" /><g
     id="g630"
     inkscape:label="6"
     transform="translate(71.961805,-13.684868)"><path
       style="font-size:12.5654px;line-height:0.95;font-family:'Noto Serif Devanagari';-inkscape-font-specification:'Noto Serif Devanagari';text-align:center;text-anchor:middle;stroke-width:0.130759"
       d="M 8.607298,2.1254313 8.05442,1.2961149 V 1.1578955 h 3.76962 l 0.540313,0.8418818 v 0.125654 z"
       transform="translate(4.5383092,19.13127)"
       id="path614" /><path
       style="font-size:12.5654px;line-height:0.95;font-family:'Noto Serif Devanagari';-inkscape-font-specification:'Noto Serif Devanagari';text-align:center;text-anchor:middle;stroke-width:0.130759"
       d="M 10.642893,9.086663 9.662792,8.395566 V 1.7359039 h 1.11832 V 9.086663 Z"
       transform="translate(4.5383092,19.13127)"
       id="path616" /><path
       style="font-size:12.5654px;line-height:0.95;font-family:'Noto Serif Devanagari';-inkscape-font-specification:'Noto Serif Devanagari';text-align:center;text-anchor:middle;stroke-width:0.130759"
       d="M 5.528775,2.1254313 5.001028,1.3086803 V 1.1578955 h 3.669097 l 0.540312,0.8418818 v 0.125654 z"
       transform="translate(4.5383092,19.13127)"
       id="path618" /><path
       style="font-size:12.5654px;line-height:0.95;font-family:'Noto Serif Devanagari';-inkscape-font-specification:'Noto Serif Devanagari';text-align:center;text-anchor:middle;stroke-width:0.130759"
       d="M 7.476412,9.086663 6.508876,8.395566 V 1.7359039 H 7.614631 V 9.086663 Z"
       transform="translate(4.5383092,19.13127)"
       id="path620" /><path
       style="font-size:12.5654px;line-height:0.95;font-family:'Noto Serif Devanagari';-inkscape-font-specification:'Noto Serif Devanagari';text-align:center;text-anchor:middle;stroke-width:0.130759"
       d="m 5.792648,5.6186126 q -0.578008,0 -1.105755,-0.2764388 Q 4.171712,5.065735 3.744488,4.6133805 l 0.06283,-0.2387426 q 0.30157,0.1507848 0.665966,0.251308 0.376962,0.087958 0.753924,0.087958 0.427224,0 0.791621,-0.125654 0.364396,-0.1382194 0.62827,-0.3895274 V 5.4301316 Q 6.458618,5.5180896 6.245006,5.568351 6.043959,5.618613 5.792651,5.618613 Z"
       transform="translate(4.5383092,19.13127)"
       id="path622" /><path
       style="font-size:12.5654px;line-height:0.95;font-family:'Noto Serif Devanagari';-inkscape-font-specification:'Noto Serif Devanagari';text-align:center;text-anchor:middle;stroke-width:0.130759"
       d="M 2.550775,5.0908658 2.035594,4.0730683 q 0.95497,-0.251308 1.470152,-0.5403122 0.515181,-0.2890042 0.515181,-0.7413586 0,-0.3267004 -0.226177,-0.502616 -0.213612,-0.1759156 -0.565443,-0.1759156 -0.351831,0 -0.76649,0.125654 -0.414658,0.125654 -0.829316,0.314135 L 1.093189,1.4971613 Q 1.507847,1.2961149 1.922505,1.2081571 2.337163,1.1076339 2.714125,1.1076339 q 0.46492,0 0.841882,0.188481 0.389528,0.1759156 0.741359,0.5780084 0.238742,0.2764388 0.364396,0.62827 0.13822,0.3518312 0.13822,0.6785316 0,0.691097 -0.527747,1.130886 -0.527747,0.4272236 -1.72146,0.7790549 z"
       transform="translate(4.5383092,19.13127)"
       id="path624" /><path
       style="font-size:12.5654px;line-height:0.95;font-family:'Noto Serif Devanagari';-inkscape-font-specification:'Noto Serif Devanagari';text-align:center;text-anchor:middle;stroke-width:0.130759"
       d="m 3.103653,8.031169 q -0.741359,0 -1.344498,-0.402092 Q 1.168581,7.226984 0.72879198,6.5484522 0.30156898,5.8699206 -1.02e-6,5.065735 l 0.578008,-0.2513081 Q 0.99266598,5.819659 1.532978,6.3976674 2.085855,6.96311 2.852345,6.96311 3.32983,6.96311 3.6314,6.686672 3.945535,6.3976674 3.945535,5.9830092 3.945535,5.694005 3.845011,5.4301316 3.757051,5.1662582 3.593703,4.940081 3.430353,4.7013383 3.204176,4.5379881 L 3.65653,4.3495071 q 0.439789,0.3518312 0.703663,0.6910971 0.276439,0.3267004 0.389527,0.6785316 0.113089,0.3392658 0.113089,0.7287932 0,0.741359 -0.502616,1.168582 -0.490051,0.414658 -1.25654,0.414658 z"
       transform="translate(4.5383092,19.13127)"
       id="path626" /><path
       style="font-size:12.5654px;line-height:0.95;font-family:'Noto Serif Devanagari';-inkscape-font-specification:'Noto Serif Devanagari';text-align:center;text-anchor:middle;stroke-width:0.130759"
       d="M 10.052319,1.2709841 Q 9.838707,0.7809335 9.61253,0.42910233 9.398918,0.06470573 9.197872,-0.18660227 8.846041,-0.63895667 8.51934,-0.80230687 q -0.314135,-0.1759156 -0.753924,-0.1759156 -0.213612,0 -0.49005,0.062827 -0.263874,0.062827 -0.490051,0.1759156 L 6.157045,-1.9708891 q 0.226177,-0.075392 0.502616,-0.1382194 0.276439,-0.062827 0.62827,-0.062827 0.477485,0 0.904709,0.1759156 0.427223,0.1633502 0.841882,0.565443 0.414658,0.3895274 0.816751,1.05549363 0.414658,0.6659662 0.854447,1.64606737 z"
       transform="translate(4.5383092,19.13127)"
       id="path628" /></g><g
     id="g612"
     inkscape:label="5"
     transform="translate(57.409722,-13.684868)"><path
       style="font-size:12.5654px;line-height:0.95;font-family:'Noto Serif Devanagari';-inkscape-font-specification:'Noto Serif Devanagari';text-align:center;text-anchor:middle;fill:#c9c9c9;fill-opacity:1;stroke-width:0.130759"
       d="M 8.607298,2.1254313 8.05442,1.2961149 V 1.1578955 h 3.76962 l 0.540313,0.8418818 v 0.125654 z"
       transform="translate(4.5383092,19.13127)"
       id="path596" /><path
       style="font-size:12.5654px;line-height:0.95;font-family:'Noto Serif Devanagari';-inkscape-font-specification:'Noto Serif Devanagari';text-align:center;text-anchor:middle;stroke-width:0.130759"
       d="M 10.642893,9.086663 9.662792,8.395566 V 1.7359039 h 1.11832 V 9.086663 Z"
       transform="translate(4.5383092,19.13127)"
       id="path598" /><path
       style="font-size:12.5654px;line-height:0.95;font-family:'Noto Serif Devanagari';-inkscape-font-specification:'Noto Serif Devanagari';text-align:center;text-anchor:middle;fill:#c9c9c9;fill-opacity:1;stroke-width:0.130759"
       d="M 5.528775,2.1254313 5.001028,1.3086803 V 1.1578955 h 3.669097 l 0.540312,0.8418818 v 0.125654 z"
       transform="translate(4.5383092,19.13127)"
       id="path600" /><path
       style="font-size:12.5654px;line-height:0.95;font-family:'Noto Serif Devanagari';-inkscape-font-specification:'Noto Serif Devanagari';text-align:center;text-anchor:middle;stroke-width:0.130759"
       d="M 7.476412,9.086663 6.508876,8.395566 V 1.7359039 H 7.614631 V 9.086663 Z"
       transform="translate(4.5383092,19.13127)"
       id="path602" /><path
       style="font-size:12.5654px;line-height:0.95;font-family:'Noto Serif Devanagari';-inkscape-font-specification:'Noto Serif Devanagari';text-align:center;text-anchor:middle;stroke-width:0.130759"
       d="m 5.792648,5.6186126 q -0.578008,0 -1.105755,-0.2764388 Q 4.171712,5.065735 3.744488,4.6133805 l 0.06283,-0.2387426 q 0.30157,0.1507848 0.665966,0.251308 0.376962,0.087958 0.753924,0.087958 0.427224,0 0.791621,-0.125654 0.364396,-0.1382194 0.62827,-0.3895274 V 5.4301316 Q 6.458618,5.5180896 6.245006,5.568351 6.043959,5.618613 5.792651,5.618613 Z"
       transform="translate(4.5383092,19.13127)"
       id="path604" /><path
       style="font-size:12.5654px;line-height:0.95;font-family:'Noto Serif Devanagari';-inkscape-font-specification:'Noto Serif Devanagari';text-align:center;text-anchor:middle;stroke-width:0.130759"
       d="M 2.550775,5.0908658 2.035594,4.0730683 q 0.95497,-0.251308 1.470152,-0.5403122 0.515181,-0.2890042 0.515181,-0.7413586 0,-0.3267004 -0.226177,-0.502616 -0.213612,-0.1759156 -0.565443,-0.1759156 -0.351831,0 -0.76649,0.125654 -0.414658,0.125654 -0.829316,0.314135 L 1.093189,1.4971613 Q 1.507847,1.2961149 1.922505,1.2081571 2.337163,1.1076339 2.714125,1.1076339 q 0.46492,0 0.841882,0.188481 0.389528,0.1759156 0.741359,0.5780084 0.238742,0.2764388 0.364396,0.62827 0.13822,0.3518312 0.13822,0.6785316 0,0.691097 -0.527747,1.130886 -0.527747,0.4272236 -1.72146,0.7790549 z"
       transform="translate(4.5383092,19.13127)"
       id="path606" /><path
       style="font-size:12.5654px;line-height:0.95;font-family:'Noto Serif Devanagari';-inkscape-font-specification:'Noto Serif Devanagari';text-align:center;text-anchor:middle;stroke-width:0.130759"
       d="m 3.103653,8.031169 q -0.741359,0 -1.344498,-0.402092 Q 1.168581,7.226984 0.72879198,6.5484522 0.30156898,5.8699206 -1.02e-6,5.065735 l 0.578008,-0.2513081 Q 0.99266598,5.819659 1.532978,6.3976674 2.085855,6.96311 2.852345,6.96311 3.32983,6.96311 3.6314,6.686672 3.945535,6.3976674 3.945535,5.9830092 3.945535,5.694005 3.845011,5.4301316 3.757051,5.1662582 3.593703,4.940081 3.430353,4.7013383 3.204176,4.5379881 L 3.65653,4.3495071 q 0.439789,0.3518312 0.703663,0.6910971 0.276439,0.3267004 0.389527,0.6785316 0.113089,0.3392658 0.113089,0.7287932 0,0.741359 -0.502616,1.168582 -0.490051,0.414658 -1.25654,0.414658 z"
       transform="translate(4.5383092,19.13127)"
       id="path608" /><path
       style="font-size:12.5654px;line-height:0.95;font-family:'Noto Serif Devanagari';-inkscape-font-specification:'Noto Serif Devanagari';text-align:center;text-anchor:middle;stroke-width:0.130759"
       d="M 10.052319,1.2709841 Q 9.838707,0.7809335 9.61253,0.42910233 9.398918,0.06470573 9.197872,-0.18660227 8.846041,-0.63895667 8.51934,-0.80230687 q -0.314135,-0.1759156 -0.753924,-0.1759156 -0.213612,0 -0.49005,0.062827 -0.263874,0.062827 -0.490051,0.1759156 L 6.157045,-1.9708891 q 0.226177,-0.075392 0.502616,-0.1382194 0.276439,-0.062827 0.62827,-0.062827 0.477485,0 0.904709,0.1759156 0.427223,0.1633502 0.841882,0.565443 0.414658,0.3895274 0.816751,1.05549363 0.414658,0.6659662 0.854447,1.64606737 z"
       transform="translate(4.5383092,19.13127)"
       id="path610" /></g><g
     id="g594"
     inkscape:label="4"
     transform="translate(42.857641,-13.684868)"><path
       style="font-size:12.5654px;line-height:0.95;font-family:'Noto Serif Devanagari';-inkscape-font-specification:'Noto Serif Devanagari';text-align:center;text-anchor:middle;fill:#c9c9c9;fill-opacity:1;stroke-width:0.130759"
       d="M 8.607298,2.1254313 8.05442,1.2961149 V 1.1578955 h 3.76962 l 0.540313,0.8418818 v 0.125654 z"
       transform="translate(4.5383092,19.13127)"
       id="path578" /><path
       style="font-size:12.5654px;line-height:0.95;font-family:'Noto Serif Devanagari';-inkscape-font-specification:'Noto Serif Devanagari';text-align:center;text-anchor:middle;stroke-width:0.130759"
       d="M 10.642893,9.086663 9.662792,8.395566 V 1.7359039 h 1.11832 V 9.086663 Z"
       transform="translate(4.5383092,19.13127)"
       id="path580" /><path
       style="font-size:12.5654px;line-height:0.95;font-family:'Noto Serif Devanagari';-inkscape-font-specification:'Noto Serif Devanagari';text-align:center;text-anchor:middle;fill:#c9c9c9;fill-opacity:1;stroke-width:0.130759"
       d="M 5.528775,2.1254313 5.001028,1.3086803 V 1.1578955 h 3.669097 l 0.540312,0.8418818 v 0.125654 z"
       transform="translate(4.5383092,19.13127)"
       id="path582" /><path
       style="font-size:12.5654px;line-height:0.95;font-family:'Noto Serif Devanagari';-inkscape-font-specification:'Noto Serif Devanagari';text-align:center;text-anchor:middle;stroke-width:0.130759"
       d="M 7.476412,9.086663 6.508876,8.395566 V 1.7359039 H 7.614631 V 9.086663 Z"
       transform="translate(4.5383092,19.13127)"
       id="path584" /><path
       style="font-size:12.5654px;line-height:0.95;font-family:'Noto Serif Devanagari';-inkscape-font-specification:'Noto Serif Devanagari';text-align:center;text-anchor:middle;stroke-width:0.130759"
       d="m 5.792648,5.6186126 q -0.578008,0 -1.105755,-0.2764388 Q 4.171712,5.065735 3.744488,4.6133805 l 0.06283,-0.2387426 q 0.30157,0.1507848 0.665966,0.251308 0.376962,0.087958 0.753924,0.087958 0.427224,0 0.791621,-0.125654 0.364396,-0.1382194 0.62827,-0.3895274 V 5.4301316 Q 6.458618,5.5180896 6.245006,5.568351 6.043959,5.618613 5.792651,5.618613 Z"
       transform="translate(4.5383092,19.13127)"
       id="path586" /><path
       style="font-size:12.5654px;line-height:0.95;font-family:'Noto Serif Devanagari';-inkscape-font-specification:'Noto Serif Devanagari';text-align:center;text-anchor:middle;stroke-width:0.130759"
       d="M 2.550775,5.0908658 2.035594,4.0730683 q 0.95497,-0.251308 1.470152,-0.5403122 0.515181,-0.2890042 0.515181,-0.7413586 0,-0.3267004 -0.226177,-0.502616 -0.213612,-0.1759156 -0.565443,-0.1759156 -0.351831,0 -0.76649,0.125654 -0.414658,0.125654 -0.829316,0.314135 L 1.093189,1.4971613 Q 1.507847,1.2961149 1.922505,1.2081571 2.337163,1.1076339 2.714125,1.1076339 q 0.46492,0 0.841882,0.188481 0.389528,0.1759156 0.741359,0.5780084 0.238742,0.2764388 0.364396,0.62827 0.13822,0.3518312 0.13822,0.6785316 0,0.691097 -0.527747,1.130886 -0.527747,0.4272236 -1.72146,0.7790549 z"
       transform="translate(4.5383092,19.13127)"
       id="path588" /><path
       style="font-size:12.5654px;line-height:0.95;font-family:'Noto Serif Devanagari';-inkscape-font-specification:'Noto Serif Devanagari';text-align:center;text-anchor:middle;stroke-width:0.130759"
       d="m 3.103653,8.031169 q -0.741359,0 -1.344498,-0.402092 Q 1.168581,7.226984 0.72879198,6.5484522 0.30156898,5.8699206 -1.02e-6,5.065735 l 0.578008,-0.2513081 Q 0.99266598,5.819659 1.532978,6.3976674 2.085855,6.96311 2.852345,6.96311 3.32983,6.96311 3.6314,6.686672 3.945535,6.3976674 3.945535,5.9830092 3.945535,5.694005 3.845011,5.4301316 3.757051,5.1662582 3.593703,4.940081 3.430353,4.7013383 3.204176,4.5379881 L 3.65653,4.3495071 q 0.439789,0.3518312 0.703663,0.6910971 0.276439,0.3267004 0.389527,0.6785316 0.113089,0.3392658 0.113089,0.7287932 0,0.741359 -0.502616,1.168582 -0.490051,0.414658 -1.25654,0.414658 z"
       transform="translate(4.5383092,19.13127)"
       id="path590" /><path
       style="font-size:12.5654px;line-height:0.95;font-family:'Noto Serif Devanagari';-inkscape-font-specification:'Noto Serif Devanagari';text-align:center;text-anchor:middle;fill:#c9c9c9;fill-opacity:1;stroke-width:0.130759"
       d="M 10.052319,1.2709841 Q 9.838707,0.7809335 9.61253,0.42910233 9.398918,0.06470573 9.197872,-0.18660227 8.846041,-0.63895667 8.51934,-0.80230687 q -0.314135,-0.1759156 -0.753924,-0.1759156 -0.213612,0 -0.49005,0.062827 -0.263874,0.062827 -0.490051,0.1759156 L 6.157045,-1.9708891 q 0.226177,-0.075392 0.502616,-0.1382194 0.276439,-0.062827 0.62827,-0.062827 0.477485,0 0.904709,0.1759156 0.427223,0.1633502 0.841882,0.565443 0.414658,0.3895274 0.816751,1.05549363 0.414658,0.6659662 0.854447,1.64606737 z"
       transform="translate(4.5383092,19.13127)"
       id="path592" /></g><g
     id="g576"
     inkscape:label="3"
     transform="translate(28.305557,-13.684868)"><path
       style="font-size:12.5654px;line-height:0.95;font-family:'Noto Serif Devanagari';-inkscape-font-specification:'Noto Serif Devanagari';text-align:center;text-anchor:middle;fill:#c9c9c9;fill-opacity:1;stroke-width:0.130759"
       d="M 8.607298,2.1254313 8.05442,1.2961149 V 1.1578955 h 3.76962 l 0.540313,0.8418818 v 0.125654 z"
       transform="translate(4.5383092,19.13127)"
       id="path560" /><path
       style="font-size:12.5654px;line-height:0.95;font-family:'Noto Serif Devanagari';-inkscape-font-specification:'Noto Serif Devanagari';text-align:center;text-anchor:middle;fill:#c9c9c9;fill-opacity:1;stroke-width:0.130759"
       d="M 10.642893,9.086663 9.662792,8.395566 V 1.7359039 h 1.11832 V 9.086663 Z"
       transform="translate(4.5383092,19.13127)"
       id="path562" /><path
       style="font-size:12.5654px;line-height:0.95;font-family:'Noto Serif Devanagari';-inkscape-font-specification:'Noto Serif Devanagari';text-align:center;text-anchor:middle;fill:#c9c9c9;fill-opacity:1;stroke-width:0.130759"
       d="M 5.528775,2.1254313 5.001028,1.3086803 V 1.1578955 h 3.669097 l 0.540312,0.8418818 v 0.125654 z"
       transform="translate(4.5383092,19.13127)"
       id="path564" /><path
       style="font-size:12.5654px;line-height:0.95;font-family:'Noto Serif Devanagari';-inkscape-font-specification:'Noto Serif Devanagari';text-align:center;text-anchor:middle;stroke-width:0.130759"
       d="M 7.476412,9.086663 6.508876,8.395566 V 1.7359039 H 7.614631 V 9.086663 Z"
       transform="translate(4.5383092,19.13127)"
       id="path566" /><path
       style="font-size:12.5654px;line-height:0.95;font-family:'Noto Serif Devanagari';-inkscape-font-specification:'Noto Serif Devanagari';text-align:center;text-anchor:middle;stroke-width:0.130759"
       d="m 5.792648,5.6186126 q -0.578008,0 -1.105755,-0.2764388 Q 4.171712,5.065735 3.744488,4.6133805 l 0.06283,-0.2387426 q 0.30157,0.1507848 0.665966,0.251308 0.376962,0.087958 0.753924,0.087958 0.427224,0 0.791621,-0.125654 0.364396,-0.1382194 0.62827,-0.3895274 V 5.4301316 Q 6.458618,5.5180896 6.245006,5.568351 6.043959,5.618613 5.792651,5.618613 Z"
       transform="translate(4.5383092,19.13127)"
       id="path568"
       inkscape:label="3" /><path
       style="font-size:12.5654px;line-height:0.95;font-family:'Noto Serif Devanagari';-inkscape-font-specification:'Noto Serif Devanagari';text-align:center;text-anchor:middle;stroke-width:0.130759"
       d="M 2.550775,5.0908658 2.035594,4.0730683 q 0.95497,-0.251308 1.470152,-0.5403122 0.515181,-0.2890042 0.515181,-0.7413586 0,-0.3267004 -0.226177,-0.502616 -0.213612,-0.1759156 -0.565443,-0.1759156 -0.351831,0 -0.76649,0.125654 -0.414658,0.125654 -0.829316,0.314135 L 1.093189,1.4971613 Q 1.507847,1.2961149 1.922505,1.2081571 2.337163,1.1076339 2.714125,1.1076339 q 0.46492,0 0.841882,0.188481 0.389528,0.1759156 0.741359,0.5780084 0.238742,0.2764388 0.364396,0.62827 0.13822,0.3518312 0.13822,0.6785316 0,0.691097 -0.527747,1.130886 -0.527747,0.4272236 -1.72146,0.7790549 z"
       transform="translate(4.5383092,19.13127)"
       id="path570" /><path
       style="font-size:12.5654px;line-height:0.95;font-family:'Noto Serif Devanagari';-inkscape-font-specification:'Noto Serif Devanagari';text-align:center;text-anchor:middle;stroke-width:0.130759"
       d="m 3.103653,8.031169 q -0.741359,0 -1.344498,-0.402092 Q 1.168581,7.226984 0.72879198,6.5484522 0.30156898,5.8699206 -1.02e-6,5.065735 l 0.578008,-0.2513081 Q 0.99266598,5.819659 1.532978,6.3976674 2.085855,6.96311 2.852345,6.96311 3.32983,6.96311 3.6314,6.686672 3.945535,6.3976674 3.945535,5.9830092 3.945535,5.694005 3.845011,5.4301316 3.757051,5.1662582 3.593703,4.940081 3.430353,4.7013383 3.204176,4.5379881 L 3.65653,4.3495071 q 0.439789,0.3518312 0.703663,0.6910971 0.276439,0.3267004 0.389527,0.6785316 0.113089,0.3392658 0.113089,0.7287932 0,0.741359 -0.502616,1.168582 -0.490051,0.414658 -1.25654,0.414658 z"
       transform="translate(4.5383092,19.13127)"
       id="path572" /><path
       style="font-size:12.5654px;line-height:0.95;font-family:'Noto Serif Devanagari';-inkscape-font-specification:'Noto Serif Devanagari';text-align:center;text-anchor:middle;fill:#c9c9c9;fill-opacity:1;stroke-width:0.130759"
       d="M 10.052319,1.2709841 Q 9.838707,0.7809335 9.61253,0.42910233 9.398918,0.06470573 9.197872,-0.18660227 8.846041,-0.63895667 8.51934,-0.80230687 q -0.314135,-0.1759156 -0.753924,-0.1759156 -0.213612,0 -0.49005,0.062827 -0.263874,0.062827 -0.490051,0.1759156 L 6.157045,-1.9708891 q 0.226177,-0.075392 0.502616,-0.1382194 0.276439,-0.062827 0.62827,-0.062827 0.477485,0 0.904709,0.1759156 0.427223,0.1633502 0.841882,0.565443 0.414658,0.3895274 0.816751,1.05549363 0.414658,0.6659662 0.854447,1.64606737 z"
       transform="translate(4.5383092,19.13127)"
       id="path574" /></g><g
     id="g549"
     inkscape:label="2"
     transform="translate(13.753474,-13.684868)"><path
       style="font-size:12.5654px;line-height:0.95;font-family:'Noto Serif Devanagari';-inkscape-font-specification:'Noto Serif Devanagari';text-align:center;text-anchor:middle;fill:#c9c9c9;fill-opacity:1;stroke-width:0.130759"
       d="M 8.607298,2.1254313 8.05442,1.2961149 V 1.1578955 h 3.76962 l 0.540313,0.8418818 v 0.125654 z"
       transform="translate(4.5383092,19.13127)"
       id="path533" /><path
       style="font-size:12.5654px;line-height:0.95;font-family:'Noto Serif Devanagari';-inkscape-font-specification:'Noto Serif Devanagari';text-align:center;text-anchor:middle;fill:#c9c9c9;fill-opacity:1;stroke-width:0.130759"
       d="M 10.642893,9.086663 9.662792,8.395566 V 1.7359039 h 1.11832 V 9.086663 Z"
       transform="translate(4.5383092,19.13127)"
       id="path535" /><path
       style="font-size:12.5654px;line-height:0.95;font-family:'Noto Serif Devanagari';-inkscape-font-specification:'Noto Serif Devanagari';text-align:center;text-anchor:middle;fill:#c9c9c9;fill-opacity:1;stroke-width:0.130759"
       d="M 5.528775,2.1254313 5.001028,1.3086803 V 1.1578955 h 3.669097 l 0.540312,0.8418818 v 0.125654 z"
       transform="translate(4.5383092,19.13127)"
       id="path537" /><path
       style="font-size:12.5654px;line-height:0.95;font-family:'Noto Serif Devanagari';-inkscape-font-specification:'Noto Serif Devanagari';text-align:center;text-anchor:middle;fill:#c9c9c9;fill-opacity:1;stroke-width:0.130759"
       d="M 7.476412,9.086663 6.508876,8.395566 V 1.7359039 H 7.614631 V 9.086663 Z"
       transform="translate(4.5383092,19.13127)"
       id="path539" /><path
       style="font-size:12.5654px;line-height:0.95;font-family:'Noto Serif Devanagari';-inkscape-font-specification:'Noto Serif Devanagari';text-align:center;text-anchor:middle;stroke-width:0.130759"
       d="m 5.792648,5.6186126 q -0.578008,0 -1.105755,-0.2764388 Q 4.171712,5.065735 3.744488,4.6133805 l 0.06283,-0.2387426 q 0.30157,0.1507848 0.665966,0.251308 0.376962,0.087958 0.753924,0.087958 0.427224,0 0.791621,-0.125654 0.364396,-0.1382194 0.62827,-0.3895274 V 5.4301316 Q 6.458618,5.5180896 6.245006,5.568351 6.043959,5.618613 5.792651,5.618613 Z"
       transform="translate(4.5383092,19.13127)"
       id="path541" /><path
       style="font-size:12.5654px;line-height:0.95;font-family:'Noto Serif Devanagari';-inkscape-font-specification:'Noto Serif Devanagari';text-align:center;text-anchor:middle;stroke-width:0.130759"
       d="M 2.550775,5.0908658 2.035594,4.0730683 q 0.95497,-0.251308 1.470152,-0.5403122 0.515181,-0.2890042 0.515181,-0.7413586 0,-0.3267004 -0.226177,-0.502616 -0.213612,-0.1759156 -0.565443,-0.1759156 -0.351831,0 -0.76649,0.125654 -0.414658,0.125654 -0.829316,0.314135 L 1.093189,1.4971613 Q 1.507847,1.2961149 1.922505,1.2081571 2.337163,1.1076339 2.714125,1.1076339 q 0.46492,0 0.841882,0.188481 0.389528,0.1759156 0.741359,0.5780084 0.238742,0.2764388 0.364396,0.62827 0.13822,0.3518312 0.13822,0.6785316 0,0.691097 -0.527747,1.130886 -0.527747,0.4272236 -1.72146,0.7790549 z"
       transform="translate(4.5383092,19.13127)"
       id="path543" /><path
       style="font-size:12.5654px;line-height:0.95;font-family:'Noto Serif Devanagari';-inkscape-font-specification:'Noto Serif Devanagari';text-align:center;text-anchor:middle;stroke-width:0.130759"
       d="m 3.103653,8.031169 q -0.741359,0 -1.344498,-0.402092 Q 1.168581,7.226984 0.72879198,6.5484522 0.30156898,5.8699206 -1.02e-6,5.065735 l 0.578008,-0.2513081 Q 0.99266598,5.819659 1.532978,6.3976674 2.085855,6.96311 2.852345,6.96311 3.32983,6.96311 3.6314,6.686672 3.945535,6.3976674 3.945535,5.9830092 3.945535,5.694005 3.845011,5.4301316 3.757051,5.1662582 3.593703,4.940081 3.430353,4.7013383 3.204176,4.5379881 L 3.65653,4.3495071 q 0.439789,0.3518312 0.703663,0.6910971 0.276439,0.3267004 0.389527,0.6785316 0.113089,0.3392658 0.113089,0.7287932 0,0.741359 -0.502616,1.168582 -0.490051,0.414658 -1.25654,0.414658 z"
       transform="translate(4.5383092,19.13127)"
       id="path545" /><path
       style="font-size:12.5654px;line-height:0.95;font-family:'Noto Serif Devanagari';-inkscape-font-specification:'Noto Serif Devanagari';text-align:center;text-anchor:middle;fill:#c9c9c9;fill-opacity:1;stroke-width:0.130759"
       d="M 10.052319,1.2709841 Q 9.838707,0.7809335 9.61253,0.42910233 9.398918,0.06470573 9.197872,-0.18660227 8.846041,-0.63895667 8.51934,-0.80230687 q -0.314135,-0.1759156 -0.753924,-0.1759156 -0.213612,0 -0.49005,0.062827 -0.263874,0.062827 -0.490051,0.1759156 L 6.157045,-1.9708891 q 0.226177,-0.075392 0.502616,-0.1382194 0.276439,-0.062827 0.62827,-0.062827 0.477485,0 0.904709,0.1759156 0.427223,0.1633502 0.841882,0.565443 0.414658,0.3895274 0.816751,1.05549363 0.414658,0.6659662 0.854447,1.64606737 z"
       transform="translate(4.5383092,19.13127)"
       id="path547" /></g><g
     id="g18324"
     inkscape:label="1"
     transform="translate(-0.79860916,-13.684868)"><path
       style="font-size:12.5654px;line-height:0.95;font-family:'Noto Serif Devanagari';-inkscape-font-specification:'Noto Serif Devanagari';text-align:center;text-anchor:middle;fill:#c9c9c9;fill-opacity:1;stroke-width:0.130759"
       d="M 8.607298,2.1254313 8.05442,1.2961149 V 1.1578955 h 3.76962 l 0.540313,0.8418818 v 0.125654 z"
       transform="translate(4.5383092,19.13127)"
       id="path529" /><path
       style="font-size:12.5654px;line-height:0.95;font-family:'Noto Serif Devanagari';-inkscape-font-specification:'Noto Serif Devanagari';text-align:center;text-anchor:middle;fill:#c9c9c9;fill-opacity:1;stroke-width:0.130759"
       d="M 10.642893,9.086663 9.662792,8.395566 V 1.7359039 h 1.11832 V 9.086663 Z"
       transform="translate(4.5383092,19.13127)"
       id="path527" /><path
       style="font-size:12.5654px;line-height:0.95;font-family:'Noto Serif Devanagari';-inkscape-font-specification:'Noto Serif Devanagari';text-align:center;text-anchor:middle;fill:#c9c9c9;fill-opacity:1;stroke-width:0.130759"
       d="M 5.528775,2.1254313 5.001028,1.3086803 V 1.1578955 h 3.669097 l 0.540312,0.8418818 v 0.125654 z"
       transform="translate(4.5383092,19.13127)"
       id="path525" /><path
       style="font-size:12.5654px;line-height:0.95;font-family:'Noto Serif Devanagari';-inkscape-font-specification:'Noto Serif Devanagari';text-align:center;text-anchor:middle;fill:#c9c9c9;fill-opacity:1;stroke-width:0.130759"
       d="M 7.476412,9.086663 6.508876,8.395566 V 1.7359039 H 7.614631 V 9.086663 Z"
       transform="translate(4.5383092,19.13127)"
       id="path523" /><path
       style="font-size:12.5654px;line-height:0.95;font-family:'Noto Serif Devanagari';-inkscape-font-specification:'Noto Serif Devanagari';text-align:center;text-anchor:middle;fill:#c9c9c9;fill-opacity:1;stroke-width:0.130759"
       d="m 5.792648,5.6186126 q -0.578008,0 -1.105755,-0.2764388 Q 4.171712,5.065735 3.744488,4.6133805 l 0.06283,-0.2387426 q 0.30157,0.1507848 0.665966,0.251308 0.376962,0.087958 0.753924,0.087958 0.427224,0 0.791621,-0.125654 0.364396,-0.1382194 0.62827,-0.3895274 V 5.4301316 Q 6.458618,5.5180896 6.245006,5.568351 6.043959,5.618613 5.792651,5.618613 Z"
       transform="translate(4.5383092,19.13127)"
       id="path521" /><path
       style="font-size:12.5654px;line-height:0.95;font-family:'Noto Serif Devanagari';-inkscape-font-specification:'Noto Serif Devanagari';text-align:center;text-anchor:middle;stroke-width:0.130759"
       d="M 2.550775,5.0908658 2.035594,4.0730683 q 0.95497,-0.251308 1.470152,-0.5403122 0.515181,-0.2890042 0.515181,-0.7413586 0,-0.3267004 -0.226177,-0.502616 -0.213612,-0.1759156 -0.565443,-0.1759156 -0.351831,0 -0.76649,0.125654 -0.414658,0.125654 -0.829316,0.314135 L 1.093189,1.4971613 Q 1.507847,1.2961149 1.922505,1.2081571 2.337163,1.1076339 2.714125,1.1076339 q 0.46492,0 0.841882,0.188481 0.389528,0.1759156 0.741359,0.5780084 0.238742,0.2764388 0.364396,0.62827 0.13822,0.3518312 0.13822,0.6785316 0,0.691097 -0.527747,1.130886 -0.527747,0.4272236 -1.72146,0.7790549 z"
       transform="translate(4.5383092,19.13127)"
       id="path519" /><path
       style="font-size:12.5654px;line-height:0.95;font-family:'Noto Serif Devanagari';-inkscape-font-specification:'Noto Serif Devanagari';text-align:center;text-anchor:middle;stroke-width:0.130759"
       d="m 3.103653,8.031169 q -0.741359,0 -1.344498,-0.402092 Q 1.168581,7.226984 0.72879198,6.5484522 0.30156898,5.8699206 -1.02e-6,5.065735 l 0.578008,-0.2513081 Q 0.99266598,5.819659 1.532978,6.3976674 2.085855,6.96311 2.852345,6.96311 3.32983,6.96311 3.6314,6.686672 3.945535,6.3976674 3.945535,5.9830092 3.945535,5.694005 3.845011,5.4301316 3.757051,5.1662582 3.593703,4.940081 3.430353,4.7013383 3.204176,4.5379881 L 3.65653,4.3495071 q 0.439789,0.3518312 0.703663,0.6910971 0.276439,0.3267004 0.389527,0.6785316 0.113089,0.3392658 0.113089,0.7287932 0,0.741359 -0.502616,1.168582 -0.490051,0.414658 -1.25654,0.414658 z"
       transform="translate(4.5383092,19.13127)"
       id="path1066" /><path
       style="font-size:12.5654px;line-height:0.95;font-family:'Noto Serif Devanagari';-inkscape-font-specification:'Noto Serif Devanagari';text-align:center;text-anchor:middle;fill:#c9c9c9;fill-opacity:1;stroke-width:0.130759"
       d="M 10.052319,1.2709841 Q 9.838707,0.7809335 9.61253,0.42910233 9.398918,0.06470573 9.197872,-0.18660227 8.846041,-0.63895667 8.51934,-0.80230687 q -0.314135,-0.1759156 -0.753924,-0.1759156 -0.213612,0 -0.49005,0.062827 -0.263874,0.062827 -0.490051,0.1759156 L 6.157045,-1.9708891 q 0.226177,-0.075392 0.502616,-0.1382194 0.276439,-0.062827 0.62827,-0.062827 0.477485,0 0.904709,0.1759156 0.427223,0.1633502 0.841882,0.565443 0.414658,0.3895274 0.816751,1.05549363 0.414658,0.6659662 0.854447,1.64606737 z"
       transform="translate(4.5383092,19.13127)"
       id="path531" /></g><g
     id="g18308"
     inkscape:label="Arrows"
     transform="translate(-0.79860916,-13.684868)"
     style="opacity:0.8;stroke:#ff0c0c;stroke-opacity:1"><g
       id="path19546"
       style="opacity:0.8"
       transform="translate(25.166632,-0.18708871)"><path
         style="color:#000000;fill:#ff0000;stroke:none"
         d="m 57.271484,19.65625 v 0.130859 h 2.94003 V 19.65625 Z"
         id="path27032"
         sodipodi:nodetypes="ccccc" /><g
         id="g27022"><g
           id="path27024"><path
             style="color:#000000;fill:#ff0000;fill-rule:evenodd;stroke:none;stroke-width:0.0655pt;-inkscape-stroke:none"
             d="m 60.599419,19.721465 -0.566575,0.3275 v -0.655 z"
             id="path27028" /><path
             style="color:#000000;fill:#ff0000;fill-rule:evenodd;stroke:none;-inkscape-stroke:none"
             d="M 59.989154,19.318359 V 20.125 l 0.697266,-0.404297 -0.06445,-0.03711 z m 0.08789,0.152344 0.433593,0.251953 -0.433593,0.25 z"
             id="path27030" /></g></g></g><g
       id="path4355"
       style="opacity:0.8"
       transform="translate(5.1831987,-0.019374)"><g
         id="g27036"><g
           id="path27038" /></g></g><g
       id="g1541"
       style="opacity:0.8"
       transform="translate(22.965399,-0.019374)" /><g
       id="path12424"
       style="opacity:0.8;stroke:#ff0c0c;stroke-opacity:1"
       transform="translate(10.364896,11.412947)"><path
         style="color:#000000;fill:#ff0000;stroke:none;-inkscape-stroke:none"
         d="m -3.6656769,8.2140027 c -0.27751,0.03758 -0.5212194,0.0996 -0.6992187,0.154297 -0.089,0.02735 -0.1624418,0.05307 -0.2148438,0.07227 -0.052402,0.01919 -0.089899,0.03585 -0.087891,0.03516 l 0.041016,0.123047 c 0.016936,-0.0058 0.041154,-0.01661 0.091797,-0.03516 0.050643,-0.01855 0.1225652,-0.0418 0.2089844,-0.06836 0.1728383,-0.05311 0.4093682,-0.114049 0.6777344,-0.150391 0.5367324,-0.07268 1.195554,-0.04648 1.734375,0.328125 l 0.076172,-0.107421 c -0.5774221,-0.401442 -1.2731052,-0.426726 -1.8281253,-0.351567 z"
         id="path15166" /><g
         id="g15156"><g
           id="path15158"><path
             style="color:#000000;fill:#ff0000;fill-rule:evenodd;stroke:none;stroke-width:0.0655pt;-inkscape-stroke:none"
             d="m -1.5652857,8.8344937 -0.6521437,-0.05452 0.3738922,-0.5378 z"
             id="path15162" /><path
             style="color:#000000;fill:#ff0000;fill-rule:evenodd;stroke:none;-inkscape-stroke:none"
             d="m -1.8355987,8.1554087 -0.4609375,0.66211 0.8027344,0.06641 -0.03125,-0.06836 z m -0.015625,0.173828 0.2128906,0.455079 -0.4980469,-0.04297 z"
             id="path15164" /></g></g></g><g
       id="path12426"
       style="opacity:0.8;stroke:#ff0c0c;stroke-opacity:1"
       transform="translate(10.364896,11.412947)"><path
         style="color:#000000;fill:#ff0000;stroke:none;-inkscape-stroke:none"
         d="m -1.2379425,12.253066 -0.099609,0.08594 c 0,0 0.86730687,1.030167 0.74804677,1.992188 l 0.1308594,0.01563 c 0.1299647,-1.048376 -0.77929687,-2.09375 -0.77929687,-2.09375 z"
         id="path15180"
         inkscape:label="path15180" /><g
         id="g15170"><g
           id="path15172"><path
             style="color:#000000;fill:#ff0000;fill-rule:evenodd;stroke:none;stroke-width:0.0655pt;-inkscape-stroke:none"
             d="m -0.57057153,14.714068 -0.2553084,-0.602562 0.6500243,0.08058 z"
             id="path15176" /><path
             style="color:#000000;fill:#ff0000;fill-rule:evenodd;stroke:none;-inkscape-stroke:none"
             d="m -0.89614563,14.059706 0.3144531,0.740235 0.046875,-0.05859 0.4394529,-0.583985 z m 0.140625,0.105469 0.498047,0.06055 -0.3027345,0.402344 z"
             id="path15178" /></g></g></g><g
       id="path12929"
       style="opacity:0.8;stroke:#ff0c0c;stroke-opacity:1"
       transform="translate(10.909462,26.582138)"><path
         style="color:#000000;fill:#ff0000;stroke:none;-inkscape-stroke:none"
         d="m 14.411797,-3.5223258 c -0.655928,0.442554 -1.542968,0.2304688 -1.542968,0.2304688 l -0.03125,0.1289062 c 0,0 0.929888,0.2334869 1.646484,-0.25 z"
         id="path15222" /><g
         id="g15212"><g
           id="path15214"><path
             style="color:#000000;fill:#ff0000;fill-rule:evenodd;stroke:none;stroke-width:0.0655pt;-inkscape-stroke:none"
             d="m 14.761355,-3.6785623 -0.2865,0.588372 -0.366342,-0.5429716 z"
             id="path15218" /><path
             style="color:#000000;fill:#ff0000;fill-rule:evenodd;stroke:none;-inkscape-stroke:none"
             d="m 14.833672,-3.7274039 -0.07617,0.00586 -0.726564,0.050781 0.449219,0.6679688 z m -0.144531,0.097656 -0.220703,0.4511719 -0.28125,-0.4160156 z"
             id="path15220" /></g></g></g><g
       id="path1499"
       style="opacity:0.8"
       transform="translate(-15.816915,-3.614668)"><path
         style="color:#000000;fill:#ff0c0c;stroke:none"
         d="m 57.583984,25.037109 v 2.248047 h 0.13086 v -2.248047 z"
         id="path4802" /><g
         id="g4792"><g
           id="path4794"><path
             style="color:#000000;fill:#ff0c0c;fill-rule:evenodd;stroke:none;stroke-width:0.0655pt"
             d="m 57.649244,27.663743 -0.3275,-0.566575 h 0.655 z"
             id="path4798" /><path
             style="color:#000000;fill:#ff0c0c;fill-rule:evenodd;stroke:none"
             d="m 57.246094,27.052734 0.402343,0.699219 0.03906,-0.06641 0.365234,-0.632813 z m 0.15039,0.08789 h 0.50586 l -0.253907,0.435547 z"
             id="path4800" /></g></g></g><g
       id="path1864"
       style="opacity:0.8"><path
         style="color:#000000;fill:#ff0c0c;stroke:none;-inkscape-stroke:none"
         d="m 59.478516,21.423828 v 2.248047 h 0.130859 v -2.248047 z"
         id="path4820" /><g
         id="g4810"><g
           id="path4812"><path
             style="color:#000000;fill:#ff0c0c;fill-rule:evenodd;stroke:none;stroke-width:0.0655pt;-inkscape-stroke:none"
             d="m 59.544612,24.049075 -0.3275,-0.566575 h 0.655 z"
             id="path4816" /><path
             style="color:#000000;fill:#ff0c0c;fill-rule:evenodd;stroke:none;-inkscape-stroke:none"
             d="m 59.140625,23.439453 0.404297,0.697266 0.03711,-0.06641 0.365235,-0.630859 z m 0.152344,0.08594 h 0.503906 l -0.251953,0.435546 z"
             id="path4818" /></g></g></g><g
       id="path9739"
       style="opacity:0.8;stroke:none;stroke-opacity:1"
       transform="translate(48.688192,40.906782)"><path
         style="color:#000000;fill:#ff0c0c;-inkscape-stroke:none"
         d="m 22.680847,-24.287531 -0.0332,0.126953 c 0.637254,0.162939 1.245727,0.83138 1.707032,1.50586 0.461304,0.674479 0.775473,1.343706 0.865234,1.511719 l 0.115234,-0.0625 c -0.08125,-0.152079 -0.404634,-0.836608 -0.87305,-1.521485 -0.468415,-0.684877 -1.081475,-1.381622 -1.78125,-1.560547 z"
         id="path9853" /><g
         id="g9843"><g
           id="path9845"><path
             style="color:#000000;fill:#ff0c0c;fill-rule:evenodd;stroke-width:0.0655pt;-inkscape-stroke:none"
             d="m 22.297899,-24.317596 0.630043,-0.176941 -0.162256,0.634585 z"
             id="path9849" /><path
             style="color:#000000;fill:#ff0c0c;fill-rule:evenodd;-inkscape-stroke:none"
             d="m 22.989441,-24.557062 -0.77539,0.21875 0.05273,0.05273 0.521484,0.509766 z m -0.123047,0.126953 -0.125,0.486328 -0.359375,-0.351562 z"
             id="path9851" /></g></g></g></g><g
     id="g13078"
     inkscape:label="Start markers"
     style="opacity:0.8;stroke:#ff0c0c;stroke-opacity:1"
     transform="translate(-5.8432126,-5.9253331)"><circle
       r="0.67124546"
       clip-path="none"
       cy="13.381524"
       cx="10.975277"
       id="circle10879"
       style="opacity:0.6;fill:#00ff00;fill-opacity:1;stroke:none;stroke-width:0.268498;stroke-linecap:round;stroke-linejoin:miter;stroke-miterlimit:4;stroke-dasharray:none;stroke-dashoffset:0;stroke-opacity:1" /><circle
       r="0.67124546"
       clip-path="none"
       cy="16.278141"
       cx="28.478064"
       id="circle13029"
       style="opacity:0.6;fill:#00ff00;fill-opacity:1;stroke:none;stroke-width:0.268498;stroke-linecap:round;stroke-linejoin:miter;stroke-miterlimit:4;stroke-dasharray:none;stroke-dashoffset:0;stroke-opacity:1" /><circle
       r="0.67124546"
       clip-path="none"
       cy="13.144483"
       cx="45.748833"
       id="circle13043"
       style="opacity:0.6;fill:#00ff00;fill-opacity:1;stroke:none;stroke-width:0.268498;stroke-linecap:round;stroke-linejoin:miter;stroke-miterlimit:4;stroke-dasharray:none;stroke-dashoffset:0;stroke-opacity:1" /><circle
       r="0.67124546"
       clip-path="none"
       cy="13.144483"
       cx="63.461117"
       id="circle1866"
       style="opacity:0.6;fill:#00ff00;fill-opacity:1;stroke:none;stroke-width:0.268498;stroke-linecap:round;stroke-linejoin:miter;stroke-miterlimit:4;stroke-dasharray:none;stroke-dashoffset:0;stroke-opacity:1" /><circle
       r="0.67124546"
       clip-path="none"
       cy="-21.939987"
       cx="25.061848"
       id="circle10113"
       style="opacity:0.6;fill:#00ff00;fill-opacity:1;stroke:none;stroke-width:0.268498;stroke-linecap:round;stroke-linejoin:miter;stroke-miterlimit:4;stroke-dasharray:none;stroke-dashoffset:0;stroke-opacity:1"
       transform="translate(53.071337,34.488299)" /><circle
       r="0.67124546"
       clip-path="none"
       cy="12.967013"
       cx="87.672752"
       id="circle5433"
       style="opacity:0.6;fill:#00ff00;fill-opacity:1;stroke:none;stroke-width:0.268498;stroke-linecap:round;stroke-linejoin:miter;stroke-miterlimit:4;stroke-dasharray:none;stroke-dashoffset:0;stroke-opacity:1" /></g></svg>
