<?xml version="1.0" encoding="UTF-8" standalone="no"?>
<!-- Created with Inkscape (http://www.inkscape.org/) -->

<svg
   width="197"
   height="64"
   viewBox="0 0 52.122914 16.933333"
   version="1.1"
   id="svg5"
   sodipodi:docname="Devanagari_jh.svg"
   inkscape:version="1.2.1 (9c6d41e410, 2022-07-14)"
   xml:space="preserve"
   xmlns:inkscape="http://www.inkscape.org/namespaces/inkscape"
   xmlns:sodipodi="http://sodipodi.sourceforge.net/DTD/sodipodi-0.dtd"
   xmlns="http://www.w3.org/2000/svg"
   xmlns:svg="http://www.w3.org/2000/svg"><sodipodi:namedview
     id="namedview7"
     pagecolor="#505050"
     bordercolor="#eeeeee"
     borderopacity="1"
     inkscape:showpageshadow="0"
     inkscape:pageopacity="0"
     inkscape:pagecheckerboard="0"
     inkscape:deskcolor="#505050"
     inkscape:document-units="mm"
     showgrid="false"
     inkscape:zoom="3.9821429"
     inkscape:cx="78.475335"
     inkscape:cy="12.430493"
     inkscape:window-width="1920"
     inkscape:window-height="991"
     inkscape:window-x="-9"
     inkscape:window-y="-9"
     inkscape:window-maximized="1"
     inkscape:current-layer="g4698"
     showguides="true" /><defs
     id="defs2" /><g
     id="g4698"
     inkscape:label="Letters"
     transform="translate(23.547917,-0.4163568)"><g
       aria-label="झ"
       id="text343"
       style="font-size:12.5654px;line-height:0.95;text-align:center;text-anchor:middle;stroke-width:0.130759"
       transform="translate(11.90625)"
       inkscape:label="3"><path
         style="font-family:'Noto Serif Devanagari';-inkscape-font-specification:'Noto Serif Devanagari'"
         d="M 3.9871018,5.4949493 3.4342242,4.6781983 V 4.5274135 h 9.5245738 l 0.540312,0.8418818 v 0.125654 z"
         id="path1428" /><path
         style="font-family:'Noto Serif Devanagari';-inkscape-font-specification:'Noto Serif Devanagari';opacity:1;fill:#000000;fill-opacity:1"
         d="M 11.77765,12.456181 10.797549,11.765084 V 5.1054219 h 1.11832 v 7.3507591 z"
         id="path1426" /><path
         style="font-family:'Noto Serif Devanagari';-inkscape-font-specification:'Noto Serif Devanagari';opacity:1"
         d="M 8.2593379,14.240468 Q 7.9075067,13.98916 7.5305447,13.624763 7.1661481,13.272932 6.8268823,12.870839 6.4876165,12.481312 6.2237431,12.116915 l 0.691097,0.0377 q 0.188481,0.175916 0.502616,0.402093 0.314135,0.226177 0.7036624,0.439789 0.4020928,0.226177 0.8418818,0.402093 z"
         id="path1424" /><path
         style="font-family:'Noto Serif Devanagari';-inkscape-font-specification:'Noto Serif Devanagari';opacity:1;fill:#000000;fill-opacity:1"
         d="m 6.9399709,12.305396 q -0.502616,0 -0.9047088,-0.06283 Q 5.6457347,12.167177 5.3692959,12.041523 5.0928571,11.915869 4.9420723,11.727388 4.8038529,11.538907 4.8038529,11.31273 q 0,-0.276439 0.188481,-0.427224 0.188481,-0.16335 0.4649198,-0.16335 0.3643966,0 0.6659662,0.238742 0.3015696,0.226178 0.5528776,0.590574 L 5.7713887,11.33786 q 0.1633502,0.01257 0.376962,0.0377 0.2136118,0.01256 0.376962,0.01256 0.6157046,0 1.0931898,-0.16335 0.4900506,-0.16335 0.7664894,-0.452355 0.2890042,-0.289004 0.2890042,-0.62827 0,-0.3518308 -0.2261772,-0.515181 -0.2261772,-0.1759156 -0.5403122,-0.1759156 -0.2764388,0 -0.6659662,0.125654 Q 6.8520131,9.691793 6.3242663,10.043624 5.9221735,9.8048816 5.5452115,9.4781812 5.1682495,9.1389154 4.9295069,8.7242572 4.6907643,8.309599 4.6907643,7.8698099 q 0,-0.6408354 0.4774852,-1.005232 0.4900506,-0.3643966 1.3696286,-0.3643966 0.2638734,0 0.5528776,0.025131 0.2890042,0.012565 0.7036624,0.050262 l -0.314135,0.238742 V 5.1682489 h 1.1057552 v 2.2240758 q -0.251308,-0.025131 -0.502616,-0.037696 -0.2387426,-0.025131 -0.4900506,-0.025131 -1.0554936,0 -1.5329788,0.2890042 -0.4649198,0.2764388 -0.4649198,0.7036625 0,0.2010464 0.1005232,0.376962 0.1005232,0.1633502 0.2764388,0.2890042 0.4146582,-0.2638734 0.816751,-0.376962 0.4146582,-0.125654 0.7287932,-0.125654 0.3267004,0 0.5528776,0.062827 0.2387426,0.062827 0.4523544,0.1382194 0.2261772,0.075392 0.4774852,0.1382194 0.2638734,0.062827 0.6031392,0.062827 0.4774853,0 0.8670123,-0.1633502 0.402093,-0.1759156 0.615705,-0.439789 v 1.1685822 q -0.175916,0.1130886 -0.414658,0.188481 -0.238743,0.062827 -0.527747,0.062827 -0.3895275,0 -0.8544473,-0.1759156 Q 8.8247809,9.3525272 8.4226881,8.9881306 L 8.9127387,9.12635 q 0.2764388,0.3015696 0.4146582,0.62827 0.1382194,0.3267 0.1382194,0.665966 0,0.552878 -0.3267004,0.980101 -0.314135,0.414659 -0.879578,0.665967 -0.565443,0.238742 -1.319367,0.238742 z"
         id="path1220" /></g><g
       aria-label="झ"
       id="g4353"
       style="font-size:12.5654px;line-height:0.95;text-align:center;text-anchor:middle;stroke-width:0.130759"
       inkscape:label="2"><path
         style="font-family:'Noto Serif Devanagari';-inkscape-font-specification:'Noto Serif Devanagari';opacity:1;stroke-width:0.131;stroke-dasharray:none;fill:#c9c9c9;fill-opacity:1"
         d="M 3.9871018,5.4949493 3.4342242,4.6781983 V 4.5274135 h 9.5245738 l 0.540312,0.8418818 v 0.125654 z"
         id="path4345" /><path
         style="font-family:'Noto Serif Devanagari';-inkscape-font-specification:'Noto Serif Devanagari';opacity:1;fill:#000000;fill-opacity:1"
         d="M 11.77765,12.456181 10.797549,11.765084 V 5.1054219 h 1.11832 v 7.3507591 z"
         id="path4347" /><path
         style="font-family:'Noto Serif Devanagari';-inkscape-font-specification:'Noto Serif Devanagari';opacity:1"
         d="M 8.2593379,14.240468 Q 7.9075067,13.98916 7.5305447,13.624763 7.1661481,13.272932 6.8268823,12.870839 6.4876165,12.481312 6.2237431,12.116915 l 0.691097,0.0377 q 0.188481,0.175916 0.502616,0.402093 0.314135,0.226177 0.7036624,0.439789 0.4020928,0.226177 0.8418818,0.402093 z"
         id="path4349" /><path
         style="font-family:'Noto Serif Devanagari';-inkscape-font-specification:'Noto Serif Devanagari';opacity:1;fill:#000000;fill-opacity:1"
         d="m 6.9399709,12.305396 q -0.502616,0 -0.9047088,-0.06283 Q 5.6457347,12.167177 5.3692959,12.041523 5.0928571,11.915869 4.9420723,11.727388 4.8038529,11.538907 4.8038529,11.31273 q 0,-0.276439 0.188481,-0.427224 0.188481,-0.16335 0.4649198,-0.16335 0.3643966,0 0.6659662,0.238742 0.3015696,0.226178 0.5528776,0.590574 L 5.7713887,11.33786 q 0.1633502,0.01257 0.376962,0.0377 0.2136118,0.01256 0.376962,0.01256 0.6157046,0 1.0931898,-0.16335 0.4900506,-0.16335 0.7664894,-0.452355 0.2890042,-0.289004 0.2890042,-0.62827 0,-0.3518308 -0.2261772,-0.515181 -0.2261772,-0.1759156 -0.5403122,-0.1759156 -0.2764388,0 -0.6659662,0.125654 Q 6.8520131,9.691793 6.3242663,10.043624 5.9221735,9.8048816 5.5452115,9.4781812 5.1682495,9.1389154 4.9295069,8.7242572 4.6907643,8.309599 4.6907643,7.8698099 q 0,-0.6408354 0.4774852,-1.005232 0.4900506,-0.3643966 1.3696286,-0.3643966 0.2638734,0 0.5528776,0.025131 0.2890042,0.012565 0.7036624,0.050262 l -0.314135,0.238742 V 5.1682489 h 1.1057552 v 2.2240758 q -0.251308,-0.025131 -0.502616,-0.037696 -0.2387426,-0.025131 -0.4900506,-0.025131 -1.0554936,0 -1.5329788,0.2890042 -0.4649198,0.2764388 -0.4649198,0.7036625 0,0.2010464 0.1005232,0.376962 0.1005232,0.1633502 0.2764388,0.2890042 0.4146582,-0.2638734 0.816751,-0.376962 0.4146582,-0.125654 0.7287932,-0.125654 0.3267004,0 0.5528776,0.062827 0.2387426,0.062827 0.4523544,0.1382194 0.2261772,0.075392 0.4774852,0.1382194 0.2638734,0.062827 0.6031392,0.062827 0.4774853,0 0.8670123,-0.1633502 0.402093,-0.1759156 0.615705,-0.439789 v 1.1685822 q -0.175916,0.1130886 -0.414658,0.188481 -0.238743,0.062827 -0.527747,0.062827 -0.3895275,0 -0.8544473,-0.1759156 Q 8.8247809,9.3525272 8.4226881,8.9881306 L 8.9127387,9.12635 q 0.2764388,0.3015696 0.4146582,0.62827 0.1382194,0.3267 0.1382194,0.665966 0,0.552878 -0.3267004,0.980101 -0.314135,0.414659 -0.879578,0.665967 -0.565443,0.238742 -1.319367,0.238742 z"
         id="path4351" /></g><g
       aria-label="झ"
       id="g2312"
       style="font-size:12.5654px;line-height:0.95;text-align:center;text-anchor:middle;stroke-width:0.130759"
       inkscape:label="1"
       transform="translate(-23.812501)"><path
         style="display:inline;opacity:1;fill:#c9c9c9;fill-opacity:1;stroke:none;stroke-width:0.131;stroke-dasharray:none;stroke-opacity:1"
         d="M 9.2344689,7.367194 V 8.5357763 C 9.0888685,8.6288606 8.9258729,8.696859 8.7582309,8.7373632 8.3319853,8.856521 7.8551842,8.7732681 7.4238846,8.5843639 6.9693254,8.3274177 6.7024697,8.0361797 6.5839404,7.7668453 6.8272655,7.8455233 7.1603485,7.9225682 7.4154224,7.9512801 7.7797941,7.9948329 8.1573777,7.9698763 8.5060285,7.8505439 8.6761426,7.7898971 8.832342,7.695521 8.9847352,7.5997793 9.0791986,7.5359381 9.1701151,7.4625118 9.2344689,7.367194 Z"
         id="path11176"
         sodipodi:nodetypes="ccccccccc"
         transform="translate(1.852084,0.91727404)" /><path
         style="font-family:'Noto Serif Devanagari';-inkscape-font-specification:'Noto Serif Devanagari';opacity:1;fill:#c9c9c9;fill-opacity:1"
         d="M 3.9871018,5.4949493 3.4342242,4.6781983 V 4.5274135 h 9.5245738 l 0.540312,0.8418818 v 0.125654 z"
         id="path2304" /><path
         style="font-family:'Noto Serif Devanagari';-inkscape-font-specification:'Noto Serif Devanagari';opacity:1;fill:#c9c9c9;fill-opacity:1"
         d="M 11.77765,12.456181 10.797549,11.765084 V 5.1054219 h 1.11832 v 7.3507591 z"
         id="path2306" /><path
         style="font-family:'Noto Serif Devanagari';-inkscape-font-specification:'Noto Serif Devanagari';opacity:1"
         d="M 8.2593379,14.240468 Q 7.9075067,13.98916 7.5305447,13.624763 7.1661481,13.272932 6.8268823,12.870839 6.4876165,12.481312 6.2237431,12.116915 l 0.691097,0.0377 q 0.188481,0.175916 0.502616,0.402093 0.314135,0.226177 0.7036624,0.439789 0.4020928,0.226177 0.8418818,0.402093 z"
         id="path2308" /><path
         style="font-family:'Noto Serif Devanagari';-inkscape-font-specification:'Noto Serif Devanagari';opacity:1;fill:#000000;fill-opacity:1"
         d="m 6.9399709,12.305396 c -0.3350773,0 -0.6366469,-0.02094 -0.9047088,-0.06283 C 5.7755772,12.192307 5.5535884,12.125292 5.3692959,12.041523 5.1850034,11.957754 5.0425955,11.853042 4.9420723,11.727388 4.849926,11.601734 4.8038529,11.463515 4.8038529,11.31273 c 0,-0.184293 0.062827,-0.326701 0.188481,-0.427224 0.125654,-0.1089 0.2806273,-0.16335 0.4649198,-0.16335 0.2429311,0 0.4649198,0.07958 0.6659662,0.238742 0.2010464,0.150785 0.3853389,0.347643 0.5528776,0.590574 L 5.7713887,11.33786 c 0.1089001,0.0084 0.2345541,0.02095 0.376962,0.0377 0.1424079,0.0084 0.2680619,0.01256 0.376962,0.01256 0.4104697,0 0.7748663,-0.05445 1.0931898,-0.16335 0.3267004,-0.1089 0.5821969,-0.259685 0.7664894,-0.452355 0.1926695,-0.192669 0.2890042,-0.402093 0.2890042,-0.62827 0,-0.2345539 -0.075392,-0.4062809 -0.2261772,-0.515181 C 8.2970341,9.5116869 8.11693,9.4530484 7.9075067,9.4530484 c -0.1842925,0 -0.4062813,0.041885 -0.6659662,0.125654 C 6.9818556,9.6540961 6.6760975,9.80907 6.3242663,10.043624 6.0562044,9.8844624 5.7965195,9.6959815 5.5452115,9.4781812 5.2939035,9.252004 5.0886686,9.000696 4.9295069,8.7242572 4.7703452,8.4478184 4.6907643,8.1630026 4.6907643,7.8698099 c 0,-0.4272236 0.1591617,-0.7623009 0.4774852,-1.005232 0.3267004,-0.2429311 0.7832433,-0.3643966 1.3696286,-0.3643966 0.1759156,0 0.3602081,0.00838 0.5528776,0.025131 0.1926695,0.00838 0.4272236,0.025131 0.7036624,0.050262 l -0.314135,0.238742 V 5.1682489 H 8.5860383 V 7.3923247 C 8.4184996,7.3755707 8.250961,7.3630054 8.0834223,7.3546287 7.9242606,7.3378747 7.7609104,7.3294977 7.5933717,7.3294977 c -0.7036624,0 -1.2146553,0.096335 -1.5329788,0.2890042 -0.3099465,0.1842925 -0.4649198,0.4188467 -0.4649198,0.7036625 0,0.1340309 0.033508,0.2596849 0.1005232,0.376962 0.067016,0.1089001 0.1591617,0.2052349 0.2764388,0.2890042 0.2764388,-0.1759156 0.5486891,-0.3015696 0.816751,-0.376962 0.2764388,-0.083769 0.5193699,-0.125654 0.7287932,-0.125654 0.2178003,0 0.4020928,0.020942 0.5528776,0.062827 0.9084307,0.2625987 1.3804274,0.8843661 1.3947594,1.8722444 0,0.368585 -0.1089001,0.695286 -0.3267004,0.980101 -0.2094233,0.276439 -0.502616,0.498428 -0.879578,0.665967 -0.376962,0.159161 -0.816751,0.238742 -1.319367,0.238742 z"
         id="path2310"
         sodipodi:nodetypes="scscscsccccsccscscccsscscccccccscscccsccccs" /></g><g
       aria-label="झ"
       id="g11195"
       style="font-size:12.5654px;line-height:0.95;text-align:center;text-anchor:middle;stroke-width:0.130759"
       inkscape:label="1"
       transform="translate(-11.906251)"><path
         style="font-family:'Noto Serif Devanagari';-inkscape-font-specification:'Noto Serif Devanagari';opacity:1;fill:#c9c9c9;fill-opacity:1"
         d="M 3.9871018,5.4949493 3.4342242,4.6781983 V 4.5274135 h 9.5245738 l 0.540312,0.8418818 v 0.125654 z"
         id="path11187" /><path
         style="font-family:'Noto Serif Devanagari';-inkscape-font-specification:'Noto Serif Devanagari';opacity:1;fill:#c9c9c9;fill-opacity:1"
         d="M 11.77765,12.456181 10.797549,11.765084 V 5.1054219 h 1.11832 v 7.3507591 z"
         id="path11189" /><path
         style="font-family:'Noto Serif Devanagari';-inkscape-font-specification:'Noto Serif Devanagari';opacity:1"
         d="M 8.2593379,14.240468 Q 7.9075067,13.98916 7.5305447,13.624763 7.1661481,13.272932 6.8268823,12.870839 6.4876165,12.481312 6.2237431,12.116915 l 0.691097,0.0377 q 0.188481,0.175916 0.502616,0.402093 0.314135,0.226177 0.7036624,0.439789 0.4020928,0.226177 0.8418818,0.402093 z"
         id="path11191" /><path
         style="font-family:'Noto Serif Devanagari';-inkscape-font-specification:'Noto Serif Devanagari';opacity:1;fill:#000000;fill-opacity:1"
         d="m 6.9399709,12.305396 c -0.3350773,0 -0.6366469,-0.02094 -0.9047088,-0.06283 C 5.7755772,12.192307 5.5535884,12.125292 5.3692959,12.041523 5.1850034,11.957754 5.0425955,11.853042 4.9420723,11.727388 4.849926,11.601734 4.8038529,11.463515 4.8038529,11.31273 c 0,-0.184293 0.062827,-0.326701 0.188481,-0.427224 0.125654,-0.1089 0.2806273,-0.16335 0.4649198,-0.16335 0.2429311,0 0.4649198,0.07958 0.6659662,0.238742 0.2010464,0.150785 0.3853389,0.347643 0.5528776,0.590574 L 5.7713887,11.33786 c 0.1089001,0.0084 0.2345541,0.02095 0.376962,0.0377 0.1424079,0.0084 0.2680619,0.01256 0.376962,0.01256 0.4104697,0 0.7748663,-0.05445 1.0931898,-0.16335 0.3267004,-0.1089 0.5821969,-0.259685 0.7664894,-0.452355 0.1926695,-0.192669 0.2890042,-0.402093 0.2890042,-0.62827 0,-0.2345539 -0.075392,-0.4062809 -0.2261772,-0.515181 C 8.2970341,9.5116869 8.11693,9.4530484 7.9075067,9.4530484 c -0.1842925,0 -0.4062813,0.041885 -0.6659662,0.125654 C 6.9818556,9.6540961 6.6760975,9.80907 6.3242663,10.043624 6.0562044,9.8844624 5.7965195,9.6959815 5.5452115,9.4781812 5.2939035,9.252004 5.0886686,9.000696 4.9295069,8.7242572 4.7703452,8.4478184 4.6907643,8.1630026 4.6907643,7.8698099 c 0,-0.4272236 0.1591617,-0.7623009 0.4774852,-1.005232 0.3267004,-0.2429311 0.7832433,-0.3643966 1.3696286,-0.3643966 0.1759156,0 0.3602081,0.00838 0.5528776,0.025131 0.1926695,0.00838 0.4272236,0.025131 0.7036624,0.050262 l -0.314135,0.238742 V 5.1682489 H 8.5860383 V 7.3923247 C 8.4184996,7.3755707 8.250961,7.3630054 8.0834223,7.3546287 7.9242606,7.3378747 7.7609104,7.3294977 7.5933717,7.3294977 c -0.7036624,0 -1.2146553,0.096335 -1.5329788,0.2890042 -0.3099465,0.1842925 -0.4649198,0.4188467 -0.4649198,0.7036625 0,0.1340309 0.033508,0.2596849 0.1005232,0.376962 0.067016,0.1089001 0.1591617,0.2052349 0.2764388,0.2890042 0.2764388,-0.1759156 0.5486891,-0.3015696 0.816751,-0.376962 0.2764388,-0.083769 0.5193699,-0.125654 0.7287932,-0.125654 0.2178003,0 0.4020928,0.020942 0.5528776,0.062827 0.9084307,0.2625987 1.3804274,0.8843661 1.3947594,1.8722444 0,0.368585 -0.1089001,0.695286 -0.3267004,0.980101 -0.2094233,0.276439 -0.502616,0.498428 -0.879578,0.665967 -0.376962,0.159161 -0.816751,0.238742 -1.319367,0.238742 z"
         id="path11193"
         sodipodi:nodetypes="scscscsccccsccscscccsscscccccccscscccsccccs" /><path
         style="font-size:12.5654px;line-height:0.95;text-align:center;text-anchor:middle;stroke-width:0.131;display:inline;opacity:1;fill:#000000;fill-opacity:1;stroke:none;stroke-dasharray:none;stroke-opacity:1"
         d="M 9.2344689,7.367194 V 8.5357763 C 9.0888685,8.6288606 8.9258729,8.696859 8.7582309,8.7373632 8.3319853,8.856521 7.8551842,8.7732681 7.4238846,8.5843639 6.9693254,8.3274177 6.7024697,8.0361797 6.5839404,7.7668453 6.8272655,7.8455233 7.1603485,7.9225682 7.4154224,7.9512801 7.7797941,7.9948329 8.1573777,7.9698763 8.5060285,7.8505439 8.6761426,7.7898971 8.832342,7.695521 8.9847352,7.5997793 9.0791986,7.5359381 9.1701151,7.4625118 9.2344689,7.367194 Z"
         id="path11185"
         sodipodi:nodetypes="ccccccccc"
         transform="translate(1.852084,0.91727404)" /></g></g><g
     id="g4651"
     inkscape:label="Arrows"
     transform="translate(23.547917,-0.4163568)"
     style="stroke:#ff4a00;stroke-opacity:1;opacity:0.9"><g
       id="path853"
       style="opacity:0.9"
       transform="translate(11.90625)"><path
         style="color:#000000;fill:#ff0000;stroke:none;-inkscape-stroke:none"
         d="M 3.8378906,3.8671875 V 3.9980469 H 6.4453125 V 3.8671875 Z"
         id="path2252" /><g
         id="g2242"><g
           id="path2244"><path
             style="color:#000000;fill:#ff0000;fill-rule:evenodd;stroke:none;stroke-width:0.066146pt;-inkscape-stroke:none"
             d="M 6.8275124,3.932733 6.2553495,4.263463 V 3.602003 Z"
             id="path2248" /><path
             style="color:#000000;fill:#ff0000;fill-rule:evenodd;stroke:none;-inkscape-stroke:none"
             d="M 6.2109375,3.5253906 V 4.3398437 L 6.9160156,3.9335938 6.8496094,3.8945313 Z m 0.087891,0.1542969 0.4394531,0.2539063 -0.4394531,0.2519531 z"
             id="path2250" /></g></g></g><g
       id="path4185"
       style="opacity:0.9"><path
         style="color:#000000;fill:#ff0000;stroke:none;-inkscape-stroke:none"
         d="m -1.65625,8.0625 c -0.3413515,0.2874177 -0.6160973,0.3587132 -0.8652344,0.3496094 -0.2491371,-0.0091 -0.4764424,-0.1046791 -0.7089844,-0.1679688 l -0.035156,0.1269532 c 0.2201497,0.059917 0.459093,0.161673 0.7382812,0.171875 0.2791883,0.010202 0.5947491,-0.077463 0.9550782,-0.3808594 z"
         id="path2266" /><g
         id="g2256"><g
           id="path2258"><path
             style="color:#000000;fill:#ff0000;fill-rule:evenodd;stroke:none;stroke-width:0.066pt;-inkscape-stroke:none"
             d="M -1.3226505,7.8672311 -1.546812,8.487375 -1.9719102,7.9825072 Z"
             id="path2262" /><path
             style="color:#000000;fill:#ff0000;fill-rule:evenodd;stroke:none;-inkscape-stroke:none"
             d="M -1.2558594,7.8105469 -1.3300781,7.8242187 -2.0546875,7.953125 -1.53125,8.5742188 Z M -1.3886719,7.9238281 -1.5625,8.4023438 -1.8886719,8.0117188 Z"
             id="path2264" /></g></g></g><g
       id="path4355"
       style="opacity:0.9"><path
         style="color:#000000;fill:#ff0000;stroke:none;-inkscape-stroke:none"
         d="m 12.341797,5.703125 v 2.6582031 h 0.130859 V 5.703125 Z"
         id="path2280" /><g
         id="g2270"><g
           id="path2272"><path
             style="color:#000000;fill:#ff0000;fill-rule:evenodd;stroke:none;stroke-width:0.0655pt;-inkscape-stroke:none"
             d="m 12.40797,8.7393271 -0.3275,-0.566575 h 0.655 z"
             id="path2276" /><path
             style="color:#000000;fill:#ff0000;fill-rule:evenodd;stroke:none;-inkscape-stroke:none"
             d="m 12.003906,8.1289063 0.404297,0.6972656 0.03711,-0.064453 0.365234,-0.6328125 z m 0.154297,0.087891 h 0.5 l -0.25,0.4355469 z"
             id="path2278" /></g></g></g><g
       id="path2008"
       style="opacity:0.9"><path
         style="color:#000000;fill:#ff0000;stroke:none;-inkscape-stroke:none"
         d="M -14.966797,5.90625 V 7.75 c -0.666234,-0.1333663 -1.467182,-0.1686773 -2.072265,-0.044922 -0.313949,0.064211 -0.575676,0.1658319 -0.738282,0.3261719 -0.161637,0.1593848 -0.208549,0.3861999 -0.0918,0.6386719 1.41e-4,2.872e-4 -2.1e-4,0.00154 0,0.00195 3.53e-4,7.57e-4 -3.55e-4,0.0012 0,0.00195 0.0036,0.00696 0.01133,0.019068 0.01172,0.019531 4.88e-4,5.866e-4 0.02073,0.017194 0.02148,0.017578 7.5e-4,3.842e-4 0.01549,0.0067 0.02148,0.00781 0.02396,0.00444 0.03465,-5.878e-4 0.04687,-0.00391 0.02445,-0.00664 0.0497,-0.016619 0.08203,-0.03125 0.06467,-0.029262 0.154148,-0.074112 0.267578,-0.125 0.226861,-0.1017765 0.543286,-0.2274438 0.904297,-0.2929688 0.722022,-0.1310499 1.613086,-0.032461 2.347656,0.984375 l 0.105469,-0.076172 C -14.822587,8.1189673 -15.783855,8 -16.537109,8.1367188 c -0.376628,0.068359 -0.70189,0.1968318 -0.933594,0.3007812 -0.115852,0.051975 -0.208903,0.09952 -0.269531,0.1269531 -0.0011,5.168e-4 -8.31e-4,0.00145 -0.002,0.00195 -0.06555,-0.1820239 -0.06049,-0.325909 0.05664,-0.4414063 0.131159,-0.1293308 0.37325,-0.2314926 0.673828,-0.2929688 0.601157,-0.1229523 1.434142,-0.094146 2.095703,0.048828 l 0.08008,0.017578 V 5.90625 Z"
         id="path2294" /><g
         id="g2284"><g
           id="path2286"><path
             style="color:#000000;fill:#ff0000;fill-rule:evenodd;stroke:none;stroke-width:0.0655pt;-inkscape-stroke:none"
             d="m -13.891774,9.5180331 -0.597255,-0.2674895 0.530948,-0.3835611 z"
             id="path2290" /><path
             style="color:#000000;fill:#ff0000;fill-rule:evenodd;stroke:none;-inkscape-stroke:none"
             d="m -13.921875,8.7871094 -0.654297,0.4726562 0.736328,0.328125 -0.0078,-0.074219 z m -0.07227,0.1601562 0.05078,0.5 -0.458985,-0.2050781 z"
             id="path2292" /></g></g></g><g
       id="path2058"
       style="opacity:0.9"
       transform="translate(-13.223807,-2.1919481)"><path
         style="color:#000000;fill:#ff0000;stroke:none;-inkscape-stroke:none"
         d="m -5.8222656,12.480469 c -0.3284633,0.259526 -0.4374784,0.567832 -0.4589844,0.80664 -0.021506,0.238808 0.042969,0.416016 0.042969,0.416016 l 0.1230468,-0.04492 c 0,0 -0.054138,-0.148594 -0.035156,-0.359375 0.018982,-0.210781 0.1077522,-0.477451 0.4082031,-0.714844 z"
         id="path2309" /><g
         id="g2298"><g
           id="path2300"><path
             style="color:#000000;fill:#ff0000;fill-rule:evenodd;stroke:none;stroke-width:0.0655pt;-inkscape-stroke:none"
             d="m -5.485474,12.29847 -0.2415188,0.608221 -0.4060721,-0.513936 z"
             id="path2305" /><path
             style="color:#000000;fill:#ff0000;fill-rule:evenodd;stroke:none;-inkscape-stroke:none"
             d="m -5.4179687,12.244141 -0.074219,0.01172 -0.7226562,0.105469 0.5,0.63086 z m -0.1347657,0.109375 -0.1875,0.466797 -0.3125,-0.396485 z"
             id="path2307" /></g></g></g><g
       id="path2060"
       style="opacity:0.9"
       transform="translate(-13.223807,-2.1919481)"><path
         style="color:#000000;fill:#ff0000;stroke:none;-inkscape-stroke:none"
         d="m -3.7714844,13.066406 -0.1152344,0.0625 c 0,0 0.1723272,0.324371 0.4394532,0.677735 0.267126,0.353363 0.6264686,0.740518 1.0273437,0.865234 l 0.039063,-0.125 C -2.727461,14.439044 -3.0834896,14.070844 -3.34375,13.726563 -3.6040104,13.382281 -3.7714844,13.066406 -3.7714844,13.066406 Z"
         id="path2323" /><g
         id="g2313"><g
           id="path2315"><path
             style="color:#000000;fill:#ff0000;fill-rule:evenodd;stroke:none;stroke-width:0.0655pt;-inkscape-stroke:none"
             d="m -2.039974,14.721744 -0.6382872,0.144405 0.1945782,-0.625431 z"
             id="path2319" /><path
             style="color:#000000;fill:#ff0000;fill-rule:evenodd;stroke:none;-inkscape-stroke:none"
             d="m -2.5019531,14.15625 -0.2402344,0.769531 0.7851563,-0.177734 -0.050781,-0.05664 z m 0.037109,0.169922 0.3417969,0.371094 -0.4921875,0.111328 z"
             id="path2321" /></g></g></g></g></svg>
