<?xml version="1.0" encoding="UTF-8" standalone="no"?>
<!-- Created with Inkscape (http://www.inkscape.org/) -->

<svg
   width="150"
   height="65"
   viewBox="0 0 39.687499 17.197916"
   version="1.1"
   id="svg5"
   sodipodi:docname="Devanagari_ऊ_stroke_order.svg"
   inkscape:version="1.2.1 (9c6d41e410, 2022-07-14)"
   xml:space="preserve"
   xmlns:inkscape="http://www.inkscape.org/namespaces/inkscape"
   xmlns:sodipodi="http://sodipodi.sourceforge.net/DTD/sodipodi-0.dtd"
   xmlns:xlink="http://www.w3.org/1999/xlink"
   xmlns="http://www.w3.org/2000/svg"
   xmlns:svg="http://www.w3.org/2000/svg"><sodipodi:namedview
     id="namedview7"
     pagecolor="#505050"
     bordercolor="#eeeeee"
     borderopacity="1"
     inkscape:showpageshadow="0"
     inkscape:pageopacity="0"
     inkscape:pagecheckerboard="0"
     inkscape:deskcolor="#505050"
     inkscape:document-units="mm"
     showgrid="false"
     inkscape:zoom="5.6568542"
     inkscape:cx="79.991455"
     inkscape:cy="36.150835"
     inkscape:window-width="1920"
     inkscape:window-height="991"
     inkscape:window-x="-9"
     inkscape:window-y="-9"
     inkscape:window-maximized="1"
     inkscape:current-layer="svg5"
     showguides="true" /><defs
     id="defs2"><radialGradient
       inkscape:collect="always"
       xlink:href="#linearGradient3840"
       id="radialGradient3842"
       cx="37.284012"
       cy="19.750046"
       fx="37.284012"
       fy="19.750046"
       r="1.089692"
       gradientTransform="matrix(1,0,0,1.1646924,-7.3310258,-18.441769)"
       gradientUnits="userSpaceOnUse" /><linearGradient
       inkscape:collect="always"
       id="linearGradient3840"><stop
         style="stop-color:#ff0c0c;stop-opacity:1;"
         offset="0"
         id="stop3836" /><stop
         style="stop-color:#ff0c0c;stop-opacity:0;"
         offset="1"
         id="stop3838" /></linearGradient></defs><g
     id="g12406"
     inkscape:label="3"
     transform="translate(17.434744,0.04338904)"><path
       style="font-size:12.5654px;line-height:0.95;font-family:'Noto Serif Devanagari';-inkscape-font-specification:'Noto Serif Devanagari';text-align:center;text-anchor:middle;fill:#000000;fill-opacity:1;stroke-width:0.130759"
       d="m 11.857195,13.097954 -0.992666,-0.615705 q 0.578008,-0.540312 0.904708,-1.080624 0.339266,-0.552878 0.339266,-1.068059 0,-0.289005 -0.175915,-0.4774858 -0.175916,-0.201046 -0.502616,-0.201046 -0.414659,0 -0.816751,0.251308 Q 10.211128,10.145085 9.8216008,10.48435 L 9.2058958,9.5796422 q 0.376962,-0.289005 0.8418822,-0.540313 0.464919,-0.251308 0.942405,-0.251308 0.389527,0 0.716227,0.163351 0.339266,0.16335 0.615705,0.452354 0.276439,0.289004 0.427224,0.6659658 0.16335,0.364397 0.16335,0.791621 0,0.540312 -0.30157,1.143451 -0.301569,0.603139 -0.753924,1.09319 z"
       transform="translate(5.3857989,-0.12565287)"
       id="path12398" /><path
       style="font-size:12.5654px;line-height:0.95;font-family:'Noto Serif Devanagari';-inkscape-font-specification:'Noto Serif Devanagari';text-align:center;text-anchor:middle;fill:#000000;fill-opacity:1;stroke-width:0.130759"
       d="M 4.5315668,6.1744183 3.9786898,5.3576673 V 5.2068825 h 9.3486572 l 0.552878,0.8418818 v 0.125654 z"
       transform="translate(5.3857989,-0.12565287)"
       id="path12400" /><path
       style="font-size:12.5654px;line-height:0.95;font-family:'Noto Serif Devanagari';-inkscape-font-specification:'Noto Serif Devanagari';text-align:center;text-anchor:middle;stroke-width:0.130759"
       d="m 7.3839128,9.6173382 -0.527747,-1.042929 q 0.980102,-0.213611 1.520414,-0.578008 0.552877,-0.376962 0.552877,-0.904709 0,-0.339266 -0.150784,-0.6031389 -0.13822,-0.2638734 -0.439789,-0.5151814 l 0.741358,-0.037696 q 0.326701,0.2764388 0.527747,0.7036623 0.213612,0.414658 0.213612,0.92984 0,0.716227 -0.615705,1.25654 -0.603139,0.527746 -1.821983,0.79162 z"
       transform="translate(5.3857989,-0.12565287)"
       id="path12402" /><path
       style="font-size:12.5654px;line-height:0.95;font-family:'Noto Serif Devanagari';-inkscape-font-specification:'Noto Serif Devanagari';text-align:center;text-anchor:middle;stroke-width:0.130759"
       d="m 8.2257948,12.884342 q -0.62827,0 -1.231409,-0.3267 -0.603139,-0.339266 -1.156017,-1.080625 -0.540312,-0.741358 -1.030363,-1.9350718 l 0.578009,-0.238742 q 0.201046,0.452354 0.452354,0.8921428 0.263873,0.427224 0.578008,0.779055 0.314135,0.351831 0.678532,0.565443 0.376962,0.201047 0.816751,0.201047 0.603139,0 0.904709,-0.326701 0.314135,-0.3267 0.314135,-0.779055 0,-0.477485 -0.238743,-0.8921428 -0.226177,-0.427224 -0.62827,-0.753924 l 0.502616,-0.276439 q 0.665966,0.490051 1.030363,1.118321 0.3643972,0.6157038 0.3643972,1.2439738 0,0.867013 -0.5654432,1.344498 -0.552878,0.46492 -1.369629,0.46492 z"
       transform="translate(5.3857989,-0.12565287)"
       id="path12404" /></g><g
     id="g12356"
     inkscape:label="2"
     transform="translate(-6.3777564,0.04338904)"><path
       style="font-size:12.5654px;line-height:0.95;font-family:'Noto Serif Devanagari';-inkscape-font-specification:'Noto Serif Devanagari';text-align:center;text-anchor:middle;fill:#c9c9c9;fill-opacity:1;stroke-width:0.130759"
       d="m 11.857195,13.097954 -0.992666,-0.615705 q 0.578008,-0.540312 0.904708,-1.080624 0.339266,-0.552878 0.339266,-1.068059 0,-0.289005 -0.175915,-0.4774858 -0.175916,-0.201046 -0.502616,-0.201046 -0.414659,0 -0.816751,0.251308 Q 10.211128,10.145085 9.8216008,10.48435 L 9.2058958,9.5796422 q 0.376962,-0.289005 0.8418822,-0.540313 0.464919,-0.251308 0.942405,-0.251308 0.389527,0 0.716227,0.163351 0.339266,0.16335 0.615705,0.452354 0.276439,0.289004 0.427224,0.6659658 0.16335,0.364397 0.16335,0.791621 0,0.540312 -0.30157,1.143451 -0.301569,0.603139 -0.753924,1.09319 z"
       transform="translate(5.3857989,-0.12565287)"
       id="path12348" /><path
       style="font-size:12.5654px;line-height:0.95;font-family:'Noto Serif Devanagari';-inkscape-font-specification:'Noto Serif Devanagari';text-align:center;text-anchor:middle;fill:#c9c9c9;fill-opacity:1;stroke-width:0.130759"
       d="M 4.5315668,6.1744183 3.9786898,5.3576673 V 5.2068825 h 9.3486572 l 0.552878,0.8418818 v 0.125654 z"
       transform="translate(5.3857989,-0.12565287)"
       id="path12350" /><path
       style="font-size:12.5654px;line-height:0.95;font-family:'Noto Serif Devanagari';-inkscape-font-specification:'Noto Serif Devanagari';text-align:center;text-anchor:middle;stroke:none;stroke-width:0.130759;stroke-opacity:1"
       d="M 12.744582,9.491685 12.2294,8.448756 q 0.967537,-0.213611 1.520414,-0.578008 0.552878,-0.376962 0.552878,-0.904709 0,-0.339266 -0.150785,-0.603139 -0.138219,-0.263873 -0.439789,-0.515181 l 0.741359,-0.0377 q 0.3267,0.276438 0.527746,0.703662 0.213612,0.414658 0.213612,0.92984 0,0.716227 -0.615704,1.25654 -0.60314,0.527746 -1.834549,0.79162 z"
       id="path11320" /><path
       style="font-size:12.5654px;line-height:0.95;font-family:'Noto Serif Devanagari';-inkscape-font-specification:'Noto Serif Devanagari';text-align:center;text-anchor:middle;stroke:none;stroke-width:0.130759;stroke-opacity:1"
       d="m 13.599029,12.758689 q -0.62827,0 -1.231409,-0.3267 Q 11.777046,12.092723 11.224168,11.351364 10.671291,10.610006 10.18124,9.416292 L 10.759249,9.17755 q 0.201046,0.452354 0.452354,0.892143 0.263873,0.427224 0.578008,0.779055 0.314135,0.351831 0.678532,0.565443 0.376962,0.201047 0.816751,0.201047 0.60314,0 0.904709,-0.326701 0.314135,-0.3267 0.314135,-0.779055 0,-0.477485 -0.238742,-0.892143 -0.226178,-0.427224 -0.62827,-0.753924 l 0.502616,-0.276439 q 0.665966,0.49005 1.030362,1.11832 0.364397,0.615705 0.364397,1.243975 0,0.867013 -0.565443,1.344498 -0.552878,0.46492 -1.369629,0.46492 z"
       id="path996" /></g><g
     id="g4913"
     inkscape:label="1"
     transform="translate(5.5284936,0.04338904)"><path
       style="font-size:12.5654px;line-height:0.95;font-family:'Noto Serif Devanagari';-inkscape-font-specification:'Noto Serif Devanagari';text-align:center;text-anchor:middle;fill:#000000;fill-opacity:1;stroke-width:0.130759"
       d="m 11.857195,13.097954 -0.992666,-0.615705 q 0.578008,-0.540312 0.904708,-1.080624 0.339266,-0.552878 0.339266,-1.068059 0,-0.289005 -0.175915,-0.4774858 -0.175916,-0.201046 -0.502616,-0.201046 -0.414659,0 -0.816751,0.251308 Q 10.211128,10.145085 9.8216008,10.48435 L 9.2058958,9.5796422 q 0.376962,-0.289005 0.8418822,-0.540313 0.464919,-0.251308 0.942405,-0.251308 0.389527,0 0.716227,0.163351 0.339266,0.16335 0.615705,0.452354 0.276439,0.289004 0.427224,0.6659658 0.16335,0.364397 0.16335,0.791621 0,0.540312 -0.30157,1.143451 -0.301569,0.603139 -0.753924,1.09319 z"
       transform="translate(5.3857989,-0.12565287)"
       id="path12340" /><path
       style="font-size:12.5654px;line-height:0.95;font-family:'Noto Serif Devanagari';-inkscape-font-specification:'Noto Serif Devanagari';text-align:center;text-anchor:middle;fill:#c9c9c9;fill-opacity:1;stroke-width:0.130759"
       d="M 4.5315668,6.1744183 3.9786898,5.3576673 V 5.2068825 h 9.3486572 l 0.552878,0.8418818 v 0.125654 z"
       transform="translate(5.3857989,-0.12565287)"
       id="path12344" /><path
       style="font-size:12.5654px;line-height:0.95;font-family:'Noto Serif Devanagari';-inkscape-font-specification:'Noto Serif Devanagari';text-align:center;text-anchor:middle;stroke-width:0.130759"
       d="m 7.3839128,9.6173382 -0.527747,-1.042929 q 0.980102,-0.213611 1.520414,-0.578008 0.552877,-0.376962 0.552877,-0.904709 0,-0.339266 -0.150784,-0.6031389 -0.13822,-0.2638734 -0.439789,-0.5151814 l 0.741358,-0.037696 q 0.326701,0.2764388 0.527747,0.7036623 0.213612,0.414658 0.213612,0.92984 0,0.716227 -0.615705,1.25654 -0.603139,0.527746 -1.821983,0.79162 z"
       transform="translate(5.3857989,-0.12565287)"
       id="path12342" /><path
       style="font-size:12.5654px;line-height:0.95;font-family:'Noto Serif Devanagari';-inkscape-font-specification:'Noto Serif Devanagari';text-align:center;text-anchor:middle;stroke-width:0.130759"
       d="m 8.2257948,12.884342 q -0.62827,0 -1.231409,-0.3267 -0.603139,-0.339266 -1.156017,-1.080625 -0.540312,-0.741358 -1.030363,-1.9350718 l 0.578009,-0.238742 q 0.201046,0.452354 0.452354,0.8921428 0.263873,0.427224 0.578008,0.779055 0.314135,0.351831 0.678532,0.565443 0.376962,0.201047 0.816751,0.201047 0.603139,0 0.904709,-0.326701 0.314135,-0.3267 0.314135,-0.779055 0,-0.477485 -0.238743,-0.8921428 -0.226177,-0.427224 -0.62827,-0.753924 l 0.502616,-0.276439 q 0.665966,0.490051 1.030363,1.118321 0.3643972,0.6157038 0.3643972,1.2439738 0,0.867013 -0.5654432,1.344498 -0.552878,0.46492 -1.369629,0.46492 z"
       transform="translate(5.3857989,-0.12565287)"
       id="path1006" /></g><g
     id="g18308"
     inkscape:label="Arrows"
     transform="translate(-18.488585,-15.164545)"
     style="opacity:0.8;stroke:#ff0c0c;stroke-opacity:1"><path
       style="color:#000000;fill:#ff0000;fill-opacity:1;stroke:none;stroke-opacity:1"
       d="m 26.402357,4.4955762 v 0.130859 h 3.19336 v -0.130859 z"
       id="path7537"
       transform="translate(18.88546,15.189086)" /><path
       style="color:#000000;fill:#ff0c0c;fill-rule:evenodd;stroke:#ff0c0c;stroke-width:0.0655pt;stroke-opacity:1"
       d="m 29.973667,4.5613952 -0.566575,0.3275 v -0.655 z"
       id="path7533"
       transform="translate(18.88546,15.189086)" /><path
       style="color:#000000;opacity:1;fill:url(#radialGradient3842);fill-opacity:1;fill-rule:evenodd;stroke:none;stroke-opacity:1"
       d="m 29.363295,4.1576852 v 0.806641 l 0.697265,-0.402344 -0.06445,-0.03906 z m 0.08789,0.152344 0.433594,0.251953 -0.433594,0.25 z"
       id="path7535"
       transform="translate(18.88546,15.189086)" /><g
       id="path11258"
       transform="translate(12.110829,15.207934)"
       style="opacity:1"><path
         style="color:#000000;fill:#ff0c0c;stroke:none;-inkscape-stroke:none"
         d="m 15.109375,8.765625 -0.08203,0.1015625 c 0,0 0.346499,0.2841368 0.638672,0.7109375 0.292172,0.426801 0.521965,0.984652 0.310547,1.541016 l 0.123046,0.04687 C 16.332527,10.553075 16.07761,9.9482364 15.773438,9.5039063 15.469265,9.0595761 15.109375,8.765625 15.109375,8.765625 Z"
         id="path11528" /><g
         id="g11518"><g
           id="path11520"><path
             style="color:#000000;fill:#ff0c0c;fill-rule:evenodd;stroke:none;stroke-width:0.0655pt;-inkscape-stroke:none"
             d="m 15.904144,11.496304 -0.104884,-0.645958 0.612283,0.232667 z"
             id="path11524" /><path
             style="color:#000000;fill:#ff0c0c;fill-rule:evenodd;stroke:none;-inkscape-stroke:none"
             d="m 15.744141,10.783203 0.128906,0.794922 0.05859,-0.04883 0.566406,-0.460938 z m 0.109375,0.134766 0.472656,0.177734 -0.390625,0.320313 z"
             id="path11526" /></g></g></g><g
       id="path11427"
       transform="translate(19.648381,15.020393)"
       style="opacity:1"><path
         style="color:#000000;fill:#ff0c0c;stroke:none;-inkscape-stroke:none"
         d="m 5.7346192,6.1599505 -0.099609,0.087891 c 0.05558,0.063398 0.4590669,0.455187 0.4607572,0.8476559 C 6.0965988,7.2885353 6.0680135,7.3912389 5.8730469,7.5703125 5.6766243,7.7507234 5.3262252,7.9037275 4.7597656,7.9941406 L 4.78125,8.1230469 C 5.3625702,8.0302618 5.7338504,7.868737 5.9609375,7.6679687 6.1880246,7.4672005 6.2347168,7.3189409 6.2266268,7.0915912 6.2104467,6.6368918 5.8035312,6.2385556 5.7346192,6.1599505 Z"
         id="path11514"
         sodipodi:nodetypes="ccssccssc" /><g
         id="g11504"><g
           id="path11506"><path
             style="color:#000000;fill:#ff0c0c;fill-rule:evenodd;stroke:none;stroke-width:0.0655pt;-inkscape-stroke:none"
             d="M 4.3975572,8.1178392 4.9054311,7.7051315 5.0086695,8.3519443 Z"
             id="path11510" /><path
             style="color:#000000;fill:#ff0c0c;fill-rule:evenodd;stroke:none;-inkscape-stroke:none"
             d="m 4.9375,7.6230469 -0.6269531,0.5078125 0.072266,0.027344 0.6816406,0.2617188 z M 4.875,7.7871094 4.953125,8.2832031 4.4863281,8.1035156 Z"
             id="path11512" /></g></g></g><g
       id="path12368"
       style="opacity:1"
       transform="translate(-0.01169304,0.11323696)"><path
         style="color:#000000;fill:#ff0c0c;stroke:none"
         d="m 40.773437,23.183594 c -0.341094,-0.0695 -0.653958,-0.03925 -0.919921,0.03516 -0.265964,0.0744 -0.486149,0.191525 -0.646485,0.292969 -0.08017,0.05072 -0.145147,0.09709 -0.193359,0.132812 -0.02411,0.01786 -0.04373,0.03391 -0.05859,0.04492 -0.01487,0.01101 -0.02833,0.01716 -0.02539,0.01563 l 0.0625,0.117188 c 0.01606,-0.0084 0.02509,-0.0175 0.04102,-0.0293 0.01592,-0.01179 0.03516,-0.0256 0.05859,-0.04297 0.04687,-0.03473 0.109086,-0.08053 0.185547,-0.128906 0.152922,-0.09675 0.361604,-0.205531 0.611328,-0.275391 0.499448,-0.13972 1.159652,-0.123169 1.890625,0.501953 l 0.08594,-0.09961 C 41.485174,23.423018 41.11454,23.253096 40.773445,23.183596 Z"
         id="path12454" /><g
         id="g12444"><g
           id="path12446"><path
             style="color:#000000;fill:#ff0c0c;fill-rule:evenodd;stroke:none;stroke-width:0.0655pt"
             d="M 42.108984,24.042626 41.46554,23.923284 41.891248,23.425492 Z"
             id="path12450" /><path
             style="color:#000000;fill:#ff0c0c;fill-rule:evenodd;stroke:none"
             d="m 41.908203,23.339844 -0.525391,0.613281 0.792969,0.146484 -0.02539,-0.07227 z m -0.0332,0.169922 0.167969,0.476562 -0.496094,-0.0918 z"
             id="path12452" /></g></g></g><path
       style="color:#000000;opacity:1;fill:#ff0c0c;stroke:none;stroke-opacity:1;-inkscape-stroke:none"
       d="m 15.096811,8.7656226 -0.08203,0.1015625 c 0,0 0.346499,0.2841368 0.638672,0.7109375 0.292172,0.4268014 0.521965,0.9846524 0.310547,1.5410164 l 0.123046,0.04687 C 16.319963,10.553073 16.065046,9.948234 15.760874,9.5039039 15.456701,9.0595737 15.096811,8.7656226 15.096811,8.7656226 Z"
       id="path11528-5"
       transform="translate(12.110829,15.207934)" /><path
       style="color:#000000;opacity:0.8;fill:#ff0c0c;fill-rule:evenodd;stroke:none;stroke-width:0.0655pt;stroke-opacity:1;-inkscape-stroke:none"
       d="m 15.89158,11.496302 -0.104884,-0.645958 0.612283,0.232667 z"
       id="path11524-3"
       transform="translate(12.110829,15.207934)" /><path
       style="color:#000000;opacity:1;fill:#ff0c0c;fill-rule:evenodd;stroke:none;stroke-opacity:1;-inkscape-stroke:none"
       d="m 15.731577,10.783201 0.128906,0.794922 0.05859,-0.04883 0.566406,-0.460938 z m 0.109375,0.134766 0.472656,0.177734 -0.390625,0.320313 z"
       id="path11526-0"
       transform="translate(12.110829,15.207934)" /><path
       style="color:#000000;opacity:1;fill:#ff0c0c;stroke:none;stroke-opacity:1;-inkscape-stroke:none"
       d="m 13.259607,5.9724072 -0.09961,0.087891 c 0.05558,0.063398 0.459066,0.455187 0.460757,0.8476559 8.31e-4,0.1930379 -0.02775,0.2957415 -0.222721,0.4748151 -0.196422,0.1804109 -0.546822,0.333415 -1.113281,0.4238281 l 0.02148,0.1289063 C 12.887558,7.8427185 13.258838,7.6811937 13.485925,7.4804254 13.713012,7.2796572 13.759704,7.1313976 13.751614,6.9040479 13.735434,6.4493485 13.328519,6.0510123 13.259607,5.9724072 Z"
       id="path11514-6"
       sodipodi:nodetypes="ccssccssc"
       transform="translate(12.110829,15.207934)" /><path
       style="color:#000000;opacity:0.8;fill:#ff0c0c;fill-rule:evenodd;stroke:none;stroke-width:0.0655pt;stroke-opacity:1;-inkscape-stroke:none"
       d="M 11.922544,7.9302959 12.430418,7.5175882 12.533657,8.164401 Z"
       id="path11510-0"
       transform="translate(12.110829,15.207934)" /><path
       style="color:#000000;opacity:1;fill:#ff0c0c;fill-rule:evenodd;stroke:none;stroke-opacity:1;-inkscape-stroke:none"
       d="m 12.462487,7.4355036 -0.626953,0.5078125 0.07227,0.027344 0.681641,0.2617188 z m -0.0625,0.1640625 0.07813,0.4960937 -0.466797,-0.1796875 z"
       id="path11512-0"
       transform="translate(12.110829,15.207934)" /></g><g
     id="g2215"
     inkscape:label="Start markers"
     transform="translate(0.3968748,0.02454129)"><circle
       r="0.67124546"
       clip-path="none"
       cy="5.5374608"
       cx="26.755886"
       id="circle5433"
       style="opacity:0.6;fill:#00ff00;fill-opacity:1;stroke:none;stroke-width:0.268498;stroke-linecap:round;stroke-linejoin:miter;stroke-miterlimit:4;stroke-dasharray:none;stroke-dashoffset:0;stroke-opacity:1" /><circle
       r="0.67124546"
       clip-path="none"
       cy="5.8452082"
       cx="14.170863"
       id="circle3855"
       style="opacity:0.6;fill:#00ff00;fill-opacity:1;stroke:none;stroke-width:0.268498;stroke-linecap:round;stroke-linejoin:miter;stroke-miterlimit:4;stroke-dasharray:none;stroke-dashoffset:0;stroke-opacity:1"
       transform="translate(-6.7746311,0.01884775)" /><circle
       r="0.67124546"
       clip-path="none"
       cy="9.6950054"
       cx="20.336094"
       id="circle2217"
       style="opacity:0.6;fill:#00ff00;fill-opacity:1;stroke:none;stroke-width:0.268498;stroke-linecap:round;stroke-linejoin:miter;stroke-miterlimit:4;stroke-dasharray:none;stroke-dashoffset:0;stroke-opacity:1" /></g></svg>
