<?xml version="1.0" encoding="UTF-8" standalone="no"?>
<!-- Created with Inkscape (http://www.inkscape.org/) -->

<svg
   width="200"
   height="65"
   viewBox="0 0 52.916666 17.197916"
   version="1.1"
   id="svg5"
   sodipodi:docname="Devanagari_à¤_stroke_order.svg"
   inkscape:version="1.2.1 (9c6d41e410, 2022-07-14)"
   xml:space="preserve"
   xmlns:inkscape="http://www.inkscape.org/namespaces/inkscape"
   xmlns:sodipodi="http://sodipodi.sourceforge.net/DTD/sodipodi-0.dtd"
   xmlns="http://www.w3.org/2000/svg"
   xmlns:svg="http://www.w3.org/2000/svg"><sodipodi:namedview
     id="namedview7"
     pagecolor="#505050"
     bordercolor="#eeeeee"
     borderopacity="1"
     inkscape:showpageshadow="0"
     inkscape:pageopacity="0"
     inkscape:pagecheckerboard="0"
     inkscape:deskcolor="#505050"
     inkscape:document-units="mm"
     showgrid="false"
     inkscape:zoom="55.75366"
     inkscape:cx="133.43519"
     inkscape:cy="22.052364"
     inkscape:window-width="1920"
     inkscape:window-height="991"
     inkscape:window-x="-9"
     inkscape:window-y="-9"
     inkscape:window-maximized="1"
     inkscape:current-layer="g8580"
     showguides="true" /><defs
     id="defs2" /><g
     id="g27340"
     inkscape:label="4"
     transform="translate(1.4552086,1.5230676)"><path
       style="font-size:12.5654px;line-height:0.95;font-family:'Noto Serif Devanagari';-inkscape-font-specification:'Noto Serif Devanagari';text-align:center;text-anchor:middle;stroke-width:0.130759"
       d="m 44.508567,4.2393471 q -0.213612,-0.49005 -0.439789,-0.841881 -0.213612,-0.364397 -0.414658,-0.615705 -0.351831,-0.452354 -0.678532,-0.615705 -0.314135,-0.175915 -0.753924,-0.175915 -0.213612,0 -0.490051,0.06283 -0.263873,0.06283 -0.490051,0.175915 l -0.62827,-1.23140901 q 0.226178,-0.07539 0.502616,-0.138219 0.276439,-0.06283 0.62827,-0.06283 0.477486,0 0.90471,0.175915 0.427223,0.16335101 0.841882,0.56544301 0.414658,0.389528 0.816751,1.055494 0.414658,0.665966 0.854447,1.646067 z"
       id="path27328" /><path
       style="font-size:12.5654px;line-height:0.95;font-family:'Noto Serif Devanagari';-inkscape-font-specification:'Noto Serif Devanagari';text-align:center;text-anchor:middle;stroke-width:0.130759"
       d="m 39.457276,5.0937951 -0.552878,-0.816751 v -0.150785 h 7.363325 l 0.552878,0.841882 v 0.125654 z"
       id="path27326" /><path
       style="font-size:12.5654px;line-height:0.95;font-family:'Noto Serif Devanagari';-inkscape-font-specification:'Noto Serif Devanagari';text-align:center;text-anchor:middle;stroke-width:0.130759"
       d="M 44.546263,9.403727 43.541031,8.7503262 q 0.251308,-0.251308 0.414658,-0.5780081 0.163351,-0.339266 0.163351,-0.854448 v -2.651299 h 1.11832 v 2.890042 q 0,0.62827 -0.213612,1.0806245 -0.201046,0.439789 -0.477485,0.7664894 z"
       id="path27324" /><path
       style="font-size:12.5654px;line-height:0.95;font-family:'Noto Serif Devanagari';-inkscape-font-specification:'Noto Serif Devanagari';text-align:center;text-anchor:middle;stroke-width:0.130759"
       d="m 44.935791,13.964967 -1.156017,-0.477485 q 0.213612,-0.314135 0.314135,-0.578009 0.100523,-0.263873 0.100523,-0.515181 0,-0.364397 -0.238743,-0.615705 -0.238742,-0.251308 -0.753924,-0.578008 L 41.857267,10.371262 Q 41.430043,10.094824 41.128474,9.8309504 40.826904,9.5670772 40.663554,9.2026806 40.512769,8.838284 40.512769,8.2602756 V 4.6665711 h 1.118321 v 3.6439661 q 0,0.4146582 0.06283,0.6785316 0.06283,0.2638734 0.289004,0.502616 0.226177,0.2261776 0.716228,0.5277462 l 1.432456,0.904709 q 0.578008,0.376962 0.904709,0.79162 0.339266,0.414658 0.339266,0.954971 0,0.364396 -0.13822,0.691097 -0.125654,0.3267 -0.301569,0.603139 z"
       id="path27217" /></g><g
     id="g27366"
     inkscape:label="3"
     transform="translate(1.4552086,1.5230676)"><path
       style="font-size:12.5654px;line-height:0.95;font-family:'Noto Serif Devanagari';-inkscape-font-specification:'Noto Serif Devanagari';text-align:center;text-anchor:middle;fill:#c9c9c9;fill-opacity:1;stroke-width:0.130759"
       d="m 27.551026,5.0937951 -0.552878,-0.816751 v -0.150785 h 7.363325 l 0.552878,0.841882 v 0.125654 z"
       id="path27352" /><path
       style="font-size:12.5654px;line-height:0.95;font-family:'Noto Serif Devanagari';-inkscape-font-specification:'Noto Serif Devanagari';text-align:center;text-anchor:middle;stroke-width:0.130759"
       d="M 32.640013,9.403727 31.634781,8.7503262 q 0.251308,-0.251308 0.414658,-0.5780081 0.163351,-0.339266 0.163351,-0.854448 v -2.651299 h 1.11832 v 2.890042 q 0,0.62827 -0.213612,1.0806245 -0.201046,0.439789 -0.477485,0.7664894 z"
       id="path27350" /><path
       style="font-size:12.5654px;line-height:0.95;font-family:'Noto Serif Devanagari';-inkscape-font-specification:'Noto Serif Devanagari';text-align:center;text-anchor:middle;stroke-width:0.130759"
       d="m 33.029541,13.964967 -1.156017,-0.477485 q 0.213612,-0.314135 0.314135,-0.578009 0.100523,-0.263873 0.100523,-0.515181 0,-0.364397 -0.238743,-0.615705 -0.238742,-0.251308 -0.753924,-0.578008 L 29.951017,10.371262 Q 29.523793,10.094824 29.222224,9.8309504 28.920654,9.5670772 28.757304,9.2026806 28.606519,8.838284 28.606519,8.2602756 V 4.6665711 h 1.118321 v 3.6439661 q 0,0.4146582 0.06283,0.6785316 0.06283,0.2638734 0.289004,0.502616 0.226177,0.2261776 0.716228,0.5277462 l 1.432456,0.904709 q 0.578008,0.376962 0.904709,0.79162 0.339266,0.414658 0.339266,0.954971 0,0.364396 -0.13822,0.691097 -0.125654,0.3267 -0.301569,0.603139 z"
       id="path27209" /><path
       style="font-size:12.5654px;line-height:0.95;font-family:'Noto Serif Devanagari';-inkscape-font-specification:'Noto Serif Devanagari';text-align:center;text-anchor:middle;stroke-width:0.130759"
       d="m 32.602317,4.2393471 q -0.213612,-0.49005 -0.439789,-0.841881 -0.213612,-0.364397 -0.414658,-0.615705 -0.351831,-0.452354 -0.678532,-0.615705 -0.314135,-0.175915 -0.753924,-0.175915 -0.213612,0 -0.490051,0.06283 -0.263873,0.06283 -0.490051,0.175915 l -0.62827,-1.23140901 q 0.226178,-0.07539 0.502616,-0.138219 0.276439,-0.06283 0.62827,-0.06283 0.477486,0 0.90471,0.175915 0.427223,0.16335101 0.841882,0.56544301 0.414658,0.389528 0.816751,1.055494 0.414658,0.665966 0.854447,1.646067 z"
       id="path27354" /></g><g
     id="g27392"
     inkscape:label="2"
     transform="translate(1.4552086,1.5230676)"><path
       style="font-size:12.5654px;line-height:0.95;font-family:'Noto Serif Devanagari';-inkscape-font-specification:'Noto Serif Devanagari';text-align:center;text-anchor:middle;fill:#c9c9c9;fill-opacity:1;stroke-width:0.130759"
       d="m 20.696067,4.2393471 q -0.213612,-0.49005 -0.439789,-0.841881 -0.213612,-0.364397 -0.414658,-0.615705 -0.351831,-0.452354 -0.678532,-0.615705 -0.314135,-0.175915 -0.753924,-0.175915 -0.213612,0 -0.490051,0.06283 -0.263873,0.06283 -0.490051,0.175915 l -0.62827,-1.23140901 q 0.226178,-0.07539 0.502616,-0.138219 0.276439,-0.06283 0.62827,-0.06283 0.477486,0 0.90471,0.175915 0.427223,0.16335101 0.841882,0.56544301 0.414658,0.389528 0.816751,1.055494 0.414658,0.665966 0.854447,1.646067 z"
       id="path27380" /><path
       style="font-size:12.5654px;line-height:0.95;font-family:'Noto Serif Devanagari';-inkscape-font-specification:'Noto Serif Devanagari';text-align:center;text-anchor:middle;fill:#c9c9c9;fill-opacity:1;stroke-width:0.130759"
       d="m 15.644776,5.0937951 -0.552878,-0.816751 v -0.150785 h 7.363325 l 0.552878,0.841882 v 0.125654 z"
       id="path27378" /><path
       style="font-size:12.5654px;line-height:0.95;font-family:'Noto Serif Devanagari';-inkscape-font-specification:'Noto Serif Devanagari';text-align:center;text-anchor:middle;stroke-width:0.130759"
       d="M 20.733763,9.403727 19.728531,8.7503262 q 0.251308,-0.251308 0.414658,-0.5780081 0.163351,-0.339266 0.163351,-0.854448 v -2.651299 h 1.11832 v 2.890042 q 0,0.62827 -0.213612,1.0806245 -0.201046,0.439789 -0.477485,0.7664894 z"
       id="path27376" /><path
       style="font-size:12.5654px;line-height:0.95;font-family:'Noto Serif Devanagari';-inkscape-font-specification:'Noto Serif Devanagari';text-align:center;text-anchor:middle;stroke-width:0.130759"
       d="m 21.123291,13.964967 -1.156017,-0.477485 q 0.213612,-0.314135 0.314135,-0.578009 0.100523,-0.263873 0.100523,-0.515181 0,-0.364397 -0.238743,-0.615705 -0.238742,-0.251308 -0.753924,-0.578008 L 18.044767,10.371262 Q 17.617543,10.094824 17.315974,9.8309504 17.014404,9.5670772 16.851054,9.2026806 16.700269,8.838284 16.700269,8.2602756 V 4.6665711 h 1.118321 v 3.6439661 q 0,0.4146582 0.06283,0.6785316 0.06283,0.2638734 0.289004,0.502616 0.226177,0.2261776 0.716228,0.5277462 l 1.432456,0.904709 q 0.578008,0.376962 0.904709,0.79162 0.339266,0.414658 0.339266,0.954971 0,0.364396 -0.13822,0.691097 -0.125654,0.3267 -0.301569,0.603139 z"
       id="path27201" /></g><g
     id="g27314"
     inkscape:label="1"
     transform="translate(1.4552086,1.5230676)"><path
       style="font-size:12.5654px;line-height:0.95;font-family:'Noto Serif Devanagari';-inkscape-font-specification:'Noto Serif Devanagari';text-align:center;text-anchor:middle;fill:#c9c9c9;fill-opacity:1;stroke-width:0.130759"
       d="M 8.7898171,4.2393471 Q 8.5762052,3.7492971 8.350028,3.3974661 8.1364162,3.0330691 7.9353698,2.7817611 7.5835386,2.3294071 7.2568382,2.1660561 6.9427032,1.9901411 6.5029145,1.9901411 q -0.213612,0 -0.490051,0.06283 -0.263873,0.06283 -0.490051,0.175915 l -0.62827,-1.23140901 q 0.226178,-0.07539 0.502616,-0.138219 0.276439,-0.06283 0.62827,-0.06283 0.477486,0 0.9047093,0.175915 0.4272236,0.16335101 0.8418818,0.56544301 0.4146582,0.389528 0.816751,1.055494 0.4146585,0.665966 0.8544475,1.646067 z"
       id="path27302" /><path
       style="font-size:12.5654px;line-height:0.95;font-family:'Noto Serif Devanagari';-inkscape-font-specification:'Noto Serif Devanagari';text-align:center;text-anchor:middle;fill:#c9c9c9;fill-opacity:1;stroke-width:0.130759"
       d="m 3.7385265,5.0937951 -0.552878,-0.816751 v -0.150785 h 7.3633245 l 0.552878,0.841882 v 0.125654 z"
       id="path27300" /><path
       style="font-size:12.5654px;line-height:0.95;font-family:'Noto Serif Devanagari';-inkscape-font-specification:'Noto Serif Devanagari';text-align:center;text-anchor:middle;fill:#c9c9c9;fill-opacity:1;stroke-width:0.130759"
       d="M 8.8275131,9.403727 7.8222812,8.7503262 q 0.251308,-0.251308 0.4146582,-0.5780081 0.1633502,-0.339266 0.1633502,-0.854448 v -2.651299 h 1.1183205 v 2.890042 q 0,0.62827 -0.213612,1.0806245 -0.201046,0.439789 -0.477485,0.7664894 z"
       id="path27298" /><path
       style="font-size:12.5654px;line-height:0.95;font-family:'Noto Serif Devanagari';-inkscape-font-specification:'Noto Serif Devanagari';text-align:center;text-anchor:middle;stroke-width:0.130759"
       d="M 9.2170411,13.964967 8.0610238,13.487482 Q 8.2746356,13.173347 8.3751588,12.909473 8.475682,12.6456 8.475682,12.394292 q 0,-0.364397 -0.2387426,-0.615705 -0.2387426,-0.251308 -0.753924,-0.578008 L 6.1385175,10.371262 Q 5.7112935,10.094824 5.4097245,9.8309504 5.1081545,9.5670772 4.9448045,9.2026806 4.7940195,8.838284 4.7940195,8.2602756 V 4.6665711 h 1.118321 v 3.6439661 q 0,0.4146582 0.06283,0.6785316 0.06283,0.2638734 0.289004,0.502616 0.226177,0.2261776 0.7162279,0.5277462 L 8.412858,10.92414 q 0.5780081,0.376962 0.9047091,0.79162 0.339266,0.414658 0.339266,0.954971 0,0.364396 -0.13822,0.691097 -0.125654,0.3267 -0.301569,0.603139 z"
       id="path1036" /></g><g
     id="g18308"
     inkscape:label="Arrows"
     transform="translate(-16.802185,-14.639836)"
     style="opacity:0.8;stroke:#ff0c0c;stroke-opacity:1"><g
       id="path23836-2"
       style="opacity:0.8;stroke:none"
       transform="translate(18.257394,16.162904)"><path
         style="color:#000000;fill:#ff0c0c;stroke:none"
         d="m 4.1523437,5.3515625 v 3.0410156 0.00195 c 0.1020292,1.2359221 0.608219,2.0209169 1.4140625,2.4414069 L 5.6269532,10.7207 C 4.8608437,10.320947 4.3835268,9.5915249 4.2832031,8.3886719 v -0.00391 -3.0332031 z"
         id="path5993" /><g
         id="g5983"
         style="stroke:none"><g
           id="path5985"
           style="stroke:none"><path
             style="color:#000000;fill:#ff0c0c;fill-rule:evenodd;stroke:none;stroke-width:0.0655pt"
             d="M 5.9316416,10.953629 5.2778331,10.981879 5.5808418,10.40118 Z"
             id="path5989" /><path
             style="color:#000000;fill:#ff0c0c;fill-rule:evenodd;stroke:none"
             d="m 5.5761719,10.314453 -0.3710938,0.714844 0.8046875,-0.03516 -0.041016,-0.06445 z m 0.00977,0.171875 0.2695312,0.427735 -0.5039062,0.01953 z"
             id="path5991" /></g></g></g><g
       id="path23864-7"
       style="opacity:0.8;stroke:none"
       transform="translate(18.257394,16.162904)"><path
         style="color:#000000;fill:#ff0c0c;stroke:none"
         d="m 9.3359375,10.974609 -0.064453,0.115235 c 0,0 0.3433335,0.192254 0.6074219,0.582031 0.2640886,0.389777 0.4506996,0.967613 0.1249996,1.767578 L 10.125,13.488281 C 10.465802,12.651223 10.270842,12.014698 9.9882813,11.597656 9.7057205,11.180615 9.3359375,10.974609 9.3359375,10.974609 Z"
         id="path6007" /><g
         id="g5997"
         style="stroke:none"><g
           id="path5999"
           style="stroke:none"><path
             style="color:#000000;fill:#ff0c0c;fill-rule:evenodd;stroke:none;stroke-width:0.0655pt"
             d="m 9.9211737,13.814397 -0.089675,-0.648245 0.6066463,0.246992 z"
             id="path6003" /><path
             style="color:#000000;fill:#ff0c0c;fill-rule:evenodd;stroke:none"
             d="m 9.7773438,13.097656 0.1113281,0.796875 0.058594,-0.04492 0.5781251,-0.449218 z m 0.1074218,0.138672 0.4667974,0.189453 -0.3964849,0.306641 z"
             id="path6005" /></g></g></g><g
       id="path23890-9"
       style="opacity:0.8;stroke:none"
       transform="translate(18.257394,16.162904)"><path
         style="color:#000000;fill:#ff0c0c;stroke:none"
         d="m 22.042969,5.3515625 v 2.3007812 0.00195 c 0.0044,0.4539967 -0.144283,0.8182384 -0.333985,1.1933594 L 21.826172,8.90625 C 22.019028,8.5248923 22.178468,8.1355106 22.173828,7.6523437 V 5.3515625 Z"
         id="path6021" /><g
         id="g6011"
         style="stroke:none"><g
           id="path6013"
           style="stroke:none"><path
             style="color:#000000;fill:#ff0c0c;fill-rule:evenodd;stroke:none;stroke-width:0.0655pt"
             d="M 21.597279,9.2145268 21.560711,8.5611309 22.14522,8.8567221 Z"
             id="path6017" /><path
             style="color:#000000;fill:#ff0c0c;fill-rule:evenodd;stroke:none"
             d="m 21.513672,8.4882813 0.04492,0.8046875 0.0625,-0.041016 0.611328,-0.4003906 z m 0.09375,0.1445312 0.449219,0.2285156 -0.419922,0.2753907 z"
             id="path6019" /></g></g></g><g
       id="path8575"
       style="opacity:0.8;stroke:none"
       transform="translate(17.463644,16.030612)"><path
         style="color:#000000;fill:#ff0000;stroke:none"
         d="m 39.699218,3.6523438 v 0.1308593 h 3.193359 V 3.6523438 Z"
         id="path8683" /><g
         id="g8673"
         style="stroke:none"><g
           id="path8675"
           style="stroke:none"><path
             style="color:#000000;fill:#ff0000;fill-rule:evenodd;stroke:none;stroke-width:0.0655pt"
             d="m 43.270358,3.7185816 -0.566575,0.3275 v -0.655 z"
             id="path8679" /><path
             style="color:#000000;fill:#ff0000;fill-rule:evenodd;stroke:none"
             d="M 42.660155,3.3144531 V 4.1210937 L 43.357421,3.71875 43.292968,3.6816406 Z m 0.08789,0.1542969 0.435547,0.25 -0.09055,0.051978 -0.344992,0.1980222 z"
             id="path8681"
             sodipodi:nodetypes="cccccccccc" /></g></g></g><g
       id="path9739"
       style="opacity:0.8;stroke:none;stroke-opacity:1"
       transform="translate(18.125102,14.689562)"><path
         style="color:#000000;fill:#ff0c0c;-inkscape-stroke:none"
         d="m 31.304687,1.9296875 -0.0332,0.1269531 c 0.637254,0.1629384 1.245727,0.83138 1.707032,1.5058594 0.461304,0.6744794 0.775473,1.343706 0.865234,1.5117187 l 0.115234,-0.0625 C 33.877736,4.8596404 33.554353,4.1751111 33.085937,3.4902344 32.617522,2.8053576 32.004462,2.1086118 31.304687,1.9296875 Z"
         id="path9853" /><g
         id="g9843"><g
           id="path9845"><path
             style="color:#000000;fill:#ff0c0c;fill-rule:evenodd;stroke-width:0.0655pt;-inkscape-stroke:none"
             d="m 30.921739,1.8996226 0.630043,-0.176941 -0.162256,0.6345849 z"
             id="path9849" /><path
             style="color:#000000;fill:#ff0c0c;fill-rule:evenodd;-inkscape-stroke:none"
             d="m 31.613281,1.6601562 -0.77539,0.21875 0.05273,0.052734 0.521484,0.5097657 z m -0.123047,0.1269532 -0.125,0.4863281 -0.359375,-0.3515625 z"
             id="path9851" /></g></g></g></g><g
     id="g8580"
     inkscape:label="Start markers"
     transform="translate(0.66145858,1.3907764)"><circle
       r="0.67124546"
       clip-path="none"
       cy="4.6959333"
       cx="40.051674"
       id="circle5433"
       style="opacity:0.6;fill:#00ff00;fill-opacity:1;stroke:none;stroke-width:0.268498;stroke-linecap:round;stroke-linejoin:miter;stroke-miterlimit:4;stroke-dasharray:none;stroke-dashoffset:0;stroke-opacity:1" /><circle
       r="0.67124546"
       clip-path="none"
       cy="4.8042927"
       cx="6.1498671"
       id="circle13043"
       style="opacity:0.6;fill:#00ff00;fill-opacity:1;stroke:none;stroke-width:0.268498;stroke-linecap:round;stroke-linejoin:miter;stroke-miterlimit:4;stroke-dasharray:none;stroke-dashoffset:0;stroke-opacity:1" /><circle
       r="0.67124546"
       clip-path="none"
       cy="4.8357062"
       cx="21.659447"
       id="circle8587"
       style="opacity:0.6;fill:#00ff00;fill-opacity:1;stroke:none;stroke-width:0.268498;stroke-linecap:round;stroke-linejoin:miter;stroke-miterlimit:4;stroke-dasharray:none;stroke-dashoffset:0;stroke-opacity:1" /><circle
       r="0.67124546"
       clip-path="none"
       cy="4.2772303"
       cx="33.685688"
       id="circle10113"
       style="opacity:0.6;fill:#00ff00;fill-opacity:1;stroke:none;stroke-width:0.268498;stroke-linecap:round;stroke-linejoin:miter;stroke-miterlimit:4;stroke-dasharray:none;stroke-dashoffset:0;stroke-opacity:1" /></g></svg>
