<?xml version="1.0" encoding="UTF-8" standalone="no"?>
<!-- Created with Inkscape (http://www.inkscape.org/) -->

<svg
   width="100"
   height="65"
   viewBox="0 0 26.458333 17.197916"
   version="1.1"
   id="svg5"
   sodipodi:docname="Devanagari_उ_stroke_order.svg"
   inkscape:version="1.2.1 (9c6d41e410, 2022-07-14)"
   xml:space="preserve"
   xmlns:inkscape="http://www.inkscape.org/namespaces/inkscape"
   xmlns:sodipodi="http://sodipodi.sourceforge.net/DTD/sodipodi-0.dtd"
   xmlns:xlink="http://www.w3.org/1999/xlink"
   xmlns="http://www.w3.org/2000/svg"
   xmlns:svg="http://www.w3.org/2000/svg"><sodipodi:namedview
     id="namedview7"
     pagecolor="#505050"
     bordercolor="#eeeeee"
     borderopacity="1"
     inkscape:showpageshadow="0"
     inkscape:pageopacity="0"
     inkscape:pagecheckerboard="0"
     inkscape:deskcolor="#505050"
     inkscape:document-units="mm"
     showgrid="false"
     inkscape:zoom="8.0000001"
     inkscape:cx="59.312499"
     inkscape:cy="23.9375"
     inkscape:window-width="1920"
     inkscape:window-height="991"
     inkscape:window-x="-9"
     inkscape:window-y="-9"
     inkscape:window-maximized="1"
     inkscape:current-layer="svg5"
     showguides="true" /><defs
     id="defs2"><linearGradient
       inkscape:collect="always"
       id="linearGradient3840"><stop
         style="stop-color:#ff0c0c;stop-opacity:1;"
         offset="0"
         id="stop3836" /><stop
         style="stop-color:#ff0c0c;stop-opacity:0;"
         offset="1"
         id="stop3838" /></linearGradient><radialGradient
       inkscape:collect="always"
       xlink:href="#linearGradient3840"
       id="radialGradient3842"
       cx="37.284012"
       cy="19.750045"
       fx="37.284012"
       fy="19.750045"
       r="1.089692"
       gradientTransform="matrix(1,0,0,1.1646924,0,-3.2526815)"
       gradientUnits="userSpaceOnUse" /></defs><g
     id="g11348"
     inkscape:label="2"
     transform="translate(6.1235761,0.15019347)"><path
       style="font-size:12.5654px;line-height:0.95;font-family:'Noto Serif Devanagari';-inkscape-font-specification:'Noto Serif Devanagari';text-align:center;text-anchor:middle;opacity:1;fill:#000000;fill-opacity:1;stroke:none;stroke-width:0.130759;stroke-opacity:1"
       d="M 10.067085,21.256701 9.5142068,20.43995 V 20.289165 H 16.33722 l 0.540312,0.841882 v 0.125654 z"
       transform="translate(-0.13715384,-15.207934)"
       id="path11338" /><path
       style="font-size:12.5654px;line-height:0.95;font-family:'Noto Serif Devanagari';-inkscape-font-specification:'Noto Serif Devanagari';text-align:center;text-anchor:middle;opacity:1;stroke:none;stroke-width:0.130759;stroke-opacity:1"
       d="m 12.8943,24.699621 -0.515182,-1.042929 q 0.967537,-0.213611 1.520414,-0.578008 0.552878,-0.376962 0.552878,-0.904709 0,-0.339266 -0.150785,-0.603139 -0.138219,-0.263873 -0.439789,-0.515181 l 0.741359,-0.0377 q 0.3267,0.276438 0.527746,0.703662 0.213612,0.414658 0.213612,0.92984 0,0.716227 -0.615704,1.25654 -0.60314,0.527746 -1.834549,0.79162 z"
       transform="translate(-0.13715384,-15.207934)"
       id="path11340" /><path
       style="font-size:12.5654px;line-height:0.95;font-family:'Noto Serif Devanagari';-inkscape-font-specification:'Noto Serif Devanagari';text-align:center;text-anchor:middle;opacity:1;stroke:none;stroke-width:0.130759;stroke-opacity:1"
       d="m 13.748747,27.966625 q -0.62827,0 -1.231409,-0.3267 -0.590574,-0.339266 -1.143452,-1.080625 -0.552877,-0.741358 -1.042928,-1.935072 l 0.578009,-0.238742 q 0.201046,0.452354 0.452354,0.892143 0.263873,0.427224 0.578008,0.779055 0.314135,0.351831 0.678532,0.565443 0.376962,0.201047 0.816751,0.201047 0.60314,0 0.904709,-0.326701 0.314135,-0.3267 0.314135,-0.779055 0,-0.477485 -0.238742,-0.892143 -0.226178,-0.427224 -0.62827,-0.753924 l 0.502616,-0.276439 q 0.665966,0.49005 1.030362,1.11832 0.364397,0.615705 0.364397,1.243975 0,0.867013 -0.565443,1.344498 -0.552878,0.46492 -1.369629,0.46492 z"
       transform="translate(-0.13715384,-15.207934)"
       id="path11342" /></g><g
     id="g4913"
     inkscape:label="1"
     transform="translate(-5.7826739,0.15019347)"><path
       style="font-size:12.5654px;line-height:0.95;font-family:'Noto Serif Devanagari';-inkscape-font-specification:'Noto Serif Devanagari';text-align:center;text-anchor:middle;opacity:1;fill:#c9c9c9;fill-opacity:1;stroke:none;stroke-width:0.130759;stroke-opacity:1"
       d="M 10.067085,21.256701 9.5142068,20.43995 V 20.289165 H 16.33722 l 0.540312,0.841882 v 0.125654 z"
       transform="translate(-0.13715384,-15.207934)"
       id="path11322" /><path
       style="font-size:12.5654px;line-height:0.95;font-family:'Noto Serif Devanagari';-inkscape-font-specification:'Noto Serif Devanagari';text-align:center;text-anchor:middle;opacity:1;stroke:none;stroke-width:0.130759;stroke-opacity:1"
       d="m 12.8943,24.699621 -0.515182,-1.042929 q 0.967537,-0.213611 1.520414,-0.578008 0.552878,-0.376962 0.552878,-0.904709 0,-0.339266 -0.150785,-0.603139 -0.138219,-0.263873 -0.439789,-0.515181 l 0.741359,-0.0377 q 0.3267,0.276438 0.527746,0.703662 0.213612,0.414658 0.213612,0.92984 0,0.716227 -0.615704,1.25654 -0.60314,0.527746 -1.834549,0.79162 z"
       transform="translate(-0.13715384,-15.207934)"
       id="path11320" /><path
       style="font-size:12.5654px;line-height:0.95;font-family:'Noto Serif Devanagari';-inkscape-font-specification:'Noto Serif Devanagari';text-align:center;text-anchor:middle;opacity:1;stroke:none;stroke-width:0.130759;stroke-opacity:1"
       d="m 13.748747,27.966625 q -0.62827,0 -1.231409,-0.3267 -0.590574,-0.339266 -1.143452,-1.080625 -0.552877,-0.741358 -1.042928,-1.935072 l 0.578009,-0.238742 q 0.201046,0.452354 0.452354,0.892143 0.263873,0.427224 0.578008,0.779055 0.314135,0.351831 0.678532,0.565443 0.376962,0.201047 0.816751,0.201047 0.60314,0 0.904709,-0.326701 0.314135,-0.3267 0.314135,-0.779055 0,-0.477485 -0.238742,-0.892143 -0.226178,-0.427224 -0.62827,-0.753924 l 0.502616,-0.276439 q 0.665966,0.49005 1.030362,1.11832 0.364397,0.615705 0.364397,1.243975 0,0.867013 -0.565443,1.344498 -0.552878,0.46492 -1.369629,0.46492 z"
       transform="translate(-0.13715384,-15.207934)"
       id="path996" /></g><g
     id="g18308"
     inkscape:label="Arrows"
     transform="translate(-17.893503,-15.057741)"
     style="opacity:0.8;stroke:#ff0c0c;stroke-opacity:1"><g
       id="path11258"
       transform="translate(12.110829,15.207934)"><path
         style="color:#000000;fill:#ff0c0c;stroke:none;-inkscape-stroke:none"
         d="m 15.109375,8.765625 -0.08203,0.1015625 c 0,0 0.346499,0.2841368 0.638672,0.7109375 0.292172,0.426801 0.521965,0.984652 0.310547,1.541016 l 0.123046,0.04687 C 16.332527,10.553075 16.07761,9.9482364 15.773438,9.5039063 15.469265,9.0595761 15.109375,8.765625 15.109375,8.765625 Z"
         id="path11528" /><g
         id="g11518"><g
           id="path11520"><path
             style="color:#000000;fill:#ff0c0c;fill-rule:evenodd;stroke:none;stroke-width:0.0655pt;-inkscape-stroke:none"
             d="m 15.904144,11.496304 -0.104884,-0.645958 0.612283,0.232667 z"
             id="path11524" /><path
             style="color:#000000;fill:#ff0c0c;fill-rule:evenodd;stroke:none;-inkscape-stroke:none"
             d="m 15.744141,10.783203 0.128906,0.794922 0.05859,-0.04883 0.566406,-0.460938 z m 0.109375,0.134766 0.472656,0.177734 -0.390625,0.320313 z"
             id="path11526" /></g></g></g><g
       id="path11427"
       transform="translate(19.648381,15.020393)"><path
         style="color:#000000;fill:#ff0c0c;stroke:none;-inkscape-stroke:none"
         d="m 5.7346192,6.1599505 -0.099609,0.087891 c 0.05558,0.063398 0.4590669,0.455187 0.4607572,0.8476559 C 6.0965988,7.2885353 6.0680135,7.3912389 5.8730469,7.5703125 5.6766243,7.7507234 5.3262252,7.9037275 4.7597656,7.9941406 L 4.78125,8.1230469 C 5.3625702,8.0302618 5.7338504,7.868737 5.9609375,7.6679687 6.1880246,7.4672005 6.2347168,7.3189409 6.2266268,7.0915912 6.2104467,6.6368918 5.8035312,6.2385556 5.7346192,6.1599505 Z"
         id="path11514"
         sodipodi:nodetypes="ccssccssc" /><g
         id="g11504"><g
           id="path11506"><path
             style="color:#000000;fill:#ff0c0c;fill-rule:evenodd;stroke:none;stroke-width:0.0655pt;-inkscape-stroke:none"
             d="M 4.3975572,8.1178392 4.9054311,7.7051315 5.0086695,8.3519443 Z"
             id="path11510" /><path
             style="color:#000000;fill:#ff0c0c;fill-rule:evenodd;stroke:none;-inkscape-stroke:none"
             d="m 4.9375,7.6230469 -0.6269531,0.5078125 0.072266,0.027344 0.6816406,0.2617188 z M 4.875,7.7871094 4.953125,8.2832031 4.4863281,8.1035156 Z"
             id="path11512" /></g></g></g><g
       id="g3853"
       inkscape:label="path3853"
       transform="translate(-0.33924994)"><path
         style="color:#000000;opacity:1;fill:#ff0000;fill-opacity:1;stroke:none"
         d="m 33.733382,19.684664 v 0.130859 h 3.19336 v -0.130859 z"
         id="path7537" /><path
         style="color:#000000;opacity:1;fill:#ff0c0c;fill-rule:evenodd;stroke-width:0.0655pt"
         d="m 37.304693,19.750483 -0.566575,0.3275 v -0.655 z"
         id="path7533" /><path
         style="color:#000000;opacity:0.8;fill:url(#radialGradient3842);fill-opacity:1;fill-rule:evenodd;stroke:none"
         d="m 36.69432,19.346773 v 0.806641 l 0.697265,-0.402344 -0.06445,-0.03906 z m 0.08789,0.152344 0.433594,0.251953 -0.433594,0.25 z"
         id="path7535" /></g></g><g
     id="g3848"
     inkscape:label="Start markers"
     transform="translate(-0.39687498,0.0245406)"><circle
       r="0.67124546"
       clip-path="none"
       cy="20.726549"
       cx="33.747662"
       id="circle5433"
       style="opacity:0.6;fill:#00ff00;fill-opacity:1;stroke:none;stroke-width:0.268498;stroke-linecap:round;stroke-linejoin:miter;stroke-miterlimit:4;stroke-dasharray:none;stroke-dashoffset:0;stroke-opacity:1"
       transform="translate(-17.496628,-15.082281)" /><circle
       r="0.67124546"
       clip-path="none"
       cy="20.726549"
       cx="33.747662"
       id="circle3855"
       style="opacity:0.6;fill:#00ff00;fill-opacity:1;stroke:none;stroke-width:0.268498;stroke-linecap:round;stroke-linejoin:miter;stroke-miterlimit:4;stroke-dasharray:none;stroke-dashoffset:0;stroke-opacity:1"
       transform="translate(-24.950033,-14.755686)" /></g></svg>
