<?xml version="1.0" encoding="UTF-8" standalone="no"?>
<!-- Created with Inkscape (http://www.inkscape.org/) -->

<svg
   width="250"
   height="65"
   viewBox="0 0 66.145832 17.197916"
   version="1.1"
   id="svg5"
   sodipodi:docname="Devanagari_ऋ_stroke_order.svg"
   inkscape:version="1.2.1 (9c6d41e410, 2022-07-14)"
   xml:space="preserve"
   xmlns:inkscape="http://www.inkscape.org/namespaces/inkscape"
   xmlns:sodipodi="http://sodipodi.sourceforge.net/DTD/sodipodi-0.dtd"
   xmlns="http://www.w3.org/2000/svg"
   xmlns:svg="http://www.w3.org/2000/svg"><sodipodi:namedview
     id="namedview7"
     pagecolor="#505050"
     bordercolor="#eeeeee"
     borderopacity="1"
     inkscape:showpageshadow="0"
     inkscape:pageopacity="0"
     inkscape:pagecheckerboard="0"
     inkscape:deskcolor="#505050"
     inkscape:document-units="mm"
     showgrid="false"
     inkscape:zoom="32"
     inkscape:cx="111.42187"
     inkscape:cy="32.109375"
     inkscape:window-width="1920"
     inkscape:window-height="991"
     inkscape:window-x="-9"
     inkscape:window-y="-9"
     inkscape:window-maximized="1"
     inkscape:current-layer="svg5"
     showguides="true" /><defs
     id="defs2" /><g
     id="g20759"
     inkscape:label="4"
     transform="translate(51.700415,-0.30551356)"
     style="fill:#c9c9c9;fill-opacity:1"><path
       style="font-size:12.5654px;line-height:0.95;font-family:'Noto Serif Devanagari';-inkscape-font-specification:'Noto Serif Devanagari';text-align:center;text-anchor:middle;fill:#000000;fill-opacity:1;stroke-width:0.130759"
       d="m 9.1741265,9.6110561 q -0.06283,0 -0.150784,-0.012565 -0.07539,-0.012565 -0.125654,-0.012565 V 8.9953515 Q 9.5636545,8.9702205 9.9908773,8.7440434 10.430666,8.5053008 10.631713,8.166035 l 0.01257,0.314135 Q 10.54376,8.3419506 10.468368,8.1786004 10.405538,8.0026848 10.405538,7.789073 q 0,-0.3392658 0.226177,-0.5528776 0.226177,-0.2261772 0.578008,-0.2261772 0.402093,0 0.640836,0.2764388 0.238742,0.2764388 0.238742,0.6408354 0,0.3895274 -0.276439,0.7036624 -0.27644,0.3141351 -0.716229,0.5277469 -0.439789,0.2136118 -0.954971,0.3392658 -0.5026155,0.1130886 -0.9675355,0.1130886 z"
       transform="translate(-5.1316188,-0.01884775)"
       id="path21721" /><path
       style="font-size:12.5654px;line-height:0.95;font-family:'Noto Serif Devanagari';-inkscape-font-specification:'Noto Serif Devanagari';text-align:center;text-anchor:middle;fill:#000000;fill-opacity:1;stroke-width:0.130759"
       d="m 12.189822,12.87806 q -0.477485,0 -0.854447,-0.16335 -0.376962,-0.16335 -0.703662,-0.46492 -0.263874,-0.251308 -0.414658,-0.515181 -0.13822,-0.276439 -0.13822,-0.62827 0,-0.490051 0.364397,-0.867013 0.376962,-0.3769619 1.193713,-0.7413585 l -0.01257,0.3267004 -0.753924,-0.9172742 0.615705,-0.3392659 1.193713,1.5078482 q -0.967536,0.389527 -1.369629,0.766489 -0.402092,0.364397 -0.402092,0.678532 0,0.238743 0.150784,0.389527 0.163351,0.13822 0.439789,0.13822 0.402093,0 0.76649,-0.150785 0.364396,-0.150785 0.678531,-0.389527 l 0.552878,0.929839 q -0.276439,0.213612 -0.615705,0.326701 -0.3267,0.113088 -0.691097,0.113088 z"
       transform="translate(-5.1316188,-0.01884775)"
       id="path21719" /><path
       style="font-size:12.5654px;line-height:0.95;font-family:'Noto Serif Devanagari';-inkscape-font-specification:'Noto Serif Devanagari';text-align:center;text-anchor:middle;fill:#000000;fill-opacity:1;stroke-width:0.130759"
       d="M 8.9228185,13.028845 7.9301525,12.337748 V 5.6780858 h 1.130886 v 7.3507592 z"
       transform="translate(-5.1316188,-0.01884775)"
       id="path21717" /><path
       style="font-size:12.5654px;line-height:0.95;font-family:'Noto Serif Devanagari';-inkscape-font-specification:'Noto Serif Devanagari';text-align:center;text-anchor:middle;fill:#000000;fill-opacity:1;stroke-width:0.130759"
       d="M 5.0401105,12.073875 4.2359245,11.106339 7.8296295,9.1712671 7.7793675,9.5105329 Q 7.4401015,9.0958747 7.1636625,8.8445667 6.8872245,8.5932586 6.6107855,8.48017 6.3469115,8.354516 5.9825155,8.354516 q -0.339266,0 -0.741359,0.1507848 -0.389527,0.1382194 -0.829316,0.3895275 L 3.6579165,7.7136806 q 0.477485,-0.2261772 0.942405,-0.3643966 0.46492,-0.1507848 0.867012,-0.1507848 0.490051,0 0.892144,0.1507848 0.402093,0.1507848 0.829316,0.5528776 0.427224,0.3895274 0.980101,1.1057553 v 1.1057551 z"
       transform="translate(-5.1316188,-0.01884775)"
       id="path20757" /><path
       style="font-size:12.5654px;line-height:0.95;font-family:'Noto Serif Devanagari';-inkscape-font-specification:'Noto Serif Devanagari';text-align:center;text-anchor:middle;fill:#000000;fill-opacity:1;stroke-width:0.130759"
       d="M 3.1427345,6.0676132 2.5898575,5.2508622 V 5.1000774 H 13.53432 l 0.540313,0.8418818 v 0.125654 z"
       transform="translate(-5.1316188,-0.01884775)"
       id="path21723" /></g><g
     id="g20755"
     inkscape:label="3"
     transform="translate(37.148331,-0.30551356)"
     style="fill:#c9c9c9;fill-opacity:1"><path
       style="font-size:12.5654px;line-height:0.95;font-family:'Noto Serif Devanagari';-inkscape-font-specification:'Noto Serif Devanagari';text-align:center;text-anchor:middle;fill:#000000;fill-opacity:1;stroke-width:0.130759"
       d="m 9.1741265,9.6110561 q -0.06283,0 -0.150784,-0.012565 -0.07539,-0.012565 -0.125654,-0.012565 V 8.9953515 Q 9.5636545,8.9702205 9.9908773,8.7440434 10.430666,8.5053008 10.631713,8.166035 l 0.01257,0.314135 Q 10.54376,8.3419506 10.468368,8.1786004 10.405538,8.0026848 10.405538,7.789073 q 0,-0.3392658 0.226177,-0.5528776 0.226177,-0.2261772 0.578008,-0.2261772 0.402093,0 0.640836,0.2764388 0.238742,0.2764388 0.238742,0.6408354 0,0.3895274 -0.276439,0.7036624 -0.27644,0.3141351 -0.716229,0.5277469 -0.439789,0.2136118 -0.954971,0.3392658 -0.5026155,0.1130886 -0.9675355,0.1130886 z"
       transform="translate(-5.1316188,-0.01884775)"
       id="path21711" /><path
       style="font-size:12.5654px;line-height:0.95;font-family:'Noto Serif Devanagari';-inkscape-font-specification:'Noto Serif Devanagari';text-align:center;text-anchor:middle;fill:#000000;fill-opacity:1;stroke:none;stroke-width:0.130759"
       d="m 12.189822,12.87806 q -0.477485,0 -0.854447,-0.16335 -0.376962,-0.16335 -0.703662,-0.46492 -0.263874,-0.251308 -0.414658,-0.515181 -0.13822,-0.276439 -0.13822,-0.62827 0,-0.490051 0.364397,-0.867013 0.376962,-0.3769619 1.193713,-0.7413585 l -0.01257,0.3267004 -0.753924,-0.9172742 0.615705,-0.3392659 1.193713,1.5078482 q -0.967536,0.389527 -1.369629,0.766489 -0.402092,0.364397 -0.402092,0.678532 0,0.238743 0.150784,0.389527 0.163351,0.13822 0.439789,0.13822 0.402093,0 0.76649,-0.150785 0.364396,-0.150785 0.678531,-0.389527 l 0.552878,0.929839 q -0.276439,0.213612 -0.615705,0.326701 -0.3267,0.113088 -0.691097,0.113088 z"
       transform="translate(-5.1316188,-0.01884775)"
       id="path21709" /><path
       style="font-size:12.5654px;line-height:0.95;font-family:'Noto Serif Devanagari';-inkscape-font-specification:'Noto Serif Devanagari';text-align:center;text-anchor:middle;fill:#000000;fill-opacity:1;stroke-width:0.130759"
       d="M 5.0401105,12.073875 4.2359245,11.106339 7.8296295,9.1712671 7.7793675,9.5105329 Q 7.4401015,9.0958747 7.1636625,8.8445667 6.8872245,8.5932586 6.6107855,8.48017 6.3469115,8.354516 5.9825155,8.354516 q -0.339266,0 -0.741359,0.1507848 -0.389527,0.1382194 -0.829316,0.3895275 L 3.6579165,7.7136806 q 0.477485,-0.2261772 0.942405,-0.3643966 0.46492,-0.1507848 0.867012,-0.1507848 0.490051,0 0.892144,0.1507848 0.402093,0.1507848 0.829316,0.5528776 0.427224,0.3895274 0.980101,1.1057553 v 1.1057551 z"
       transform="translate(-5.1316188,-0.01884775)"
       id="path20753" /><path
       style="font-size:12.5654px;line-height:0.95;font-family:'Noto Serif Devanagari';-inkscape-font-specification:'Noto Serif Devanagari';text-align:center;text-anchor:middle;fill:#c9c9c9;fill-opacity:1;stroke-width:0.130759"
       d="M 3.1427345,6.0676132 2.5898575,5.2508622 V 5.1000774 H 13.53432 l 0.540313,0.8418818 v 0.125654 z"
       transform="translate(-5.1316188,-0.01884775)"
       id="path21713" /><path
       style="font-size:12.5654px;line-height:0.95;font-family:'Noto Serif Devanagari';-inkscape-font-specification:'Noto Serif Devanagari';text-align:center;text-anchor:middle;fill:#000000;fill-opacity:1;stroke-width:0.130759"
       d="M 8.9228185,13.028845 7.9301525,12.337748 V 5.6780858 h 1.130886 v 7.3507592 z"
       transform="translate(-5.13162,-0.01884775)"
       id="path21707" /></g><g
     id="g20751"
     inkscape:label="2"
     transform="translate(22.596249,-0.30551356)"
     style="fill:#c9c9c9;fill-opacity:1"><path
       style="font-size:12.5654px;line-height:0.95;font-family:'Noto Serif Devanagari';-inkscape-font-specification:'Noto Serif Devanagari';text-align:center;text-anchor:middle;fill:#000000;fill-opacity:1;stroke-width:0.130759"
       d="m 12.189822,12.87806 q -0.477485,0 -0.854447,-0.16335 -0.376962,-0.16335 -0.703662,-0.46492 -0.263874,-0.251308 -0.414658,-0.515181 -0.13822,-0.276439 -0.13822,-0.62827 0,-0.490051 0.364397,-0.867013 0.376962,-0.3769619 1.193713,-0.7413585 l -0.01257,0.3267004 -0.753924,-0.9172742 0.615705,-0.3392659 1.193713,1.5078482 q -0.967536,0.389527 -1.369629,0.766489 -0.402092,0.364397 -0.402092,0.678532 0,0.238743 0.150784,0.389527 0.163351,0.13822 0.439789,0.13822 0.402093,0 0.76649,-0.150785 0.364396,-0.150785 0.678531,-0.389527 l 0.552878,0.929839 q -0.276439,0.213612 -0.615705,0.326701 -0.3267,0.113088 -0.691097,0.113088 z"
       transform="translate(-5.1316188,-0.01884775)"
       id="path21699" /><path
       style="font-size:12.5654px;line-height:0.95;font-family:'Noto Serif Devanagari';-inkscape-font-specification:'Noto Serif Devanagari';text-align:center;text-anchor:middle;fill:#c9c9c9;fill-opacity:1;stroke-width:0.130759"
       d="M 8.9228185,13.028845 7.9301525,12.337748 V 5.6780858 h 1.130886 v 7.3507592 z"
       transform="translate(-5.1316188,-0.01884775)"
       id="path21697" /><path
       style="font-size:12.5654px;line-height:0.95;font-family:'Noto Serif Devanagari';-inkscape-font-specification:'Noto Serif Devanagari';text-align:center;text-anchor:middle;fill:#c9c9c9;fill-opacity:1;stroke-width:0.130759"
       d="M 3.1427345,6.0676132 2.5898575,5.2508622 V 5.1000774 H 13.53432 l 0.540313,0.8418818 v 0.125654 z"
       transform="translate(-5.1316188,-0.01884775)"
       id="path21703" /><path
       style="font-size:12.5654px;line-height:0.95;font-family:'Noto Serif Devanagari';-inkscape-font-specification:'Noto Serif Devanagari';text-align:center;text-anchor:middle;fill:#000000;fill-opacity:1;stroke-width:0.130759"
       d="m 14.460575,12.055027 -0.804186,-0.967536 3.593705,-1.9350717 -0.05026,0.3392658 C 16.973654,9.2152463 16.768419,8.9932576 16.584127,8.8257189 16.399835,8.6581802 16.215542,8.5367146 16.03125,8.4613222 15.855334,8.3775529 15.64591,8.3356683 15.40298,8.3356683 c -0.226178,0 -0.473297,0.050262 -0.741359,0.1507848 -0.259685,0.092146 -0.536124,0.2219888 -0.829316,0.3895275 L 13.078381,7.6948328 c 0.318323,-0.1507848 0.632458,-0.2722502 0.942405,-0.3643966 0.309947,-0.1005231 0.59895,-0.1507848 0.867012,-0.1507848 0.3267,0 0.624082,0.050262 0.892144,0.1507848 0.268062,0.1005232 0.5445,0.2848157 0.829316,0.5528776 0.284816,0.2596849 0.611516,0.62827 0.980101,1.1057553 l 0.603581,0.7132253 -0.603581,0.3925296 z"
       id="path4470"
       sodipodi:nodetypes="ccccscsccccssccccc"
       transform="translate(-14.552083)" /><path
       style="font-size:12.5654px;line-height:0.95;font-family:'Noto Serif Devanagari';-inkscape-font-specification:'Noto Serif Devanagari';text-align:center;text-anchor:middle;fill:#000000;fill-opacity:1;stroke-width:0.130759"
       d="m 9.1741265,9.6110561 q -0.06283,0 -0.150784,-0.012565 -0.07539,-0.012565 -0.125654,-0.012565 V 8.9953515 Q 9.5636545,8.9702205 9.9908773,8.7440434 10.430666,8.5053008 10.631713,8.166035 l 0.01257,0.314135 Q 10.54376,8.3419506 10.468368,8.1786004 10.405538,8.0026848 10.405538,7.789073 q 0,-0.3392658 0.226177,-0.5528776 0.226177,-0.2261772 0.578008,-0.2261772 0.402093,0 0.640836,0.2764388 0.238742,0.2764388 0.238742,0.6408354 0,0.3895274 -0.276439,0.7036624 -0.27644,0.3141351 -0.716229,0.5277469 -0.439789,0.2136118 -0.954971,0.3392658 -0.5026155,0.1130886 -0.9675355,0.1130886 z"
       transform="translate(-5.1316187,-0.01884775)"
       id="path21701" /></g><g
     id="g4913"
     inkscape:label="1"
     transform="translate(8.0441657,-0.30551356)"
     style="fill:#c9c9c9;fill-opacity:1"><path
       style="font-size:12.5654px;line-height:0.95;font-family:'Noto Serif Devanagari';-inkscape-font-specification:'Noto Serif Devanagari';text-align:center;text-anchor:middle;fill:#c9c9c9;fill-opacity:1;stroke-width:0.130759"
       d="m 9.1741265,9.6110561 q -0.06283,0 -0.150784,-0.012565 -0.07539,-0.012565 -0.125654,-0.012565 V 8.9953515 Q 9.5636545,8.9702205 9.9908773,8.7440434 10.430666,8.5053008 10.631713,8.166035 l 0.01257,0.314135 Q 10.54376,8.3419506 10.468368,8.1786004 10.405538,8.0026848 10.405538,7.789073 q 0,-0.3392658 0.226177,-0.5528776 0.226177,-0.2261772 0.578008,-0.2261772 0.402093,0 0.640836,0.2764388 0.238742,0.2764388 0.238742,0.6408354 0,0.3895274 -0.276439,0.7036624 -0.27644,0.3141351 -0.716229,0.5277469 -0.439789,0.2136118 -0.954971,0.3392658 -0.5026155,0.1130886 -0.9675355,0.1130886 z"
       transform="translate(-5.1316188,-0.01884775)"
       id="path21691" /><path
       style="font-size:12.5654px;line-height:0.95;font-family:'Noto Serif Devanagari';-inkscape-font-specification:'Noto Serif Devanagari';text-align:center;text-anchor:middle;fill:#c9c9c9;fill-opacity:1;stroke-width:0.130759"
       d="m 12.189822,12.87806 q -0.477485,0 -0.854447,-0.16335 -0.376962,-0.16335 -0.703662,-0.46492 -0.263874,-0.251308 -0.414658,-0.515181 -0.13822,-0.276439 -0.13822,-0.62827 0,-0.490051 0.364397,-0.867013 0.376962,-0.3769619 1.193713,-0.7413585 l -0.01257,0.3267004 -0.753924,-0.9172742 0.615705,-0.3392659 1.193713,1.5078482 q -0.967536,0.389527 -1.369629,0.766489 -0.402092,0.364397 -0.402092,0.678532 0,0.238743 0.150784,0.389527 0.163351,0.13822 0.439789,0.13822 0.402093,0 0.76649,-0.150785 0.364396,-0.150785 0.678531,-0.389527 l 0.552878,0.929839 q -0.276439,0.213612 -0.615705,0.326701 -0.3267,0.113088 -0.691097,0.113088 z"
       transform="translate(-5.1316188,-0.01884775)"
       id="path21689" /><path
       style="font-size:12.5654px;line-height:0.95;font-family:'Noto Serif Devanagari';-inkscape-font-specification:'Noto Serif Devanagari';text-align:center;text-anchor:middle;fill:#c9c9c9;fill-opacity:1;stroke-width:0.130759"
       d="M 8.9228185,13.028845 7.9301525,12.337748 V 5.6780858 h 1.130886 v 7.3507592 z"
       transform="translate(-5.1316188,-0.01884775)"
       id="path21687" /><path
       style="font-size:12.5654px;line-height:0.95;font-family:'Noto Serif Devanagari';-inkscape-font-specification:'Noto Serif Devanagari';text-align:center;text-anchor:middle;fill:#000000;fill-opacity:1;stroke-width:0.130759"
       d="M 5.0401105,12.073875 4.2359245,11.106339 7.8296295,9.1712671 7.7793675,9.5105329 C 7.5531902,9.2340941 7.3479552,9.0121054 7.1636625,8.8445667 6.9793705,8.677028 6.7950782,8.5555624 6.6107855,8.48017 6.4348695,8.3964007 6.2254462,8.354516 5.9825155,8.354516 c -0.2261773,0 -0.473297,0.050262 -0.741359,0.1507848 -0.2596847,0.092146 -0.5361233,0.2219888 -0.829316,0.3895275 L 3.6579165,7.7136806 C 3.9762398,7.5628958 4.2903748,7.4414303 4.6003215,7.349284 4.9102682,7.2487608 5.1992722,7.1984992 5.4673335,7.1984992 c 0.3267007,0 0.624082,0.050262 0.892144,0.1507848 0.268062,0.1005232 0.5445007,0.2848157 0.829316,0.5528776 0.284816,0.2596849 0.6115163,0.62827 0.980101,1.1057553 L 8.7724752,9.7211422 8.1688945,10.113672 Z"
       transform="translate(-5.1316188,-0.01884775)"
       id="path1016"
       sodipodi:nodetypes="ccccscsccccssccccc" /><path
       style="font-size:12.5654px;line-height:0.95;font-family:'Noto Serif Devanagari';-inkscape-font-specification:'Noto Serif Devanagari';text-align:center;text-anchor:middle;fill:#c9c9c9;fill-opacity:1;stroke-width:0.130759"
       d="M 3.1427345,6.0676132 2.5898575,5.2508622 V 5.1000774 H 13.53432 l 0.540313,0.8418818 v 0.125654 z"
       transform="translate(-5.1316188,-0.01884775)"
       id="path21693" /></g><g
     id="g1681"
     style="opacity:0.8"
     inkscape:label="Arrows"
     transform="translate(1.7982408,-0.03476083)"><g
       id="path4538"
       style="opacity:0.8"
       transform="translate(20.798008,-0.27075273)"><path
         style="color:#000000;fill:#ff0000;-inkscape-stroke:none"
         d="m -10.90625,9.0175781 -0.09961,0.085937 0.625,0.7382813 -0.945313,0.6132811 0.07031,0.111328 1.070312,-0.6972654 z"
         id="path6461" /><g
         id="g6451"><g
           id="path6453"><path
             style="color:#000000;fill:#ff0000;fill-rule:evenodd;stroke-width:0.0655pt;-inkscape-stroke:none"
             d="m -11.607716,10.716497 0.296569,-0.583361 0.356956,0.549188 z"
             id="path6457" /><path
             style="color:#000000;fill:#ff0000;fill-rule:evenodd;-inkscape-stroke:none"
             d="m -11.316406,10.044922 -0.365235,0.71875 0.07617,-0.0039 0.728516,-0.03711 z m 0.0098,0.175781 0.275391,0.421875 -0.503906,0.02734 z"
             id="path6459" /></g></g></g><g
       id="path1431"
       style="opacity:0.8"><path
         style="color:#000000;fill:#ff0000;stroke-width:0.131;-inkscape-stroke:none"
         d="M 50.55377,4.2714044 H 47.360411 50.55377"
         id="path6475" /><path
         style="color:#000000;fill:#ff0000;-inkscape-stroke:none"
         d="m 47.361328,4.2050781 v 0.1308594 h 3.193359 V 4.2050781 Z"
         id="path6477" /><g
         id="g6465"><g
           id="path6467"><path
             style="color:#000000;fill:#ff0000;fill-rule:evenodd;stroke-width:0.0655pt;-inkscape-stroke:none"
             d="m 50.931705,4.2714044 -0.566575,0.3275 v -0.655 z"
             id="path6471" /><path
             style="color:#000000;fill:#ff0000;fill-rule:evenodd;-inkscape-stroke:none"
             d="m 50.322266,3.8691406 v 0.8046875 l 0.697265,-0.4023437 -0.06641,-0.037109 z m 0.08594,0.1503906 0.4375,0.2519532 -0.4375,0.2519531 z"
             id="path6473" /></g></g></g><g
       id="path3564"
       style="opacity:0.8"><path
         style="color:#000000;fill:#ff0000;stroke-width:0.131;-inkscape-stroke:none"
         d="M 39.842164,5.944404 V 8.1924508"
         id="path6491" /><path
         style="color:#000000;fill:#ff0000;-inkscape-stroke:none"
         d="m 39.777344,5.9453125 0,3.8324541 h 0.130859 l 0,-3.8324541 z"
         id="path6493"
         sodipodi:nodetypes="ccccc" /><g
         id="g6481"><g
           id="path6483"><path
             style="color:#000000;fill:#ff0000;fill-rule:evenodd;stroke-width:0.0655pt;-inkscape-stroke:none"
             d="m 39.842164,10.148946 -0.3275,-0.5665746 h 0.655 z"
             id="path6487" /><path
             style="color:#000000;fill:#ff0000;fill-rule:evenodd;-inkscape-stroke:none"
             d="m 39.439453,9.5394981 0.402344,0.6972659 0.03906,-0.06641 0.365235,-0.6308597 z m 0.150391,0.085937 h 0.505859 L 39.84375,10.060983 Z"
             id="path6489" /></g></g></g><g
       id="path4359"
       style="opacity:0.8"><path
         style="color:#000000;fill:#ff0000;-inkscape-stroke:none"
         d="m 6.7734375,6.4296875 c -0.4010168,1.341e-4 -0.6835938,0.089844 -0.6835938,0.089844 l 0.041016,0.125 c 0,0 1.0687327,-0.3370099 1.9570312,0.3359375 L 8.1679688,6.8769531 C 7.6953294,6.5188962 7.1744543,6.4295534 6.7734375,6.4296875 Z"
         id="path6507" /><g
         id="g6497"><g
           id="path6499"><path
             style="color:#000000;fill:#ff0000;fill-rule:evenodd;stroke-width:0.0655pt;-inkscape-stroke:none"
             d="M 8.4289192,7.1569937 7.779543,7.0759135 8.1750675,6.5538164 Z"
             id="path6503" /><path
             style="color:#000000;fill:#ff0000;fill-rule:evenodd;-inkscape-stroke:none"
             d="M 8.1855469,6.4667969 7.6992187,7.109375 8.4980469,7.2089844 8.46875,7.140625 Z m -0.021484,0.171875 0.1953125,0.4648437 -0.5,-0.060547 z"
             id="path6505" /></g></g></g><g
       id="path4810"
       style="opacity:0.8"
       transform="translate(4.6174057,-12.375444)"><path
         style="color:#000000;fill:#ff0000;-inkscape-stroke:none"
         d="m 23.810547,21.662109 -0.103516,0.08008 0.478516,0.625 -0.800781,0.363282 0.05469,0.11914 0.951172,-0.43164 z"
         id="path6521" /><g
         id="g6511"><g
           id="path6513"><path
             style="color:#000000;fill:#ff0000;fill-rule:evenodd;stroke-width:0.0655pt;-inkscape-stroke:none"
             d="m 23.067609,22.94518 0.381027,-0.532054 0.270193,0.596675 z"
             id="path6517" /><path
             style="color:#000000;fill:#ff0000;fill-rule:evenodd;-inkscape-stroke:none"
             d="m 23.457031,22.326172 -0.46875,0.654297 0.07422,0.0078 0.726562,0.07227 z m -0.01758,0.175781 0.208984,0.457031 -0.501953,-0.04883 z"
             id="path6519" /></g></g></g><g
       id="path6367"
       style="opacity:0.8"><path
         style="color:#000000;fill:#ff0000;-inkscape-stroke:none"
         d="m 25.947266,12.154297 -0.101563,0.08398 c 0.02235,0.0268 0.661572,0.797 1.560547,0.833985 l 0.0059,-0.13086 c -0.825619,-0.03397 -1.449351,-0.76853 -1.464843,-0.787109 z"
         id="path6535" /><g
         id="g6525"><g
           id="path6527"><path
             style="color:#000000;fill:#ff0000;fill-rule:evenodd;stroke-width:0.0655pt;-inkscape-stroke:none"
             d="m 27.786795,13.02146 -0.579559,0.303933 0.02692,-0.654447 z"
             id="path6531" /><path
             style="color:#000000;fill:#ff0000;fill-rule:evenodd;-inkscape-stroke:none"
             d="m 27.193359,12.59375 -0.0332,0.804688 0.712891,-0.373047 -0.0625,-0.04102 z m 0.08008,0.154297 0.425782,0.269531 -0.445313,0.234375 z"
             id="path6533" /></g></g></g><path
       style="color:#000000;fill:#ff0000;-inkscape-stroke:none;opacity:0.8"
       d="m 28.306641,9.4082031 c -0.594307,0.2479287 -1.274751,0.2769138 -1.416016,0.28125 l 0.0039,0.1308594 c 0.144771,-0.00444 0.837358,-0.030875 1.460938,-0.2910156 z"
       id="path4692"
       transform="translate(-1.7982408,0.03476083)" /><g
       id="path4744"
       style="opacity:0.8"
       transform="translate(-1.7982408,0.03476083)"><path
         style="color:#000000;fill:#ff0000;-inkscape-stroke:none"
         d="m 28.722656,6.2089844 c -0.464112,-0.00453 -1.094328,0.2156207 -1.371094,0.9628906 l 0.123047,0.044922 c 0.257419,-0.6950333 0.823069,-0.8810787 1.246094,-0.8769532 0.631011,0.00615 1.046967,0.4416726 1.197266,1.0214844 L 30.044922,7.328125 C 29.883604,6.7058042 29.414296,6.2157296 28.722656,6.2089844 Z"
         id="path7595" /><g
         id="g7585"><g
           id="path7587"><path
             style="color:#000000;fill:#ff0000;fill-rule:evenodd;stroke-width:0.0655pt;-inkscape-stroke:none"
             d="M 27.282056,7.5484194 27.171722,6.9033692 27.785948,7.130859 Z"
             id="path7591" /><path
             style="color:#000000;fill:#ff0000;fill-rule:evenodd;-inkscape-stroke:none"
             d="m 27.115234,6.8359375 0.136719,0.7949219 0.05859,-0.048828 0.5625,-0.4667968 z m 0.111328,0.1347656 0.47461,0.1738281 -0.388672,0.3222657 z"
             id="path7593" /></g></g></g><path
       style="color:#000000;fill:#ff0000;stroke-dasharray:0.131, 0.131;-inkscape-stroke:none;opacity:0.8"
       d="m 30.068359,7.4238281 -0.126953,0.027344 0.0059,0.027344 0.0098,0.054687 0.0039,0.042969 0.13086,-0.017578 -0.0059,-0.042969 -0.0098,-0.0625 z m -0.09961,0.2734375 v 0.050781 l -0.002,0.050781 -0.0039,0.021484 0.130859,0.015625 0.002,-0.025391 0.0039,-0.058594 0.002,-0.052734 z m -0.02539,0.2460938 -0.01172,0.052734 -0.02148,0.068359 0.125,0.039063 0.02344,-0.074219 0.01367,-0.056641 z m -0.07813,0.2382812 -0.04297,0.085937 -0.01172,0.021484 0.111328,0.066406 0.01563,-0.025391 0.04883,-0.095703 v -0.00391 z m -0.123047,0.2148438 -0.02344,0.037109 -0.05078,0.064453 0.103515,0.080078 0.05273,-0.068359 0.02734,-0.039063 z m -0.15625,0.1972656 -0.06055,0.064453 -0.0293,0.025391 0.0918,0.095703 0.0293,-0.029297 0.06445,-0.066406 z m -0.183593,0.1777344 -0.02344,0.019531 -0.07617,0.0625 0.08203,0.1015625 0.07813,-0.064453 0.02539,-0.021484 z m -0.201172,0.15625 -0.05273,0.037109 -0.05273,0.037109 0.07227,0.1074219 0.05469,-0.037109 0.05469,-0.037109 z m -0.214844,0.140625 -0.06445,0.041016 -0.04687,0.025391 0.06445,0.1132813 0.04883,-0.025391 0.06641,-0.041016 z M 28.761719,9.1953125 28.652344,9.25 l -0.0059,0.00391 0.05664,0.1191406 0.0059,-0.00391 0.113282,-0.056641 z m -0.232422,0.1113281 -0.119141,0.052734 0.05078,0.1191406 0.121094,-0.050781 z"
       id="path4790"
       transform="translate(-1.7982408,0.03476083)" /></g><g
     id="g2215"
     inkscape:label="Start markers"
     transform="translate(6.4156465,-12.410205)"
     style="opacity:0.8;stroke:none;stroke-opacity:1"><circle
       r="0.67124546"
       clip-path="none"
       cy="5.4253283"
       cx="38.714066"
       id="circle13043"
       style="opacity:0.6;fill:#00ff00;fill-opacity:1;stroke:none;stroke-width:0.268498;stroke-linecap:round;stroke-linejoin:miter;stroke-miterlimit:4;stroke-dasharray:none;stroke-dashoffset:0;stroke-opacity:1"
       transform="translate(-4.6174057,12.375444)" /><circle
       r="0.67124546"
       clip-path="none"
       cy="17.623302"
       cx="43.096535"
       id="circle5433"
       style="opacity:0.6;fill:#00ff00;fill-opacity:1;stroke:none;stroke-width:0.268498;stroke-linecap:round;stroke-linejoin:miter;stroke-miterlimit:4;stroke-dasharray:none;stroke-dashoffset:0;stroke-opacity:1" /><circle
       r="0.75309676"
       clip-path="none"
       cy="20.359919"
       cx="0.5773108"
       id="circle4806"
       style="opacity:0.6;fill:#00ff00;fill-opacity:1;stroke:none;stroke-width:0.301239;stroke-linecap:round;stroke-linejoin:miter;stroke-miterlimit:4;stroke-dasharray:none;stroke-dashoffset:0;stroke-opacity:1" /><circle
       r="0.67124546"
       clip-path="none"
       cy="21.393318"
       cx="20.090279"
       id="circle4808"
       style="opacity:0.6;fill:#00ff00;fill-opacity:1;stroke:none;stroke-width:0.268498;stroke-linecap:round;stroke-linejoin:miter;stroke-miterlimit:4;stroke-dasharray:none;stroke-dashoffset:0;stroke-opacity:1" /></g></svg>
