<?xml version="1.0" encoding="UTF-8" standalone="no"?>
<!-- Created with Inkscape (http://www.inkscape.org/) -->

<svg
   width="150"
   height="65"
   viewBox="0 0 39.687499 17.197916"
   version="1.1"
   id="svg5"
   sodipodi:docname="Devanagari_à¤_stroke_order.svg"
   inkscape:version="1.2.1 (9c6d41e410, 2022-07-14)"
   xml:space="preserve"
   xmlns:inkscape="http://www.inkscape.org/namespaces/inkscape"
   xmlns:sodipodi="http://sodipodi.sourceforge.net/DTD/sodipodi-0.dtd"
   xmlns="http://www.w3.org/2000/svg"
   xmlns:svg="http://www.w3.org/2000/svg"><sodipodi:namedview
     id="namedview7"
     pagecolor="#505050"
     bordercolor="#eeeeee"
     borderopacity="1"
     inkscape:showpageshadow="0"
     inkscape:pageopacity="0"
     inkscape:pagecheckerboard="0"
     inkscape:deskcolor="#505050"
     inkscape:document-units="mm"
     showgrid="false"
     inkscape:zoom="6.9692072"
     inkscape:cx="83.868937"
     inkscape:cy="25.038716"
     inkscape:window-width="1920"
     inkscape:window-height="991"
     inkscape:window-x="-9"
     inkscape:window-y="-9"
     inkscape:window-maximized="1"
     inkscape:current-layer="svg5"
     showguides="true" /><defs
     id="defs2" /><g
     id="g23816"
     inkscape:label="3"
     transform="translate(30.33366,-0.92957664)"
     style="fill:#c9c9c9;fill-opacity:1"><path
       style="font-size:12.5654px;line-height:0.95;font-family:'Noto Serif Devanagari';-inkscape-font-specification:'Noto Serif Devanagari';text-align:center;text-anchor:middle;fill:#000000;fill-opacity:1;stroke-width:0.130759"
       d="m 4.2570406,5.7780127 -0.552877,-0.816751 v -0.150785 h 7.3633244 l 0.552878,0.841882 v 0.125654 z"
       transform="translate(-6.2459249,0.27075273)"
       id="path23834" /><path
       style="font-size:12.5654px;line-height:0.95;font-family:'Noto Serif Devanagari';-inkscape-font-specification:'Noto Serif Devanagari';text-align:center;text-anchor:middle;fill:#000000;fill-opacity:1;stroke-width:0.130759"
       d="M 9.3460277,10.087945 8.3407958,9.4345437 q 0.251308,-0.251308 0.4146582,-0.578008 0.1633502,-0.339266 0.1633502,-0.854447 v -2.6513 h 1.1183208 v 2.890042 q 0,0.62827 -0.2136123,1.080625 -0.201046,0.439789 -0.477485,0.7664893 z"
       transform="translate(-6.2459249,0.27075273)"
       id="path23832" /><path
       style="font-size:12.5654px;line-height:0.95;font-family:'Noto Serif Devanagari';-inkscape-font-specification:'Noto Serif Devanagari';text-align:center;text-anchor:middle;fill:#000000;fill-opacity:1;stroke-width:0.130759"
       d="M 9.7355557,14.649185 8.5795384,14.1717 q 0.2136118,-0.314135 0.314135,-0.578009 0.1005232,-0.263873 0.1005232,-0.515181 0,-0.364397 -0.2387426,-0.615705 Q 8.5167114,12.211497 8.00153,11.884797 L 6.6570322,11.05548 Q 6.2298086,10.779042 5.9282386,10.515168 5.6266696,10.251295 5.4633196,9.8868985 5.3125346,9.5225017 5.3125346,8.9444937 V 5.3507887 H 6.430855 v 3.643966 q 0,0.414659 0.062827,0.678532 0.062827,0.2638734 0.2890042,0.5026153 0.2261772,0.226178 0.7162278,0.527747 l 1.4324556,0.904709 q 0.5780081,0.376962 0.9047091,0.79162 0.3392663,0.414658 0.3392663,0.954971 0,0.364396 -0.13822,0.691097 -0.1256544,0.3267 -0.3015693,0.603139 z"
       transform="translate(-6.2459249,0.27075273)"
       id="path23814" /></g><g
     id="g23812"
     inkscape:label="2"
     transform="translate(18.42741,-0.92957663)"
     style="fill:#c9c9c9;fill-opacity:1"><path
       style="font-size:12.5654px;line-height:0.95;font-family:'Noto Serif Devanagari';-inkscape-font-specification:'Noto Serif Devanagari';text-align:center;text-anchor:middle;stroke-width:0.130759"
       d="m 4.2570406,5.7780127 -0.552877,-0.816751 v -0.150785 h 7.3633244 l 0.552878,0.841882 v 0.125654 z"
       transform="translate(-6.2459249,0.27075273)"
       id="path23828" /><path
       style="font-size:12.5654px;line-height:0.95;font-family:'Noto Serif Devanagari';-inkscape-font-specification:'Noto Serif Devanagari';text-align:center;text-anchor:middle;fill:#000000;fill-opacity:1;stroke-width:0.130759"
       d="M 9.3460277,10.087945 8.3407958,9.4345437 q 0.251308,-0.251308 0.4146582,-0.578008 0.1633502,-0.339266 0.1633502,-0.854447 v -2.6513 h 1.1183208 v 2.890042 q 0,0.62827 -0.2136123,1.080625 -0.201046,0.439789 -0.477485,0.7664893 z"
       transform="translate(-6.2459249,0.27075273)"
       id="path23826" /><path
       style="font-size:12.5654px;line-height:0.95;font-family:'Noto Serif Devanagari';-inkscape-font-specification:'Noto Serif Devanagari';text-align:center;text-anchor:middle;fill:#000000;fill-opacity:1;stroke-width:0.130759"
       d="M 9.7355557,14.649185 8.5795384,14.1717 q 0.2136118,-0.314135 0.314135,-0.578009 0.1005232,-0.263873 0.1005232,-0.515181 0,-0.364397 -0.2387426,-0.615705 Q 8.5167114,12.211497 8.00153,11.884797 L 6.6570322,11.05548 Q 6.2298086,10.779042 5.9282386,10.515168 5.6266696,10.251295 5.4633196,9.8868985 5.3125346,9.5225017 5.3125346,8.9444937 V 5.3507887 H 6.430855 v 3.643966 q 0,0.414659 0.062827,0.678532 0.062827,0.2638734 0.2890042,0.5026153 0.2261772,0.226178 0.7162278,0.527747 l 1.4324556,0.904709 q 0.5780081,0.376962 0.9047091,0.79162 0.3392663,0.414658 0.3392663,0.954971 0,0.364396 -0.13822,0.691097 -0.1256544,0.3267 -0.3015693,0.603139 z"
       transform="translate(-6.2459249,0.27075273)"
       id="path23810" /></g><g
     id="g4913"
     inkscape:label="1"
     transform="translate(6.5211603,-0.92957663)"
     style="fill:#c9c9c9;fill-opacity:1"><path
       style="font-size:12.5654px;line-height:0.95;font-family:'Noto Serif Devanagari';-inkscape-font-specification:'Noto Serif Devanagari';text-align:center;text-anchor:middle;stroke-width:0.130759"
       d="m 4.2570406,5.7780127 -0.552877,-0.816751 v -0.150785 h 7.3633244 l 0.552878,0.841882 v 0.125654 z"
       transform="translate(-6.2459249,0.27075273)"
       id="path23822" /><path
       style="font-size:12.5654px;line-height:0.95;font-family:'Noto Serif Devanagari';-inkscape-font-specification:'Noto Serif Devanagari';text-align:center;text-anchor:middle;stroke-width:0.130759"
       d="M 9.3460277,10.087945 8.3407958,9.4345437 q 0.251308,-0.251308 0.4146582,-0.578008 0.1633502,-0.339266 0.1633502,-0.854447 v -2.6513 h 1.1183208 v 2.890042 q 0,0.62827 -0.2136123,1.080625 -0.201046,0.439789 -0.477485,0.7664893 z"
       transform="translate(-6.2459249,0.27075273)"
       id="path23820" /><path
       style="font-size:12.5654px;line-height:0.95;font-family:'Noto Serif Devanagari';-inkscape-font-specification:'Noto Serif Devanagari';text-align:center;text-anchor:middle;fill:#000000;fill-opacity:1;stroke-width:0.130759"
       d="M 9.7355557,14.649185 8.5795384,14.1717 q 0.2136118,-0.314135 0.314135,-0.578009 0.1005232,-0.263873 0.1005232,-0.515181 0,-0.364397 -0.2387426,-0.615705 Q 8.5167114,12.211497 8.00153,11.884797 L 6.6570322,11.05548 Q 6.2298086,10.779042 5.9282386,10.515168 5.6266696,10.251295 5.4633196,9.8868985 5.3125346,9.5225017 5.3125346,8.9444937 V 5.3507887 H 6.430855 v 3.643966 q 0,0.414659 0.062827,0.678532 0.062827,0.2638734 0.2890042,0.5026153 0.2261772,0.226178 0.7162278,0.527747 l 1.4324556,0.904709 q 0.5780081,0.376962 0.9047091,0.79162 0.3392663,0.414658 0.3392663,0.954971 0,0.364396 -0.13822,0.691097 -0.1256544,0.3267 -0.3015693,0.603139 z"
       transform="translate(-6.2459249,0.27075273)"
       id="path1026" /></g><g
     id="g8210"
     inkscape:label="Arrows"
     style="opacity:0.8"
     transform="translate(-4.9999999e-8,-0.10689753)"><g
       id="path23836"
       style="opacity:0.8"
       transform="translate(0.79374995,0.13229174)"><path
         style="color:#000000;fill:#ff0c0c;-inkscape-stroke:none"
         d="m 4.1523437,5.3515625 v 3.0410156 0.00195 c 0.1020292,1.2359221 0.608219,2.0209169 1.4140625,2.4414069 L 5.6269532,10.7207 C 4.8608437,10.320947 4.3835268,9.5915249 4.2832031,8.3886719 v -0.00391 -3.0332031 z"
         id="path5993" /><g
         id="g5983"><g
           id="path5985"><path
             style="color:#000000;fill:#ff0c0c;fill-rule:evenodd;stroke-width:0.0655pt;-inkscape-stroke:none"
             d="M 5.9316416,10.953629 5.2778331,10.981879 5.5808418,10.40118 Z"
             id="path5989" /><path
             style="color:#000000;fill:#ff0c0c;fill-rule:evenodd;-inkscape-stroke:none"
             d="m 5.5761719,10.314453 -0.3710938,0.714844 0.8046875,-0.03516 -0.041016,-0.06445 z m 0.00977,0.171875 0.2695312,0.427735 -0.5039062,0.01953 z"
             id="path5991" /></g></g></g><g
       id="path23864"
       style="opacity:0.8"
       transform="translate(0.79374995,0.13229174)"><path
         style="color:#000000;fill:#ff0c0c;-inkscape-stroke:none"
         d="m 9.3359375,10.974609 -0.064453,0.115235 c 0,0 0.3433335,0.192254 0.6074219,0.582031 0.2640886,0.389777 0.4506996,0.967613 0.1249996,1.767578 L 10.125,13.488281 C 10.465802,12.651223 10.270842,12.014698 9.9882813,11.597656 9.7057205,11.180615 9.3359375,10.974609 9.3359375,10.974609 Z"
         id="path6007" /><g
         id="g5997"><g
           id="path5999"><path
             style="color:#000000;fill:#ff0c0c;fill-rule:evenodd;stroke-width:0.0655pt;-inkscape-stroke:none"
             d="m 9.9211737,13.814397 -0.089675,-0.648245 0.6066463,0.246992 z"
             id="path6003" /><path
             style="color:#000000;fill:#ff0c0c;fill-rule:evenodd;-inkscape-stroke:none"
             d="m 9.7773438,13.097656 0.1113281,0.796875 0.058594,-0.04492 0.5781251,-0.449218 z m 0.1074218,0.138672 0.4667974,0.189453 -0.3964849,0.306641 z"
             id="path6005" /></g></g></g><g
       id="path23890"
       style="opacity:0.8"
       transform="translate(0.79374995,0.13229174)"><path
         style="color:#000000;fill:#ff0c0c;-inkscape-stroke:none"
         d="m 22.042969,5.3515625 v 2.3007812 0.00195 c 0.0044,0.4539967 -0.144283,0.8182384 -0.333985,1.1933594 L 21.826172,8.90625 C 22.019028,8.5248923 22.178468,8.1355106 22.173828,7.6523437 V 5.3515625 Z"
         id="path6021" /><g
         id="g6011"><g
           id="path6013"><path
             style="color:#000000;fill:#ff0c0c;fill-rule:evenodd;stroke-width:0.0655pt;-inkscape-stroke:none"
             d="M 21.597279,9.2145268 21.560711,8.5611309 22.14522,8.8567221 Z"
             id="path6017" /><path
             style="color:#000000;fill:#ff0c0c;fill-rule:evenodd;-inkscape-stroke:none"
             d="m 21.513672,8.4882813 0.04492,0.8046875 0.0625,-0.041016 0.611328,-0.4003906 z m 0.09375,0.1445312 0.449219,0.2285156 -0.419922,0.2753907 z"
             id="path6019" /></g></g></g><g
       id="path8575"
       style="opacity:0.8"><path
         style="color:#000000;fill:#ff0000;-inkscape-stroke:none"
         d="m 27.792969,3.6523438 v 0.1308593 h 3.193359 V 3.6523438 Z"
         id="path8683" /><g
         id="g8673"><g
           id="path8675"><path
             style="color:#000000;fill:#ff0000;fill-rule:evenodd;stroke-width:0.0655pt;-inkscape-stroke:none"
             d="m 31.364109,3.7185816 -0.566575,0.3275 v -0.655 z"
             id="path8679" /><path
             style="color:#000000;fill:#ff0000;fill-rule:evenodd;-inkscape-stroke:none"
             d="M 30.753906,3.3144531 V 4.1210937 L 31.451172,3.71875 31.386719,3.6816406 Z m 0.08789,0.1542969 0.435547,0.25 -0.435547,0.25 z"
             id="path8681" /></g></g></g></g><g
     id="g8580"
     inkscape:label="Start markers"
     transform="translate(-4.9999999e-8,-0.10689753)"><circle
       r="0.67124546"
       clip-path="none"
       cy="4.6959333"
       cx="28.145424"
       id="circle5433"
       style="opacity:0.6;fill:#00ff00;fill-opacity:1;stroke:none;stroke-width:0.268498;stroke-linecap:round;stroke-linejoin:miter;stroke-miterlimit:4;stroke-dasharray:none;stroke-dashoffset:0;stroke-opacity:1" /><circle
       r="0.67124546"
       clip-path="none"
       cy="4.8042927"
       cx="6.1498671"
       id="circle13043"
       style="opacity:0.6;fill:#00ff00;fill-opacity:1;stroke:none;stroke-width:0.268498;stroke-linecap:round;stroke-linejoin:miter;stroke-miterlimit:4;stroke-dasharray:none;stroke-dashoffset:0;stroke-opacity:1" /><circle
       r="0.67124546"
       clip-path="none"
       cy="4.8357062"
       cx="21.659447"
       id="circle8587"
       style="opacity:0.6;fill:#00ff00;fill-opacity:1;stroke:none;stroke-width:0.268498;stroke-linecap:round;stroke-linejoin:miter;stroke-miterlimit:4;stroke-dasharray:none;stroke-dashoffset:0;stroke-opacity:1" /></g></svg>
