<?xml version="1.0" encoding="UTF-8" standalone="no"?>
<!-- Created with Inkscape (http://www.inkscape.org/) -->

<svg
   width="150"
   height="65"
   viewBox="0 0 39.687498 17.197916"
   version="1.1"
   id="svg5"
   sodipodi:docname="Devanagari_ई_stroke_order.svg"
   inkscape:version="1.2.1 (9c6d41e410, 2022-07-14)"
   xml:space="preserve"
   xmlns:inkscape="http://www.inkscape.org/namespaces/inkscape"
   xmlns:sodipodi="http://sodipodi.sourceforge.net/DTD/sodipodi-0.dtd"
   xmlns="http://www.w3.org/2000/svg"
   xmlns:svg="http://www.w3.org/2000/svg"><sodipodi:namedview
     id="namedview7"
     pagecolor="#505050"
     bordercolor="#eeeeee"
     borderopacity="1"
     inkscape:showpageshadow="0"
     inkscape:pageopacity="0"
     inkscape:pagecheckerboard="0"
     inkscape:deskcolor="#505050"
     inkscape:document-units="mm"
     showgrid="false"
     inkscape:zoom="5.6568542"
     inkscape:cx="50.646524"
     inkscape:cy="4.6845825"
     inkscape:window-width="1920"
     inkscape:window-height="991"
     inkscape:window-x="-9"
     inkscape:window-y="-9"
     inkscape:window-maximized="1"
     inkscape:current-layer="svg5"
     showguides="true" /><defs
     id="defs2" /><g
     id="g2453"
     inkscape:label="3"
     transform="translate(6.9483842,0.4379014)"><path
       style="font-size:12.5654px;line-height:0.95;font-family:'Noto Serif Devanagari';-inkscape-font-specification:'Noto Serif Devanagari';text-align:center;text-anchor:middle;fill:#c9c9c9;fill-opacity:1;stroke-width:0.130759"
       d="M 9.9299313,6.0487672 9.3770543,5.2320162 V 5.0812314 H 15.8608 l 0.552877,0.8418818 v 0.125654 z"
       id="path2445" /><path
       style="font-size:12.5654px;line-height:0.95;font-family:'Noto Serif Devanagari';-inkscape-font-specification:'Noto Serif Devanagari';text-align:center;text-anchor:middle;stroke-width:0.130759"
       d="M 14.202167,14.794285 Q 13.850336,14.542978 13.473374,14.17858 13.108977,13.826749 12.769712,13.424657 12.430446,13.03513 12.166572,12.670733 l 0.691097,0.0377 q 0.188481,0.175917 0.502616,0.402094 0.314135,0.226177 0.703663,0.439788 0.402092,0.226177 0.841881,0.402094 z"
       id="path2447" /><path
       style="font-size:12.5654px;line-height:0.95;font-family:'Noto Serif Devanagari';-inkscape-font-specification:'Noto Serif Devanagari';text-align:center;text-anchor:middle;stroke-width:0.130759"
       d="m 12.895366,12.859213 q -0.502616,0 -0.904709,-0.06283 -0.389528,-0.07539 -0.678532,-0.201044 -0.276439,-0.125654 -0.427223,-0.314135 -0.13822,-0.188481 -0.13822,-0.414657 0,-0.276439 0.188481,-0.427225 0.188481,-0.16335 0.46492,-0.16335 0.364397,0 0.665966,0.238743 0.30157,0.226177 0.552878,0.590574 l -0.904709,-0.238742 q 0.16335,0.02513 0.364397,0.05026 0.213611,0.01257 0.389527,0.01257 0.603139,0 1.080624,-0.163352 0.490051,-0.163349 0.76649,-0.439788 0.289004,-0.289004 0.289004,-0.628271 0,-0.339264 -0.226177,-0.502615 -0.213612,-0.175916 -0.540312,-0.175916 -0.263874,0 -0.653401,0.125654 -0.389528,0.125651 -0.904709,0.464917 -0.414658,-0.238743 -0.79162,-0.565443 -0.376962,-0.339266 -0.615705,-0.7539235 -0.238742,-0.414658 -0.238742,-0.8544473 0,-0.6534008 0.477485,-1.0177974 0.49005,-0.3643966 1.369628,-0.3643966 0.263874,0 0.540313,0.025131 0.289004,0.012565 0.703662,0.050262 l -0.30157,0.238742 v -1.633502 h 1.09319 v 2.198945 q -0.263873,-0.025131 -0.502616,-0.037696 -0.226177,-0.012565 -0.477485,-0.012565 -1.055494,0 -1.532979,0.2890042 -0.46492,0.2764388 -0.46492,0.7036627 0,0.201046 0.100524,0.364396 0.100523,0.163351 0.251308,0.289005 0.414658,-0.263874 0.816751,-0.376962 0.402092,-0.125654 0.716227,-0.125654 0.414659,0 0.753924,0.16335 0.351831,0.150785 0.678532,0.5026159 0.276439,0.301569 0.402093,0.62827 0.138219,0.314134 0.138219,0.6534 0,0.552878 -0.3267,0.980101 -0.314135,0.414659 -0.879578,0.665967 -0.552878,0.238742 -1.294236,0.238741 z"
       id="path2449" /><path
       style="font-size:12.5654px;line-height:0.95;font-family:'Noto Serif Devanagari';-inkscape-font-specification:'Noto Serif Devanagari';text-align:center;text-anchor:middle;opacity:1;fill:#000000;fill-opacity:1;stroke-width:0.130759"
       d="m 29.56472,17.458094 h -0.565443 q -0.427224,-0.515181 -0.678532,-0.992667 -0.251308,-0.477485 -0.251308,-1.017797 0,-0.603139 0.389528,-0.992667 0.402092,-0.402092 1.042928,-0.402092 0.578008,0 0.95497,0.289004 0.389528,0.289004 0.653401,0.691097 l -0.301569,0.301569 q -0.175916,-0.16335 -0.402093,-0.238742 -0.213612,-0.08796 -0.439789,-0.08796 -0.427224,0 -0.691097,0.276439 -0.251308,0.276438 -0.251308,0.741358 0,0.376962 0.16335,0.753924 0.16335,0.376962 0.376962,0.678532 z"
       id="path2451"
       transform="translate(-15.111244,-12.288894)" /></g><g
     id="g4927"
     inkscape:label="2"
     style="opacity:1;stroke:none;stroke-opacity:1"
     transform="translate(32.083802,0.4379014)"><path
       style="font-size:12.5654px;line-height:0.95;font-family:'Noto Serif Devanagari';-inkscape-font-specification:'Noto Serif Devanagari';text-align:center;text-anchor:middle;stroke:none;stroke-width:0.130759"
       d="M 2.2959166,14.794285 Q 1.9440856,14.542978 1.5671236,14.17858 1.2027266,13.826749 0.86346158,13.424657 0.52419558,13.03513 0.2603216,12.670733 l 0.69109698,0.0377 q 0.18848102,0.175917 0.50261602,0.402094 0.314135,0.226177 0.703663,0.439788 0.402092,0.226177 0.841881,0.402094 z"
       id="path4923" /><path
       style="font-size:12.5654px;line-height:0.95;font-family:'Noto Serif Devanagari';-inkscape-font-specification:'Noto Serif Devanagari';text-align:center;text-anchor:middle;opacity:1;fill:#000000;fill-opacity:1;stroke:none;stroke-width:0.130759;stroke-opacity:1"
       d="m -1.9763194,6.0487672 -0.552877,-0.816751 V 5.0812314 h 6.483746 l 0.552877,0.8418818 v 0.125654 z"
       id="path459" /><path
       style="font-size:12.5654px;line-height:0.95;font-family:'Noto Serif Devanagari';-inkscape-font-specification:'Noto Serif Devanagari';text-align:center;text-anchor:middle;stroke:none;stroke-width:0.130759"
       d="m 0.98911558,12.859213 q -0.502616,0 -0.90470898,-0.06283 -0.389528,-0.07539 -0.678532,-0.201044 -0.276439,-0.125654 -0.427223,-0.314135 -0.13822,-0.188481 -0.13822,-0.414657 0,-0.276439 0.188481,-0.427225 0.188481,-0.16335 0.46492,-0.16335 0.364397,0 0.665966,0.238743 0.30156998,0.226177 0.55287798,0.590574 L -0.1920324,11.866547 q 0.16335,0.02513 0.364397,0.05026 0.213611,0.01257 0.38952698,0.01257 0.60313902,0 1.08062402,-0.163352 0.490051,-0.163349 0.76649,-0.439788 0.289004,-0.289004 0.289004,-0.628271 0,-0.339264 -0.226177,-0.502615 -0.213612,-0.175916 -0.540312,-0.175916 -0.263874,0 -0.653401,0.125654 -0.38952802,0.125651 -0.904709,0.464917 -0.414658,-0.238743 -0.79162,-0.565443 -0.376962,-0.339266 -0.615705,-0.7539235 -0.238742,-0.414658 -0.238742,-0.8544473 0,-0.6534008 0.477485,-1.0177974 0.49005,-0.3643966 1.36962798,-0.3643966 0.263874,0 0.54031302,0.025131 0.289004,0.012565 0.703662,0.050262 l -0.30157,0.238742 v -1.633502 h 1.09319 v 2.198945 q -0.263873,-0.025131 -0.502616,-0.037696 -0.226177,-0.012565 -0.477485,-0.012565 -1.05549402,0 -1.532979,0.2890042 -0.46492,0.2764388 -0.46492,0.7036627 0,0.201046 0.100524,0.364396 0.100523,0.163351 0.251308,0.289005 0.41465798,-0.263874 0.81675098,-0.376962 0.40209202,-0.125654 0.71622702,-0.125654 0.414659,0 0.753924,0.16335 0.351831,0.150785 0.678532,0.5026159 0.276439,0.301569 0.402093,0.62827 0.138219,0.314134 0.138219,0.6534 0,0.552878 -0.3267,0.980101 -0.314135,0.414659 -0.879578,0.665967 -0.552878,0.238742 -1.29423602,0.238741 z"
       id="path4925" /><path
       style="font-size:12.5654px;line-height:0.95;font-family:'Noto Serif Devanagari';-inkscape-font-specification:'Noto Serif Devanagari';text-align:center;text-anchor:middle;opacity:0.8;stroke-width:0.130759"
       d="M 2.5472256,5.1692 H 1.9817826 Q 1.5545586,4.654019 1.3032506,4.176533 1.0519426,3.699048 1.0519426,3.158736 q 0,-0.603139 0.389528,-0.992667 0.402092,-0.402092 1.042928,-0.402092 0.578008,0 0.95497,0.289004 0.389528,0.289004 0.653401,0.691097 l -0.301569,0.301569 q -0.175916,-0.16335 -0.402093,-0.238742 -0.213612,-0.08796 -0.439789,-0.08796 -0.427224,0 -0.691097,0.276439 -0.251308,0.276438 -0.251308,0.741358 0,0.376962 0.16335,0.753924 0.16335,0.376962 0.376962,0.678532 z"
       id="path461" /></g><g
     id="g4913"
     inkscape:label="1"
     transform="translate(-6.2807825,0.4379014)"><path
       style="font-size:12.5654px;line-height:0.95;font-family:'Noto Serif Devanagari';-inkscape-font-specification:'Noto Serif Devanagari';text-align:center;text-anchor:middle;fill:#c9c9c9;fill-opacity:1;stroke-width:0.130759"
       d="M 9.9299313,6.0487672 9.3770543,5.2320162 V 5.0812314 H 15.8608 l 0.552877,0.8418818 v 0.125654 z"
       id="path4919" /><path
       style="font-size:12.5654px;line-height:0.95;font-family:'Noto Serif Devanagari';-inkscape-font-specification:'Noto Serif Devanagari';text-align:center;text-anchor:middle;stroke-width:0.130759"
       d="M 14.202167,14.794285 Q 13.850336,14.542978 13.473374,14.17858 13.108977,13.826749 12.769712,13.424657 12.430446,13.03513 12.166572,12.670733 l 0.691097,0.0377 q 0.188481,0.175917 0.502616,0.402094 0.314135,0.226177 0.703663,0.439788 0.402092,0.226177 0.841881,0.402094 z"
       id="path4917" /><path
       style="font-size:12.5654px;line-height:0.95;font-family:'Noto Serif Devanagari';-inkscape-font-specification:'Noto Serif Devanagari';text-align:center;text-anchor:middle;stroke-width:0.130759"
       d="m 12.895366,12.859213 q -0.502616,0 -0.904709,-0.06283 -0.389528,-0.07539 -0.678532,-0.201044 -0.276439,-0.125654 -0.427223,-0.314135 -0.13822,-0.188481 -0.13822,-0.414657 0,-0.276439 0.188481,-0.427225 0.188481,-0.16335 0.46492,-0.16335 0.364397,0 0.665966,0.238743 0.30157,0.226177 0.552878,0.590574 l -0.904709,-0.238742 q 0.16335,0.02513 0.364397,0.05026 0.213611,0.01257 0.389527,0.01257 0.603139,0 1.080624,-0.163352 0.490051,-0.163349 0.76649,-0.439788 0.289004,-0.289004 0.289004,-0.628271 0,-0.339264 -0.226177,-0.502615 -0.213612,-0.175916 -0.540312,-0.175916 -0.263874,0 -0.653401,0.125654 -0.389528,0.125651 -0.904709,0.464917 -0.414658,-0.238743 -0.79162,-0.565443 -0.376962,-0.339266 -0.615705,-0.7539235 -0.238742,-0.414658 -0.238742,-0.8544473 0,-0.6534008 0.477485,-1.0177974 0.49005,-0.3643966 1.369628,-0.3643966 0.263874,0 0.540313,0.025131 0.289004,0.012565 0.703662,0.050262 l -0.30157,0.238742 v -1.633502 h 1.09319 v 2.198945 q -0.263873,-0.025131 -0.502616,-0.037696 -0.226177,-0.012565 -0.477485,-0.012565 -1.055494,0 -1.532979,0.2890042 -0.46492,0.2764388 -0.46492,0.7036627 0,0.201046 0.100524,0.364396 0.100523,0.163351 0.251308,0.289005 0.414658,-0.263874 0.816751,-0.376962 0.402092,-0.125654 0.716227,-0.125654 0.414659,0 0.753924,0.16335 0.351831,0.150785 0.678532,0.5026159 0.276439,0.301569 0.402093,0.62827 0.138219,0.314134 0.138219,0.6534 0,0.552878 -0.3267,0.980101 -0.314135,0.414659 -0.879578,0.665967 -0.552878,0.238742 -1.294236,0.238741 z"
       id="path976" /><path
       style="font-size:12.5654px;line-height:0.95;font-family:'Noto Serif Devanagari';-inkscape-font-specification:'Noto Serif Devanagari';text-align:center;text-anchor:middle;opacity:1;fill:#c9c9c9;fill-opacity:1;stroke-width:0.130759"
       d="m 29.56472,17.458094 h -0.565443 q -0.427224,-0.515181 -0.678532,-0.992667 -0.251308,-0.477485 -0.251308,-1.017797 0,-0.603139 0.389528,-0.992667 0.402092,-0.402092 1.042928,-0.402092 0.578008,0 0.95497,0.289004 0.389528,0.289004 0.653401,0.691097 l -0.301569,0.301569 q -0.175916,-0.16335 -0.402093,-0.238742 -0.213612,-0.08796 -0.439789,-0.08796 -0.427224,0 -0.691097,0.276439 -0.251308,0.276438 -0.251308,0.741358 0,0.376962 0.16335,0.753924 0.16335,0.376962 0.376962,0.678532 z"
       id="path457"
       transform="translate(-15.111244,-12.288894)" /></g><g
     id="g2259"
     transform="translate(-21.392026,-11.850993)"
     inkscape:label="Arrows"
     style="opacity:0.8"><g
       id="path2646"
       style="opacity:0.8"><path
         style="color:#000000;fill:#ff0c0c"
         d="m 30.089844,18.755859 v 2.013672 c -0.250745,-0.121 -0.511111,-0.159641 -0.761719,-0.169922 l -0.0059,0.13086 c 0.284194,0.01166 0.553637,0.02238 0.798828,0.173828 l 0.09961,0.06055 v -2.208985 z"
         id="path7437" /><g
         id="g7427"><g
           id="path7429"><path
             style="color:#000000;fill:#ff0c0c;fill-rule:evenodd;stroke-width:0.0655pt"
             d="m 28.947337,20.649686 0.579522,-0.304002 -0.02685,0.65445 z"
             id="path7433" /><path
             style="color:#000000;fill:#ff0c0c;fill-rule:evenodd"
             d="m 29.574219,20.271484 -0.714844,0.375 0.06445,0.04102 0.617188,0.390625 z m -0.0957,0.148438 -0.01953,0.501953 -0.425781,-0.269531 z"
             id="path7435" /></g></g></g><g
       id="path2674"
       style="opacity:0.8"><path
         style="color:#000000;fill:#ff0c0c"
         d="m 25.941406,19.322266 c -0.01436,0.01805 -0.06235,0.06339 -0.123047,0.123046 -0.06069,0.05965 -0.135913,0.13681 -0.21289,0.230469 -0.153954,0.187319 -0.317049,0.442973 -0.390625,0.771485 l 0.128906,0.0293 c 0.06776,-0.302523 0.217831,-0.539825 0.363281,-0.716796 0.07272,-0.08849 0.143951,-0.162545 0.203125,-0.220704 0.05917,-0.05816 0.103372,-0.09777 0.132813,-0.134765 z"
         id="path7451" /><g
         id="g7441"><g
           id="path7443"><path
             style="color:#000000;fill:#ff0c0c;fill-rule:evenodd;stroke-width:0.0655pt"
             d="m 25.196563,20.830933 -0.195756,-0.624454 0.639166,0.143153 z"
             id="path7447" /><path
             style="color:#000000;fill:#ff0c0c;fill-rule:evenodd"
             d="m 24.935547,20.146484 0.242187,0.769532 0.05078,-0.05469 0.49414,-0.537109 z m 0.130859,0.119141 0.490235,0.109375 -0.341797,0.371094 z"
             id="path7449" /></g></g></g><g
       id="path2722"
       style="opacity:0.8"><path
         style="color:#000000;fill:#ff0c0c"
         d="m 26.599609,22.707031 -0.08008,0.105469 c 0.267858,0.205765 0.527969,0.439938 0.855469,0.580078 l 0.03125,0.01367 0.0293,-0.01758 c 0.365735,-0.227667 0.581742,-0.285527 0.857422,-0.404297 l -0.05273,-0.121094 c -0.254963,0.109845 -0.486453,0.18481 -0.833984,0.394531 -0.29104,-0.130497 -0.540664,-0.346461 -0.806641,-0.550781 z"
         id="path7465" /><g
         id="g7455"><g
           id="path7457"><path
             style="color:#000000;fill:#ff0c0c;fill-rule:evenodd;stroke-width:0.0655pt"
             d="m 28.613827,22.773983 -0.390757,0.52495 -0.259163,-0.601548 z"
             id="path7461" /><path
             style="color:#000000;fill:#ff0c0c;fill-rule:evenodd"
             d="m 27.894531,22.644531 0.31836,0.740235 0.480468,-0.644532 -0.07422,-0.0098 z m 0.138672,0.103516 0.5,0.05859 -0.298828,0.404296 z"
             id="path7463" /></g></g></g><g
       id="path2754"
       style="opacity:0.8"><path
         style="color:#000000;fill:#ff0c0c"
         d="m 30.679687,22.058594 -0.109375,0.07031 c 0.06748,0.106676 0.663546,1.020376 0.191407,2.107422 l 0.11914,0.05273 C 31.37995,23.139963 30.741448,22.15623 30.679687,22.058594 Z"
         id="path7479" /><g
         id="g7469"><g
           id="path7471"><path
             style="color:#000000;fill:#ff0c0c;fill-rule:evenodd;stroke-width:0.0655pt"
             d="m 30.671102,24.609023 -0.07468,-0.650143 0.60078,0.260937 z"
             id="path7475" /><path
             style="color:#000000;fill:#ff0c0c;fill-rule:evenodd"
             d="m 30.544922,23.888672 0.0918,0.800781 0.06055,-0.04492 0.585937,-0.435547 z m 0.103515,0.140625 0.462891,0.201172 -0.404297,0.298828 z"
             id="path7477" /></g></g></g><g
       id="path2788"
       style="opacity:0.8"><path
         style="color:#000000;fill:#ff0c0c"
         d="m 26.857422,23.365234 c -0.294167,-0.08703 -0.578646,-0.06814 -0.806641,0.0332 -0.227994,0.101341 -0.399529,0.28531 -0.464844,0.517579 -0.06531,0.232268 -0.02243,0.508978 0.164063,0.791015 l 0.109375,-0.07227 c -0.170206,-0.257405 -0.202382,-0.491762 -0.148438,-0.683594 0.05394,-0.191833 0.19735,-0.343996 0.394532,-0.431641 0.394363,-0.175289 1.007084,-0.08396 1.519531,0.539063 0.06251,0.07599 0.192281,0.312528 0.375,0.572265 0.182719,0.259738 0.425172,0.548335 0.740234,0.75 l 0.07031,-0.109375 c -0.292735,-0.187374 -0.525534,-0.462395 -0.703125,-0.714843 -0.177592,-0.252449 -0.294114,-0.476568 -0.38086,-0.582032 -0.270658,-0.32906 -0.574973,-0.522342 -0.86914,-0.609375 z"
         id="path7493" /><g
         id="g7483"><g
           id="path7485"><path
             style="color:#000000;fill:#ff0c0c;fill-rule:evenodd;stroke-width:0.0655pt"
             d="m 29.093693,25.530186 -0.653748,-0.02961 0.353112,-0.551667 z"
             id="path7489" /><path
             style="color:#000000;fill:#ff0c0c;fill-rule:evenodd"
             d="m 28.796875,24.861328 -0.433594,0.679688 0.804688,0.03711 -0.03516,-0.06836 z m -0.0078,0.175781 0.230469,0.445313 -0.501953,-0.02148 z"
             id="path7491" /></g></g></g><g
       id="path7495"
       style="opacity:0.8"
       transform="translate(26.458334)"><path
         style="color:#000000;fill:#ff0c0c"
         d="m 24.48828,16.765625 v 0.130859 h 3.19336 v -0.130859 z"
         id="path7537" /><g
         id="g7527"><g
           id="path7529"><path
             style="color:#000000;fill:#ff0c0c;fill-rule:evenodd;stroke-width:0.0655pt"
             d="m 28.059591,16.831444 -0.566575,0.3275 v -0.655 z"
             id="path7533" /><path
             style="color:#000000;fill:#ff0c0c;fill-rule:evenodd"
             d="m 27.449218,16.427734 v 0.806641 l 0.697265,-0.402344 -0.06445,-0.03906 z m 0.08789,0.152344 0.433594,0.251953 -0.433594,0.25 z"
             id="path7535" /></g></g></g><g
       id="path2529"
       transform="translate(20.730568,11.969067)"><path
         style="color:#000000;fill:#ff0000"
         d="m 20.296875,2.1757813 c -0.507177,0.6563463 -0.481147,1.3970791 -0.328125,1.9648437 0.153022,0.5677646 0.433594,0.9726563 0.433594,0.9726562 l 0.107422,-0.074219 c 0,0 -0.267362,-0.3873295 -0.414063,-0.9316406 C 19.949002,3.5631107 19.923649,2.872819 20.400391,2.2558594 Z"
         id="path3048" /><g
         id="g3038"><g
           id="path3040"><path
             style="color:#000000;fill:#ff0000;fill-rule:evenodd;stroke-width:0.0655pt"
             d="m 20.579199,1.9168311 -0.08728,0.6485713 -0.518291,-0.400498 z"
             id="path3044" /><path
             style="color:#000000;fill:#ff0000;fill-rule:evenodd"
             d="m 20.632812,1.8476562 -0.07031,0.029297 -0.675781,0.2753907 0.638672,0.4941406 z m -0.107421,0.1386719 -0.06641,0.4980469 -0.40039,-0.3085937 z"
             id="path3046" /></g></g></g></g><g
     id="g5435"
     inkscape:label="Start markers"
     transform="translate(7.009177,0.96389269)"><circle
       r="0.67124546"
       clip-path="none"
       cy="18.04137"
       cx="29.077444"
       id="circle10879"
       style="opacity:0.6;fill:#00ff00;fill-opacity:1;stroke:none;stroke-width:0.268498;stroke-linecap:round;stroke-linejoin:miter;stroke-miterlimit:4;stroke-dasharray:none;stroke-dashoffset:0;stroke-opacity:1"
       transform="translate(-28.401203,-12.814885)" /><circle
       r="0.67124546"
       clip-path="none"
       cy="4.9926243"
       cx="22.898958"
       id="circle5433"
       style="opacity:0.6;fill:#00ff00;fill-opacity:1;stroke:none;stroke-width:0.268498;stroke-linecap:round;stroke-linejoin:miter;stroke-miterlimit:4;stroke-dasharray:none;stroke-dashoffset:0;stroke-opacity:1" /><circle
       r="0.67124546"
       clip-path="none"
       cy="4.5615063"
       cx="14.077733"
       id="circle3034"
       style="opacity:0.6;fill:#00ff00;fill-opacity:1;stroke:none;stroke-width:0.268498;stroke-linecap:round;stroke-linejoin:miter;stroke-miterlimit:4;stroke-dasharray:none;stroke-dashoffset:0;stroke-opacity:1" /></g></svg>
